<?xml version="1.0" encoding="UTF-8" standalone="no"?>
<!-- Created with Inkscape (http://www.inkscape.org/) -->

<svg
   version="1.1"
   id="svg1"
   width="1445.1221"
   height="526.26471"
   viewBox="0 0 1445.1221 526.26471"
   sodipodi:docname="equations.svg"
   inkscape:version="1.4.3 (0d15f75042, 2025-12-25)"
   xml:space="preserve"
   inkscape:export-filename="mean_field_schematic.svg"
   inkscape:export-xdpi="400"
   inkscape:export-ydpi="400"
   xmlns:inkscape="http://www.inkscape.org/namespaces/inkscape"
   xmlns:sodipodi="http://sodipodi.sourceforge.net/DTD/sodipodi-0.dtd"
   xmlns="http://www.w3.org/2000/svg"
   xmlns:svg="http://www.w3.org/2000/svg"><defs
     id="defs1" /><sodipodi:namedview
     id="namedview1"
     pagecolor="#ffffff"
     bordercolor="#666666"
     borderopacity="1.0"
     inkscape:showpageshadow="2"
     inkscape:pageopacity="0.0"
     inkscape:pagecheckerboard="0"
     inkscape:deskcolor="#d1d1d1"
     inkscape:zoom="0.75346972"
     inkscape:cx="1189.8288"
     inkscape:cy="185.14347"
     inkscape:window-width="1920"
     inkscape:window-height="1028"
     inkscape:window-x="0"
     inkscape:window-y="32"
     inkscape:window-maximized="1"
     inkscape:current-layer="g476"
     showgrid="false"><inkscape:page
       x="0"
       y="0"
       width="1445.1221"
       height="526.26471"
       id="page2"
       margin="0"
       bleed="0" /></sodipodi:namedview><g
     id="layer-MC1"
     inkscape:groupmode="layer"
     inkscape:label="Midground"
     transform="translate(-1651.5788,-474.54827)"><g
       id="g10"
       transform="matrix(1.2630445,0,0,1.2630445,-873.2427,-497.86244)"
       style="stroke-width:0.791739"><path
         id="path8-03"
         d="m 2056.8205,826.21919 c -2.6427,2.41294 -5.4004,3.56196 -8.4453,3.56196 -5.1131,0 -7.5835,-2.75765 -7.5835,-7.98567 0,-8.61763 5.1132,-14.36272 11.1455,-14.36272 3.8492,0 6.0898,2.06823 5.9174,7.29626 h 1.264 l 1.8384,-8.96234 h -1.0916 c -0.6319,0.86177 -1.0341,1.43628 -1.6661,1.43628 -0.9766,0 -2.0107,-1.49373 -5.9174,-1.49373 -7.9282,0 -15.2819,6.08979 -15.2819,17.06291 0,5.17058 2.4704,9.53684 9.5368,9.53684 4.9408,0 8.3304,-2.18313 10.9731,-5.34293 z m 0,0"
         style="fill:#000000;fill-opacity:1;fill-rule:nonzero;stroke:none;stroke-width:1.05565"
         aria-label="𝐶" /><path
         id="path9-0"
         d="m 2071.2838,815.99293 -0.3447,1.60863 c 3.8492,0 4.9408,0.63196 4.1939,4.48116 l -4.6535,22.46329 c -0.8618,4.30882 -1.8384,4.99823 -5.9174,4.99823 l -0.2873,1.60862 h 13.5584 c 13.6733,0 23.4974,-6.14724 23.4974,-21.31427 0,-8.33037 -4.9982,-13.84566 -16.1437,-13.84566 z m 9.422,2.29804 c 0.9192,-0.0575 1.4362,-0.1149 2.3554,-0.1149 10.5136,0 12.9265,5.63018 12.9265,12.17958 0,13.2137 -6.6069,18.72898 -18.1545,18.72898 -1.3788,0 -2.4129,0 -3.447,-0.17235 z m 0,0"
         style="fill:#000000;fill-opacity:1;fill-rule:nonzero;stroke:none;stroke-width:1.05565"
         aria-label="𝐷" /><path
         id="path10-4"
         d="m 2125.4456,799.14547 c 0,-3.1598 -2.0683,-5.11313 -4.8834,-5.11313 -8.7325,0 -11.1454,11.89233 -13.2137,23.21015 -0.8043,4.42372 -1.666,8.78998 -2.6427,13.2137 l 0.517,0.0575 c 4.9983,-0.17235 4.0791,-5.68764 4.5387,-11.71998 h 0.2872 c 0.8043,1.43628 2.3555,3.67686 5.343,3.67686 3.7343,0 8.2729,-1.89588 8.2729,-8.15802 0,-3.90666 -2.4704,-6.6643 -4.7684,-7.52607 v -0.17235 c 3.1598,-1.20647 6.5494,-3.3896 6.5494,-7.46861 z m -10.4561,20.28015 c -2.93,0 -4.6535,-1.89588 -4.6535,-4.94077 0,-4.07901 1.4362,-17.40761 9.1347,-17.40761 1.666,0 3.0449,0.97666 3.0449,3.44705 0,4.13646 -4.4812,5.28548 -5.4579,5.28548 -0.1149,0 -1.8384,-0.17235 -2.1831,-0.17235 -0.632,0 -1.0341,0.86176 -1.0341,1.72352 0,0.86177 0.4596,1.60863 0.8617,1.60863 0.4596,0 1.4938,-0.63196 2.93,-1.49373 0.8043,0.57451 3.3896,2.29804 3.3896,6.37705 0,5.05568 -3.5619,5.57273 -6.0323,5.57273 z m 0,0"
         style="fill:#dc143c;fill-opacity:1;fill-rule:nonzero;stroke:none;stroke-width:1.05565"
         aria-label="𝛽" /><path
         id="path11-4"
         d="m 2114.7453,849.81713 h -3.8492 l 1.0341,-4.65352 h -1.149 c -1.9533,3.3896 -2.93,4.07901 -5.4004,5.40038 l -0.1723,0.80431 h 2.2405 l -2.7001,12.9839 c -0.057,0.2298 -0.2873,1.60862 -0.2873,2.24058 0,1.20647 0.7469,2.06823 2.4129,2.06823 3.0449,0 4.711,-2.87254 5.86,-4.42371 l -0.8043,-0.57451 c -1.3788,1.78098 -2.1831,2.35548 -3.3321,2.35548 -0.5171,0 -0.632,-0.40215 -0.632,-0.80431 0,-0.68941 0.2298,-1.95333 0.2298,-1.95333 l 2.3555,-11.89233 h 3.8492 z m 0,0"
         style="fill:#000000;fill-opacity:1;fill-rule:nonzero;stroke:none;stroke-width:1.05565"
         aria-label="𝑡" /><path
         id="path12-4"
         d="m 2146.8604,835.23897 h -0.1724 l -0.6319,-2.75764 c -0.7469,-2.87254 -1.7235,-5.22803 -3.0449,-6.72175 h -0.8043 l -7.4112,0.86176 v 1.60863 c 0,0 0.8043,-0.17235 1.6661,-0.17235 3.5045,-0.0575 4.4237,1.37882 5.86,5.85998 l 1.4937,4.88333 -3.8492,5.63018 c -2.0682,2.98745 -3.0449,3.0449 -3.2747,3.0449 -0.8618,0 -2.1831,-0.68941 -3.3322,-0.68941 -1.3213,0 -2.1256,1.14902 -2.1256,2.24058 0,1.32137 0.8043,2.58529 3.1023,2.58529 3.2173,0 4.9982,-2.47039 6.7218,-5.28548 l 3.3896,-5.57273 h 0.2298 l 1.3213,5.40038 c 0.7469,3.5045 1.9534,5.51528 4.4238,5.51528 3.6194,0 5.8599,-3.6194 7.4111,-5.97489 l -1.0916,-0.86176 c -1.4937,1.95333 -2.4703,2.98744 -3.8492,2.98744 -1.666,0 -2.7576,-1.95333 -4.2513,-6.8941 l -1.149,-3.61941 3.2747,-5.17057 c 0.9192,-1.55118 1.666,-2.29804 2.93,-2.29804 0.6894,0 1.8958,0.57451 2.7576,0.57451 1.4363,0 2.4704,-1.26392 2.4704,-2.52784 0,-1.49372 -0.632,-2.35548 -2.7002,-2.35548 -3.1598,0 -5.2855,2.64274 -6.7218,5.17057 z m 0,0"
         style="fill:#000000;fill-opacity:1;fill-rule:nonzero;stroke:none;stroke-width:1.05565"
         aria-label="𝑥" /><path
         id="path13-4"
         d="m 2211.6075,833.6878 v -3.67686 h -31.8852 v 3.67686 z m 0,10.85821 v -3.56195 h -31.8852 v 3.56195 z m 53.3144,-5.40038 v -3.67685 h -31.8852 v 3.67685 z m 0,0"
         style="fill:#000000;fill-opacity:1;fill-rule:nonzero;stroke:none;stroke-width:1.05565"
         aria-label="=−" /><path
         id="path14-7"
         d="m 2270.3224,850.69326 0.1149,0.4596 h 4.4811 l 3.0449,-9.88155 c 0.5745,-1.83842 4.8259,-11.43272 9.7092,-11.43272 1.6661,0 2.6428,1.20647 2.6428,4.65352 0,7.64097 -4.194,16.89056 -9.422,28.09348 l 0.9192,0.17235 c 3.2173,0 4.8259,-1.03412 6.2047,-4.59607 2.0108,-5.34293 5.0557,-19.13114 5.0557,-25.22093 0,-5.34293 -1.7235,-7.52607 -4.2514,-7.52607 -3.0449,0 -6.0323,1.89588 -9.939,9.13469 h -0.2872 c 0.4021,-2.81509 0.6894,-3.7343 0.6894,-5.22803 0,-1.83843 -0.632,-3.79175 -3.3896,-3.79175 -3.2173,0 -5.7451,2.92999 -7.0665,5.40038 l 1.0341,0.74686 c 0.9767,-1.14902 1.9534,-2.35549 3.7344,-2.35549 1.5511,0 2.1256,1.37882 2.1256,4.94078 0,1.14901 -0.5745,3.10234 -0.7468,3.44705 z m 0,0"
         style="fill:#000000;fill-opacity:1;fill-rule:nonzero;stroke:none;stroke-width:1.05565"
         aria-label="𝜂" /><path
         id="path15-6"
         d="m 2333.6188,814.90137 h -33.0917 l 16.2011,36.9409 h 1.0916 z m -3.5045,2.24058 -11.4902,27.05936 -11.3752,-27.05936 z m 0,0"
         style="fill:#000000;fill-opacity:1;fill-rule:nonzero;stroke:none;stroke-width:1.05565"
         aria-label="∇" /><path
         id="path16-3"
         d="m 2368.0463,807.83491 c -0.6894,2.06823 -1.8959,2.52784 -3.1024,2.52784 -2.5852,0 -4.1939,-2.29804 -7.2962,-2.29804 -2.7002,0 -4.8259,2.01078 -5.4004,5.63019 h 1.4363 c 0.517,-1.95333 1.6661,-2.47039 2.93,-2.47039 2.5853,0 4.1939,2.29804 7.1239,2.29804 2.9874,0 4.8833,-1.55118 5.6876,-5.68764 z m 0,0"
         style="fill:#000000;fill-opacity:1;fill-rule:nonzero;stroke:none;stroke-width:1.05565"
         aria-label="̃" /><path
         id="path17-1"
         d="m 2350.6386,844.48856 h -0.2298 l -0.4021,-6.26214 -1.6086,-15.28193 c -0.057,-0.34471 -0.1149,-1.55118 -0.1149,-1.89588 -0.1724,-2.41294 1.5511,-3.44705 4.2513,-3.44705 l 0.1724,-1.60863 h -13.0988 l -0.1149,1.60863 c 2.8151,0 3.7343,1.32137 4.1939,4.88332 l 2.9874,28.95524 h 1.7236 l 19.6481,-28.09348 c 3.2747,-4.88332 4.3089,-5.74508 7.2389,-5.74508 l 0.1149,-1.60863 h -11.6051 l -0.057,1.60863 c 2.413,0 3.1598,0.3447 3.1598,1.37882 0,0.86176 -0.6894,2.12568 -1.6086,3.56195 z m 0,0"
         style="fill:#000000;fill-opacity:1;fill-rule:nonzero;stroke:none;stroke-width:1.05565"
         aria-label="𝑉" /><path
         id="path18-7"
         d="m 2390.0499,849.40062 c -0.3447,-2.18313 -1.0915,-5.74508 -4.8833,-5.74508 -5.4004,0 -9.1921,4.88332 -9.1921,12.06468 0,4.48117 1.2639,7.23881 4.4811,7.23881 2.8151,0 5.4579,-3.10235 7.7559,-6.7792 h 0.3447 c -0.1723,1.26392 -0.3447,2.35548 -0.3447,3.33215 0,1.89588 0.6894,3.2747 2.5279,3.2747 3.1598,0 4.6535,-2.8151 5.228,-3.79176 l -0.632,-0.63196 c -0.7468,0.80431 -1.4937,1.49372 -2.6427,1.49372 -2.1831,0 -2.0682,-4.13646 -2.0682,-7.009 0,-0.17236 1.8958,-2.75765 4.8833,-6.89411 0.2298,-0.40215 0.8617,-1.09156 1.0915,-1.43627 v -0.57451 l -3.2747,0.0575 c -0.7468,1.03412 -2.1256,3.21725 -3.0449,5.40038 z m -8.7325,10.11136 c -1.8384,0 -3.5619,-1.32137 -3.5619,-4.71097 0,-5.22803 2.9874,-7.87077 7.2388,-7.87077 2.4704,0 3.7917,1.09156 3.7917,3.5045 0,0.63196 -0.057,1.09157 -0.1149,1.37882 -0.2872,2.70019 -3.447,7.69842 -7.3537,7.69842 z m 0,0"
         style="fill:#6495ed;fill-opacity:1;fill-rule:nonzero;stroke:none;stroke-width:1.05565"
         aria-label="𝛼" /><path
         id="path19-5"
         d="m 2447.8886,839.14563 v -3.67685 h -14.018 v -14.13292 h -3.8492 v 14.13292 h -14.018 v 3.67685 h 14.018 v 14.13292 h 3.8492 v -14.13292 z m 0,0"
         style="fill:#000000;fill-opacity:1;fill-rule:nonzero;stroke:none;stroke-width:1.05565"
         aria-label="+" /><path
         id="path20-9"
         d="m 2489.3681,825.93193 -4.9982,0.0575 c -2.0108,3.67686 -5.4004,10.11136 -8.4453,15.16703 l -2.0682,3.96411 h -0.3447 c 0.4022,-2.81509 1.3214,-8.78998 1.3214,-12.29448 0,-4.48117 -1.149,-7.06646 -4.1365,-7.06646 -3.0449,0 -5.6302,2.64274 -7.0664,5.45783 l 1.0341,0.80432 c 1.3788,-1.72353 2.4704,-2.41294 3.8492,-2.41294 2.7002,0 3.1023,4.48117 3.1023,7.46861 0,3.1598 -0.1723,7.06646 -0.517,11.26037 -2.2406,4.19391 -5.5153,8.27293 -5.5153,11.37527 0,2.29804 1.3214,2.8151 3.5045,2.87255 2.7002,-3.67686 4.1939,-10.74332 4.9982,-13.96056 5.5153,-7.18136 10.6284,-14.76488 15.3394,-21.88879 z m 0,0"
         style="fill:#ef9901;fill-opacity:1;fill-rule:nonzero;stroke:none;stroke-width:1.05565"
         aria-label="𝛾" /><path
         id="path21-6"
         d="m 2505.8422,862.93029 0.4022,-1.43627 c -4.3088,0 -5.4004,-1.43627 -5.4004,-2.70019 0,-0.74686 0.057,-1.72353 0.1723,-2.24058 l 1.3214,-6.2047 c 1.0341,0.63196 3.1598,1.37882 4.8259,1.37882 8.3878,0 14.5925,-6.95155 14.5925,-17.00545 0,-6.2047 -3.3322,-9.19214 -7.5261,-9.19214 -2.7576,0 -4.9982,1.49372 -7.5835,4.36626 h -0.2872 l 0.7468,-4.07901 h -0.9766 l -7.641,0.80431 v 1.32137 c 0,0 0.8618,-0.1149 1.6661,-0.1149 1.4362,0 2.0108,0.45961 2.0108,1.55118 0,0.40215 -0.057,0.68941 -0.1149,1.03411 l -5.6877,27.00191 c -0.4596,2.47039 -0.8617,4.02156 -4.3662,4.07901 l -0.3448,1.43627 z m -0.1723,-28.43818 c 1.4937,-3.10235 3.6768,-5.97489 7.0664,-5.97489 1.6086,0 4.3088,1.14902 4.3088,6.2047 0,9.42194 -3.7343,14.70742 -9.4219,14.70742 -2.2406,0 -3.7343,-0.91922 -4.6535,-1.72353 z m 0,0"
         style="fill:#000000;fill-opacity:1;fill-rule:nonzero;stroke:none;stroke-width:1.05565"
         aria-label="𝑝" /><path
         id="path22-2"
         d="m 2571.5516,839.14563 v -3.67685 h -14.018 v -14.13292 h -3.8492 v 14.13292 h -14.018 v 3.67685 h 14.018 v 14.13292 h 3.8492 v -14.13292 z m 0,0"
         style="fill:#000000;fill-opacity:1;fill-rule:nonzero;stroke:none;stroke-width:1.05565"
         aria-label="+" /><path
         id="path23-1"
         d="m 2588.8012,850.69326 0.1149,0.4596 h 4.4812 l 3.0449,-9.88155 c 0.5745,-1.83842 4.8259,-11.43272 9.7092,-11.43272 1.6661,0 2.6427,1.20647 2.6427,4.65352 0,7.64097 -4.1939,16.89056 -9.4219,28.09348 l 0.9192,0.17235 c 3.2172,0 4.8259,-1.03412 6.2047,-4.59607 2.0108,-5.34293 5.0557,-19.13114 5.0557,-25.22093 0,-5.34293 -1.7236,-7.52607 -4.2514,-7.52607 -3.0449,0 -6.0323,1.89588 -9.939,9.13469 h -0.2873 c 0.4022,-2.81509 0.6895,-3.7343 0.6895,-5.22803 0,-1.83843 -0.632,-3.79175 -3.3896,-3.79175 -3.2173,0 -5.7451,2.92999 -7.0665,5.40038 l 1.0341,0.74686 c 0.9767,-1.14902 1.9533,-2.35549 3.7343,-2.35549 1.5512,0 2.1257,1.37882 2.1257,4.94078 0,1.14901 -0.5745,3.10234 -0.7469,3.44705 z m 0,0"
         style="fill:#000000;fill-opacity:1;fill-rule:nonzero;stroke:none;stroke-width:1.05565"
         aria-label="𝜂" /><path
         id="path24-7"
         d="m 2635.6381,798.72897 v -0.80431 c -2.7002,0 -3.7918,-0.51706 -3.7918,-1.95333 v -15.97134 h -0.8043 l -5.6877,1.60863 v 0.97666 c 0.9193,-0.28726 2.413,-0.45961 2.9875,-0.45961 0.7469,0 0.9767,0.40216 0.9767,1.43627 v 12.40939 c 0,1.43627 -1.0342,1.95333 -3.7918,1.95333 v 0.80431 z m 0,0"
         style="fill:#000000;fill-opacity:1;fill-rule:nonzero;stroke:none;stroke-width:1.05565"
         aria-label="1" /><path
         id="path25-8"
         d="m 2621.4124,811.50712 h 18.0215"
         style="fill:none;stroke:#000000;stroke-width:0.572164;stroke-linecap:butt;stroke-linejoin:miter;stroke-miterlimit:10;stroke-dasharray:none;stroke-opacity:1" /><path
         id="path26-5"
         d="m 2633.2538,834.7363 c -0.2872,-1.66608 -0.8617,-4.30882 -3.6768,-4.30882 -4.079,0 -6.9516,3.6194 -6.9516,9.01979 0,3.33215 0.9767,5.40038 3.3896,5.40038 2.1257,0 4.079,-2.29804 5.86,-5.05568 h 0.2298 c -0.1149,0.97667 -0.2298,1.78098 -0.2298,2.47039 0,1.43627 0.4596,2.52784 1.8384,2.52784 2.413,0 3.5045,-2.18314 3.9641,-2.87255 l -0.517,-0.51705 c -0.5171,0.63196 -1.0916,1.14901 -1.9533,1.14901 -1.6661,0 -1.5512,-3.10234 -1.5512,-5.22803 0,-0.11489 1.4363,-2.12568 3.6194,-5.22802 0.2298,-0.28726 0.6894,-0.80432 0.8618,-1.03412 v -0.45961 l -2.4704,0.0575 c -0.5171,0.80432 -1.5512,2.41294 -2.2406,4.07902 z m -6.6068,7.52606 c -1.3214,0 -2.6428,-0.97667 -2.6428,-3.5045 0,-3.90666 2.2406,-5.91744 5.4004,-5.91744 1.8959,0 2.8726,0.80431 2.8726,2.64274 0,0.4596 -0.057,0.80431 -0.057,1.03411 -0.2298,2.01078 -2.5853,5.74509 -5.5727,5.74509 z m 0,0"
         style="fill:#6495ed;fill-opacity:1;fill-rule:nonzero;stroke:none;stroke-width:1.05565"
         aria-label="𝛼" /><path
         id="path27-7"
         d="m 2667.7962,830.24075 c -2.7002,0.0574 -5.1706,0.68941 -8.3878,1.95333 -0.9767,-1.55118 -1.4938,-2.52784 -1.4938,-4.07901 0,-6.72176 11.4902,-8.56018 11.6626,-8.56018 3.3321,-0.40216 3.6194,-1.49373 3.6194,-2.87255 0,-1.55117 -0.5171,-2.52784 -1.0342,-2.52784 -0.7468,0 -4.4237,1.09157 -8.8474,3.50451 -1.4363,-0.68941 -2.5278,-1.43627 -2.5278,-3.10235 0,-1.43627 0.517,-2.18313 1.7809,-3.33215 l -0.6894,-0.91921 c -2.4129,0.91921 -4.7109,2.87254 -4.7109,4.82587 0,2.64274 2.4704,3.44705 4.079,3.79176 v 0.17235 c -4.0216,2.01078 -6.2047,4.53862 -6.2047,8.38782 0,2.87255 1.6086,4.19392 2.93,5.28548 v 0.17236 c -3.6769,1.78097 -6.8941,4.36626 -6.8941,9.30704 0,11.31782 14.2478,6.95155 14.2478,12.86899 0,2.52784 -3.6194,3.33215 -7.1814,3.3896 -1.4937,0 -3.0449,-0.1149 -4.1939,-0.2298 l -0.057,0.57451 c 0,1.83843 1.0341,4.07901 3.9066,4.07901 3.562,0 9.939,-3.10235 9.939,-9.8241 0,-8.84743 -14.1903,-5.22803 -14.1903,-11.94978 0,-2.87254 1.8958,-5.57273 6.2047,-6.7792 0.2872,0 2.5852,0.86176 5.9748,0.86176 1.1491,0 2.5853,-0.74686 2.8726,-2.98744 0.1149,-1.09157 -0.1149,-2.01078 -0.8043,-2.01078 z m 0,0"
         style="fill:#000000;fill-opacity:1;fill-rule:nonzero;stroke:none;stroke-width:1.05565"
         aria-label="𝜉" /><path
         id="path28-4"
         d="m 2689.6849,849.40062 c -0.3447,-2.18313 -1.0915,-5.74508 -4.8833,-5.74508 -5.4004,0 -9.1921,4.88332 -9.1921,12.06468 0,4.48117 1.2639,7.23881 4.4811,7.23881 2.8151,0 5.4579,-3.10235 7.7559,-6.7792 h 0.3447 c -0.1723,1.26392 -0.3447,2.35548 -0.3447,3.33215 0,1.89588 0.6894,3.2747 2.5278,3.2747 3.1598,0 4.6536,-2.8151 5.2281,-3.79176 l -0.632,-0.63196 c -0.7469,0.80431 -1.4937,1.49372 -2.6427,1.49372 -2.1832,0 -2.0683,-4.13646 -2.0683,-7.009 0,-0.17236 1.8959,-2.75765 4.8834,-6.89411 0.2298,-0.40215 0.8617,-1.09156 1.0915,-1.43627 v -0.57451 l -3.2747,0.0575 c -0.7468,1.03412 -2.1257,3.21725 -3.0449,5.40039 z m -8.7325,10.11136 c -1.8384,0 -3.562,-1.32137 -3.562,-4.71097 0,-5.22803 2.9875,-7.87077 7.2389,-7.87077 2.4703,0 3.7917,1.09156 3.7917,3.5045 0,0.63196 -0.057,1.09157 -0.1149,1.37882 -0.2872,2.70019 -3.447,7.69842 -7.3537,7.69842 z m 0,0"
         style="fill:#6495ed;fill-opacity:1;fill-rule:nonzero;stroke:none;stroke-width:1.05565"
         aria-label="𝛼" /><path
         id="path29-1"
         d="m 2700.8448,867.95725 c 1.6087,-0.74686 4.8834,-2.06823 4.8834,-6.49194 0,-2.12569 -1.0916,-3.3896 -3.0449,-3.3896 -1.5512,0 -2.413,1.03411 -2.413,2.29803 0,1.09157 0.632,2.06823 2.1832,2.06823 0.4021,0 0.7468,-0.0575 1.2064,-0.2298 0,3.1598 -1.8384,4.13646 -3.2747,4.76842 z m 0,0"
         style="fill:#000000;fill-opacity:1;fill-rule:nonzero;stroke:none;stroke-width:1.05565"
         aria-label="," /><path
         id="path30-8"
         d="m 2728.6941,839.46162 c 0,-3.15979 -2.0682,-5.11312 -4.8833,-5.11312 -8.7326,0 -11.1455,11.89233 -13.2137,23.21015 -0.8043,4.42371 -1.6661,8.78998 -2.6428,13.2137 l 0.5171,0.0575 c 4.9982,-0.17235 4.079,-5.68764 4.5386,-11.71998 h 0.2873 c 0.8043,1.43627 2.3554,3.67686 5.3429,3.67686 3.7343,0 8.2729,-1.89588 8.2729,-8.15803 0,-3.90666 -2.4704,-6.6643 -4.7684,-7.52606 v -0.17235 c 3.1598,-1.20647 6.5494,-3.3896 6.5494,-7.46862 z m -10.4561,20.28016 c -2.93,0 -4.6535,-1.89588 -4.6535,-4.94077 0,-4.07902 1.4363,-17.40762 9.1347,-17.40762 1.6661,0 3.0449,0.97667 3.0449,3.44705 0,4.13647 -4.4812,5.28548 -5.4578,5.28548 -0.1149,0 -1.8385,-0.17235 -2.1832,-0.17235 -0.6319,0 -1.0341,0.86177 -1.0341,1.72353 0,0.86176 0.4596,1.60862 0.8618,1.60862 0.4596,0 1.4937,-0.63196 2.93,-1.49372 0.8043,0.57451 3.3896,2.29804 3.3896,6.37705 0,5.05567 -3.562,5.57273 -6.0324,5.57273 z m 0,0"
         style="fill:#dc143c;fill-opacity:1;fill-rule:nonzero;stroke:none;stroke-width:1.05565"
         aria-label="𝛽" /><path
         id="path31-5"
         d="m 2746.1592,858.73638 c 2.1257,-0.97667 6.6068,-2.75764 6.6068,-8.78998 0,-2.98745 -1.4362,-4.71098 -4.079,-4.71098 -2.1831,0 -3.3321,1.43628 -3.3321,3.1598 0,1.55118 0.8617,2.87255 2.93,2.87255 0.5745,0 1.0915,-0.11491 1.6661,-0.34471 0,4.36627 -2.4704,5.63019 -4.4238,6.49195 z m 0,0"
         style="fill:#000000;fill-opacity:1;fill-rule:nonzero;stroke:none;stroke-width:1.05565"
         aria-label="," /><g
         id="g488"
         transform="translate(706.14522,-115.87636)"
         style="stroke-width:0.791739"><path
           id="path32-9"
           d="m 2119.5425,890.52109 h -1.149 l -7.2963,0.57451 v 1.37882 c 0,0 0.9192,-0.1149 1.8384,-0.1149 1.4363,0 1.7235,0.91922 1.7235,1.60863 0,0.86176 -0.1723,1.78097 -0.1723,1.78097 l -1.781,8.96234 h -0.1149 c -1.3214,-1.32137 -3.1023,-2.12569 -5.3429,-2.12569 -7.9857,0 -13.9031,8.15803 -13.9606,18.26938 0,5.40038 2.8151,7.98567 6.3196,7.98567 3.3322,0 6.6069,-1.89588 9.2496,-5.17058 h 0.4596 c -0.1149,0.63196 -0.2872,1.66608 -0.2872,2.29804 0,1.66607 1.149,2.75764 3.2172,2.75764 3.6194,0 5.5727,-3.10235 7.3537,-5.68764 l -1.0341,-0.80431 c -0.7469,0.97666 -2.1257,2.75764 -4.0216,2.75764 -0.5745,0 -0.9192,-0.28725 -0.9192,-1.03411 0,-0.68941 0.2873,-2.24059 0.2873,-2.24059 z m -9.6518,28.26583 c -0.9192,3.33215 -4.1939,6.5494 -7.6984,6.5494 -2.5278,0 -4.1939,-1.37882 -4.1939,-6.08979 0,-7.06646 3.3896,-14.64998 8.9623,-14.64998 2.413,0 4.4812,1.72353 4.4812,5.28548 0,1.20647 -0.4596,4.76843 -1.5512,8.90489 z m 27.1599,21.19937 0.4022,-1.43627 c -4.3088,0 -5.4004,-1.43627 -5.4004,-2.70019 0,-0.74687 0.057,-1.72353 0.1723,-2.24059 l 1.3214,-6.20469 c 1.0341,0.63196 3.1598,1.37882 4.8259,1.37882 8.3878,0 14.5925,-6.95156 14.5925,-17.00546 0,-6.20469 -3.3321,-9.19214 -7.5261,-9.19214 -2.7576,0 -4.9982,1.49373 -7.5835,4.36627 h -0.2872 l 0.7468,-4.07901 h -0.9766 l -7.641,0.80431 v 1.32137 c 0,0 0.8618,-0.1149 1.6661,-0.1149 1.4363,0 2.0108,0.45961 2.0108,1.55117 0,0.40216 -0.057,0.68941 -0.1149,1.03412 l -5.6877,27.00191 c -0.4596,2.47038 -0.8617,4.02156 -4.3662,4.07901 l -0.3447,1.43627 z m -0.1723,-28.43818 c 1.4937,-3.10235 3.6768,-5.97489 7.0664,-5.97489 1.6087,0 4.3088,1.14902 4.3088,6.20469 0,9.42194 -3.7343,14.70742 -9.4219,14.70742 -2.2406,0 -3.7343,-0.91921 -4.6535,-1.72352 z m 0,0"
           style="fill:#000000;fill-opacity:1;fill-rule:nonzero;stroke:none;stroke-width:1.05565"
           aria-label="𝑑𝑝" /><path
           id="path33-7"
           d="m 2091.2735,952.65914 h 64.3891"
           style="fill:none;stroke:#000000;stroke-width:0.783294;stroke-linecap:butt;stroke-linejoin:miter;stroke-miterlimit:10;stroke-dasharray:none;stroke-opacity:1" /><path
           id="path34-5"
           d="m 2126.3648,965.29345 h -1.149 l -7.2963,0.57451 v 1.37882 c 0,0 0.9193,-0.1149 1.8385,-0.1149 1.4362,0 1.7235,0.91922 1.7235,1.60863 0,0.86176 -0.1724,1.78097 -0.1724,1.78097 l -1.7809,8.96234 h -0.1149 c -1.3214,-1.32137 -3.1024,-2.12568 -5.343,-2.12568 -7.9856,0 -13.9031,8.15802 -13.9605,18.26937 0,5.40039 2.8151,7.98569 6.3196,7.98569 3.3321,0 6.6068,-1.8959 9.2496,-5.1706 h 0.4596 c -0.1149,0.63196 -0.2873,1.6661 -0.2873,2.298 0,1.6661 1.149,2.7577 3.2173,2.7577 3.6194,0 5.5727,-3.1024 7.3537,-5.68765 l -1.0341,-0.80432 c -0.7469,0.97667 -2.1257,2.75764 -4.0216,2.75764 -0.5745,0 -0.9192,-0.28725 -0.9192,-1.03411 0,-0.68941 0.2872,-2.24059 0.2872,-2.24059 z m -9.6517,28.26583 c -0.9192,3.33215 -4.1939,6.54942 -7.6984,6.54942 -2.5279,0 -4.194,-1.37884 -4.194,-6.08981 0,-7.06646 3.3896,-14.64997 8.9624,-14.64997 2.4129,0 4.4811,1.72352 4.4811,5.28548 0,1.20646 -0.4596,4.76842 -1.5511,8.90488 z m 29.343,-15.85644 h -5.2855 l 1.4363,-6.4345 h -1.6086 c -2.6428,4.65352 -3.9641,5.63019 -7.3537,7.35372 l -0.2298,1.14901 h 3.0449 l -3.6769,17.80977 c -0.057,0.3447 -0.4022,2.12568 -0.4022,3.04486 0,1.6661 1.0342,2.8151 3.2747,2.8151 4.2514,0 6.492,-3.96408 8.0432,-6.03231 l -1.0916,-0.80431 c -1.8384,2.41293 -2.9875,3.21725 -4.5386,3.21725 -0.7469,0 -0.9192,-0.51706 -0.9192,-1.09157 0,-0.91921 0.4021,-2.70019 0.4021,-2.70019 l 3.2173,-16.2586 h 5.2854 z m 0,0"
           style="fill:#000000;fill-opacity:1;fill-rule:nonzero;stroke:none;stroke-width:1.05565"
           aria-label="𝑑𝑡" /><path
           id="path35-3"
           d="m 2211.6075,948.99171 v -3.67685 h -31.8852 v 3.67685 z m 0,10.85822 v -3.56196 h -31.8852 v 3.56196 z m 53.3144,-5.40038 v -3.67686 h -31.8852 v 3.67686 z m 0,0"
           style="fill:#000000;fill-opacity:1;fill-rule:nonzero;stroke:none;stroke-width:1.05565"
           aria-label="=−" /><path
           id="path36-8"
           d="m 2294.5666,941.23585 -4.9982,0.0575 c -2.0108,3.67685 -5.4004,10.11135 -8.4453,15.16703 l -2.0682,3.96411 h -0.3447 c 0.4021,-2.81509 1.3214,-8.78998 1.3214,-12.29449 0,-4.48117 -1.1491,-7.06645 -4.1365,-7.06645 -3.0449,0 -5.6302,2.64274 -7.0665,5.45783 l 1.0342,0.80431 c 1.3788,-1.72353 2.4703,-2.41294 3.8492,-2.41294 2.7002,0 3.1023,4.48117 3.1023,7.46862 0,3.15979 -0.1723,7.06645 -0.5171,11.26037 -2.2405,4.19391 -5.5152,8.27292 -5.5152,11.37527 0,2.29803 1.3213,2.81509 3.5045,2.87254 2.7002,-3.67685 4.1939,-10.74331 4.9982,-13.96056 5.5153,-7.18136 10.6284,-14.76487 15.3394,-21.88878 z m 0,0"
           style="fill:#ef9901;fill-opacity:1;fill-rule:nonzero;stroke:none;stroke-width:1.05565"
           aria-label="𝛾" /><path
           id="path37-8"
           d="m 2332.872,930.20528 h -33.0917 l 16.2012,36.94091 h 1.0915 z m -3.5045,2.24058 -11.4902,27.05936 -11.3752,-27.05936 z m 0,0"
           style="fill:#000000;fill-opacity:1;fill-rule:nonzero;stroke:none;stroke-width:1.05565"
           aria-label="∇" /><path
           id="path38-3"
           d="m 2367.2994,923.13882 c -0.6894,2.06824 -1.8959,2.52784 -3.1023,2.52784 -2.5853,0 -4.1939,-2.29803 -7.2963,-2.29803 -2.7002,0 -4.8259,2.01078 -5.4004,5.63018 h 1.4363 c 0.5171,-1.95333 1.6661,-2.47039 2.93,-2.47039 2.5853,0 4.1939,2.29804 7.1239,2.29804 2.9874,0 4.8833,-1.55117 5.6876,-5.68764 z m 0,0"
           style="fill:#000000;fill-opacity:1;fill-rule:nonzero;stroke:none;stroke-width:1.05565"
           aria-label="̃" /><path
           id="path39-1"
           d="m 2349.8918,959.79248 h -0.2299 l -0.4021,-6.26215 -1.6086,-15.28193 c -0.057,-0.3447 -0.1149,-1.55117 -0.1149,-1.89588 -0.1724,-2.41293 1.5511,-3.44705 4.2513,-3.44705 l 0.1724,-1.60862 h -13.0988 l -0.1149,1.60862 c 2.8151,0 3.7343,1.32137 4.1939,4.88332 l 2.9874,28.95524 h 1.7236 l 19.6482,-28.09347 c 3.2747,-4.88333 4.3088,-5.74509 7.2388,-5.74509 l 0.1149,-1.60862 h -11.6051 l -0.057,1.60862 c 2.413,0 3.1598,0.3447 3.1598,1.37882 0,0.86176 -0.6894,2.12568 -1.6086,3.56196 z m 0,0"
           style="fill:#000000;fill-opacity:1;fill-rule:nonzero;stroke:none;stroke-width:1.05565"
           aria-label="𝑉" /><path
           id="path40-8"
           d="m 2389.3031,964.70454 c -0.3447,-2.18313 -1.0916,-5.74509 -4.8834,-5.74509 -5.4003,0 -9.1921,4.88333 -9.1921,12.06468 0,4.48117 1.2639,7.23881 4.4812,7.23881 2.8151,0 5.4578,-3.10234 7.7558,-6.7792 h 0.3447 c -0.1723,1.26392 -0.3447,2.35549 -0.3447,3.33215 0,1.89588 0.6894,3.2747 2.5279,3.2747 3.1598,0 4.6535,-2.81509 5.228,-3.79176 l -0.632,-0.63196 c -0.7468,0.80432 -1.4937,1.49373 -2.6427,1.49373 -2.1831,0 -2.0682,-4.13647 -2.0682,-7.00901 0,-0.17235 1.8958,-2.75764 4.8833,-6.8941 0.2298,-0.40216 0.8618,-1.09157 1.0916,-1.43628 v -0.5745 l -3.2747,0.0575 c -0.7469,1.03411 -2.1257,3.21725 -3.0449,5.40038 z m -8.7326,10.11135 c -1.8384,0 -3.5619,-1.32137 -3.5619,-4.71097 0,-5.22803 2.9874,-7.87077 7.2388,-7.87077 2.4704,0 3.7917,1.09157 3.7917,3.5045 0,0.63196 -0.057,1.09157 -0.1149,1.37883 -0.2872,2.70019 -3.447,7.69841 -7.3537,7.69841 z m 0,0"
           style="fill:#6495ed;fill-opacity:1;fill-rule:nonzero;stroke:none;stroke-width:1.05565"
           aria-label="𝛼" /></g></g><g
       id="g476"
       transform="matrix(2.1487257,0,0,2.1487257,-6783.5391,886.79455)"
       style="stroke-width:0.465392"><path
         id="path13"
         d="m 3930.9919,-52.292201 0.5882,0.78036 0.585,0.856117 0.5858,-1.23565 0.5851,-3.029966 0.588,-0.758264 0.5852,1.982077 0.5849,-2.330055 0.5851,0.431616 0.5889,-4.925282 0.5851,0.721208 0.5849,0.422112 0.5852,-3.56965 0.5881,-0.727498 0.585,0.04968 0.5858,-0.961862 0.585,1.960814 0.5882,2.173049 0.5851,-1.532356 0.5849,0.669125 0.5851,0.878213 0.5889,0.480531 0.5851,0.709349 0.5849,-1.084935 0.5852,-1.828239 0.5881,-2.083109 0.585,-2.533641 0.5857,-0.952393 0.585,-1.199349 0.5883,1.624652 0.5851,0.03401 0.5849,-2.255898 0.5881,3.861621 0.5851,-0.249346 0.5858,-1.550473 0.5849,0.761421 0.5881,-0.379521 0.5851,-1.772221 0.5852,0.863231 0.5857,1.54417 0.588,-3.211435 0.5852,-0.70936 0.585,0.04335 0.5851,0.677794 0.588,-0.129352 0.5851,0.206699 0.5859,1.272773 0.5849,0.557856 0.5881,-0.493158 0.5851,-0.141956 0.5849,1.032852 0.5852,-1.2175 0.5891,0.709371 0.5849,-1.13783 0.5849,1.146499 0.585,-0.501826 0.5882,-1.899262 0.5851,-0.01501 0.5857,-0.197274 0.5851,-1.859015 0.5882,-0.05524 0.585,-0.190938 0.5849,-1.267238 0.5852,-1.038398 0.5888,-0.397671 0.5852,0.03723 0.5849,-0.610717 0.585,-2.668595 0.5882,3.038647 0.5851,-1.623852 0.5857,-0.808002 0.5851,-0.156972 0.5882,-0.347967 0.585,-0.807991 0.5849,0.863231 0.5852,-5.227478 0.5888,-2.887943 0.5852,0.08592 0.5849,-1.007622 0.5851,-0.391369 0.5881,1.047857 0.585,-0.579952 0.5857,-0.724342 0.5851,-0.695944 0.5882,0.354279 0.5851,-0.579951 0.5848,-2.401111 0.5883,3.193308 0.585,-0.02112 0.5858,0.517621 0.5849,-0.90899 0.5881,1.390321 0.5852,4.487331 0.585,0.961862 0.5858,0.866388 0.5882,-0.02845 0.585,-0.101699 0.5851,3.38189 0.5849,2.212494 0.5882,-1.62703 0.585,0.721197 0.5859,-1.507092 0.5849,-0.441085 0.5881,1.301137 0.5852,-2.651201 0.5849,-0.647028 0.5851,-1.010778 0.5889,-3.011816 0.5851,0.678583 0.5849,-1.267216 0.5852,0.872701 0.5881,-1.559942 0.585,-1.993969 0.5858,-0.200397 0.585,-4.05655 0.5881,-1.193036 0.5852,-1.164638 0.5849,1.76274 0.5851,2.420027 0.5889,2.826391 0.5851,0.153793 0.5849,0.773269 0.5852,2.589659 0.588,-0.594934 0.5851,1.589952 0.5858,0.44423 0.585,3.063877 0.5882,-0.03712 0.585,2.311915 0.5849,1.765907 0.5852,1.081801 0.5887,-0.141968 0.5853,3.251693 0.5848,0.434761 0.585,0.277766 0.5883,0.153783 0.5851,-0.773269 0.5856,1.892159 0.5851,1.510237 0.5883,-1.877165 0.5849,-1.232504 0.5849,-0.437907 0.5882,-0.108145 0.5852,0.866365 0.5858,0.302218 0.5849,0.804046 0.5881,0.163352 0.5851,1.430556 0.5853,-0.801678 0.5855,1.479461 0.5884,-3.377933 0.5849,0.822996 0.585,-0.638337 0.5849,-0.909001 0.5882,0.970532 0.5851,2.475267 0.5859,-2.385316 0.5849,-0.557856 0.5882,0.05835 0.585,-2.093357 0.5849,1.417919 0.5852,0.108146 0.5888,-1.686194 0.5851,-5.393987 0.585,-0.286413 0.585,0.548397 0.5882,-1.38084 0.585,0.76142 0.5858,1.593897 0.5851,-0.397682 0.588,-1.639656 0.5852,1.494465 0.5849,0.554711 0.5851,-1.873998 0.5889,-1.710668 0.5851,0.755897 0.5849,-0.665957 0.5852,-1.10702 0.5881,-0.344821 0.585,0.02768 0.5858,0.650197 0.5849,0.190961 0.5882,-0.153983 0.5852,0.822996 0.5849,-1.802997 0.5851,0.887683 0.5888,2.151753 0.5852,-1.322455 0.5848,-0.801678 0.5853,1.439248 0.5881,-0.153961 0.5848,-0.980012 0.5859,0.616252 0.585,0.96184 0.5882,-0.456056 0.5851,-4.127528 0.5849,1.886613 0.5883,-0.8356 0.5849,-0.517632 0.5859,1.565488 0.5849,-1.054169 0.5881,1.168573 0.5851,0.486855 0.5851,0.89084 0.5858,1.821925 0.588,1.358745 0.5852,-0.634381 0.585,-0.366917 0.585,-0.185336 0.5881,0.613862 0.5851,-0.289559 0.5859,3.620966 0.5849,-2.693837 0.5881,1.673589 0.5851,-0.231196 0.5849,0.231196 0.5852,2.06258 0.5888,2.129657 0.5852,-0.582319 0.5849,-2.659892 0.585,-3.594147 0.5882,1.133862 0.5851,2.715922 0.5857,-0.918449 0.5851,-0.879002 0.5882,-3.565727 0.585,2.545468 0.5849,-1.636478 0.5852,0.228029 0.5888,-2.54549 0.5852,-0.258805 0.5849,-1.80063 0.585,-0.363738 0.5882,1.118868 0.5849,-0.456056 0.5858,-0.246201 0.5851,1.020247 0.5883,0.878214 0.585,0.32666 0.5848,1.90793 0.5853,-1.279041 0.5887,0.604415 0.5853,-1.923713 0.5848,-3.220906 0.5851,0.7985 0.5882,-0.903444 0.5849,0.564169 0.5858,0.918448 0.5851,2.185664 0.588,-0.481309 0.5852,2.031815 0.5849,-1.202528 0.5882,-2.27168 0.585,0.314822 0.5859,1.96635 0.585,-1.636511 0.588,0.344821 0.5852,0.351134 0.585,3.119906 0.5858,4.453432 0.5881,1.430545 0.5851,-0.114403 0.5851,2.577066 0.5849,-4.309008 0.5882,0.194084 0.585,-1.267215 0.5859,-1.769053 0.5849,-0.699901 0.5884,1.220678 0.5849,-1.769075 0.5849,-0.32666 0.5851,3.932654 0.5889,2.352162 0.5851,-0.114403 0.5849,-1.473159 0.5851,-3.115949 0.5882,-0.745672 0.585,2.841384 0.5858,3.381079 0.585,-0.273799 0.5881,-2.876095 0.5852,1.825071 0.5849,0.26514 0.5851,-3.18147 0.5889,0.853761 0.5851,-0.563402 0.5849,-1.335059 0.5852,0.213046 0.588,4.690918 0.585,0.172755 0.5858,-1.042365 0.585,0.78355 0.5883,-2.02867 0.585,0.287225 0.5849,-0.912935 0.5852,-0.637548 0.5887,-0.323526 0.5852,1.685427 0.5849,-2.086254 0.5852,0.905833 0.588,0.197263 0.5851,1.097572 0.5858,-0.02212 0.585,-1.402158 0.5882,1.30984 0.585,1.13465 0.5849,0.81984 0.5882,-0.148348 0.5851,3.538929 0.5859,3.486034 0.5849,2.702506 0.5881,-0.04579 0.5851,-0.564158 0.5851,0.190928 0.5857,-1.725639 0.5881,-0.860075 0.5852,-2.333233 0.585,-0.481331 0.5849,0.0528 0.5882,-0.533404 0.5851,1.350064 0.5859,1.784836 0.5849,1.075487 0.5881,-0.628878 0.5851,-0.05835 0.5849,-1.802997 0.5852,2.700139 0.5889,-0.644661 0.5851,1.002097 0.5849,-2.040484 0.585,2.82639 0.5882,-2.173059 0.585,-0.141946 0.5858,-0.462381 0.5851,1.498401 0.588,1.41793 0.5852,-4.746948 0.5849,0.548397 0.5852,-0.770112 0.5888,0.933442 0.5851,0.450555 0.585,0.955549 0.5849,-1.664908 0.5883,-0.397683 0.585,1.544182 0.5857,2.13597 0.585,1.13465 0.5881,1.93554 0.5853,-0.258816 0.5848,0.268297 0.5851,-0.132587 0.5889,1.183566 0.5851,0.320369 0.5849,-0.653341 0.5852,1.442382 0.5881,-2.053111 0.585,-3.263529 0.5858,-3.806392 0.585,-1.159114 0.5882,-0.983169 0.5851,-2.025491 0.5849,-2.385316 0.5882,0.240666 0.585,0.298261 0.5859,2.937648 0.5849,-2.915563 0.5881,-3.115971 0.5852,2.496574 0.585,0.736179 0.5858,-2.730916 0.5881,1.042344 0.5851,-2.530485 0.5851,-0.0678 0.5849,2.607042 0.5881,4.032053 0.5851,-0.934254 0.5859,0.07736 0.5849,-2.44449 0.5881,-3.128587 0.5851,2.203836 0.585,-0.733034 0.5851,1.389521 0.589,-0.795364 0.585,0.295883 0.5849,0.767745 0.585,1.091281 0.5882,-0.09247 0.5851,-0.736968 0.5856,2.364009 0.5852,0.931075 0.5881,0.234352 0.5851,0.674627 0.5849,0.311677 0.5852,-1.112555 0.5887,0.144379 0.5853,-1.550494 0.5848,1.815612 0.585,2.839006 0.5883,-1.833752 0.5851,-0.336129 0.5856,2.807451 0.5851,1.162271 0.5882,2.622814 0.585,-0.29904 0.5849,2.213273 0.5852,3.452112 0.5888,1.54417 0.5852,-2.46263 0.5849,1.769053 0.585,-4.663287 0.5882,0.280901 0.5851,0.184581 0.5857,1.235638 0.5851,-1.186734 0.5882,-2.986552 0.585,0.977634 0.5849,2.034182 0.5882,-1.559975 0.585,2.740407 0.5859,-0.613896 0.585,-1.180432 0.588,-0.01512 0.5852,1.796662 0.585,-0.927918 0.5858,2.835849 0.5881,1.257756 0.5851,-2.49973 0.5851,-1.285343 0.5849,0.486844 0.5882,-3.310089 0.585,2.034171 0.5859,1.827438 0.5849,1.430556 0.5881,-0.434761 0.5852,1.233294 0.5849,-1.507881 0.5851,1.590741 0.589,1.461299 0.585,-0.292727 0.5849,2.711987 0.5851,0.104923 0.5882,-0.486833 0.585,2.147796 0.5857,-0.44662 0.585,-3.224051 0.5881,-4.752482 0.5853,-1.140964 0.5849,0.132587 0.5851,-0.29904 0.5888,-1.541036 0.5851,0.50894 0.5849,1.537868 0.5853,1.660974 0.5881,-1.84561 0.585,3.519189 0.5857,-0.422157 0.585,0.09247 0.5881,-0.923973 0.5851,0.32666 0.585,-1.193036 0.5851,1.081778 0.5888,1.084957 0.5852,0.32666 0.5849,1.193036 0.5852,2.502887 0.588,2.656737 0.5851,-1.411595 0.5858,0.163352 0.585,1.840054 0.5882,1.470013 0.585,-2.184875 0.5849,0.514442 0.5882,-2.767994 0.5851,0.604404 0.5859,0.58233 0.5849,-1.004465 0.5881,0.619409 0.5851,-1.100718 0.5851,0.740136 0.5857,1.642802 0.5883,-0.104922 0.585,0.853739 0.585,2.678843 0.5849,-0.829309 0.5882,0.696733 0.5851,0.785918 0.5859,0.755118 0.5849,2.003406 0.5881,0.936621 0.5851,-0.218592 0.5849,-0.838756 0.5852,0.179123 0.5888,-1.112555 0.5852,-0.234341 0.5849,-0.08925 0.585,3.011027 0.5882,-0.616252 0.585,-0.156983 0.5857,-0.583086 0.5851,-0.126118 0.588,2.958955"
         style="fill:none;stroke:#000000;stroke-width:1.39617635;stroke-linecap:round;stroke-linejoin:round;stroke-miterlimit:2;stroke-dasharray:none;stroke-opacity:1" /><path
         id="path40-83"
         d="m 4278.1645,19.772913 h 0.5882 l 0.585,0.551536 0.5858,0.07419 0.5851,-0.378746 0.588,-0.06155 0.5852,0.338514 0.5849,-0.11993 0.5851,-0.228047 0.5889,0.425302 0.5851,-0.533395 0.5848,0.311673 0.5853,0.70226 0.5881,-0.468696 0.585,-1.248281 0.5857,1.294834 0.585,0.579166 0.5882,-3.321911 0.5852,0.766957 0.5848,0.607556 0.5851,-0.348764 0.5889,1.655439 0.5851,5.159627 0.5849,1.288509 0.5852,0.187815 0.5881,-0.980001 0.585,-1.177277 0.5858,-2.629117 0.585,-2.037349 0.5882,-1.193043 0.5851,-2.465792 0.5849,-1.550481 0.5881,1.34374 0.5851,0.665975 0.5859,-0.345625 0.5849,0.6786 0.5881,-0.308508 0.5851,-0.01503 0.5851,0.160186 0.5858,0.0062 0.588,0.530234 0.5852,1.078651 0.585,1.429746 0.5851,0.413486 0.588,-1.920556 0.5851,1.516559 0.5859,1.180416 0.5849,1.754068 0.5881,-1.467647 0.5851,-0.927144 0.5849,0.276957 0.5852,-1.408442 0.5891,0.863207 0.5849,-5.606997 0.5849,0.250115 0.585,2.061814 0.5882,-0.320374 0.5851,-0.09312 0.5856,1.211994 0.5852,-0.261954 0.5882,0.588628 0.585,2.397929 0.5849,-1.044697 0.5852,-0.829301 0.5887,0.200418 0.5853,-0.138892 0.5848,-0.680955 0.585,1.010792 0.5883,0.372422 0.5851,-0.658842 0.5856,0.385047 0.5851,0.699883 0.5883,-1.535484 0.5849,0.400837 0.5849,0.415838 0.5852,4.032041 0.5888,0.770119 0.5852,-0.742489 0.5849,-1.414768 0.5851,-0.123097 0.5881,0.234347 0.585,-1.904791 0.5858,-0.453692 0.5851,0.05919 0.5881,1.660955 0.5851,-0.567322 0.5849,-0.403215 0.5882,-0.123865 0.585,-1.155976 0.5859,0.250137 0.5849,-0.958697 0.5881,-0.255651 0.5852,0.736189 0.585,-0.90584 0.5858,2.252747 0.5882,1.640437 0.585,-0.311673 0.5851,5.745092 0.5849,-0.190954 0.5882,-0.927906 0.585,-0.04026 0.5859,-3.029165 0.5849,-1.526046 0.5881,-0.585465 0.5852,-0.755139 0.5849,-0.418978 0.5851,-1.664903 0.5889,-2.573881 0.5851,-2.952658 0.5849,-1.707513 0.5852,-0.514449 0.5881,0.261957 0.585,-0.486828 0.5858,3.411851 0.5849,1.673592 0.5882,-0.551561 0.5852,1.534723 0.5849,0.163321 0.5851,-0.976838 0.5888,2.545491 0.5852,-1.639675 0.5848,2.349019 0.5853,2.63544 0.5879,2.15412 0.5852,2.431859 0.5857,-0.428464 0.585,0.816674 0.5882,0.09628 0.585,-0.515253 0.5849,-0.813513 0.5852,6.882903 0.5888,-1.763531 0.5852,-3.624904 0.5849,-1.226189 0.585,-2.641765 0.5882,-3.023651 0.5851,-0.579165 0.5857,-0.647809 0.5851,-1.50393 0.5882,-1.975789 0.585,0.49316 0.5849,-0.569698 0.5882,-5.2124802 0.5851,1.8590052 0.5859,-6.084385 0.5849,1.9016094 0.5881,3.7574966 0.5851,3.066246 0.5852,2.761673 0.5856,1.458182 0.5884,1.143327 0.5849,0.628883 0.585,2.255909 0.5849,3.246155 0.5882,1.327981 0.5851,-2.268532 0.5859,-0.745656 0.5849,-1.393461 0.5882,-0.758278 0.585,0.0094 0.5849,0.468695 0.5852,-0.09546 0.5888,1.895305 0.5851,3.374767 0.585,1.140974 0.585,-2.401092 0.5882,0.582326 0.585,-2.15412 0.5857,-2.916343 0.5851,-2.570718 0.588,-1.15833 0.5853,-1.282231 0.5848,-0.182248 0.5852,-2.496579 0.5888,-0.995776 0.5851,-0.594157 0.5849,0.27065 0.5852,0.946861 0.5882,1.728812 0.5849,1.177258 0.5858,0.44425 0.585,1.405304 0.5881,2.493397 0.5852,1.769067 0.5849,-1.802997 0.5851,-0.0128 0.5889,-2.422396 0.5851,1.744604 0.5849,-0.0094 0.5852,-0.38507 0.5881,0.373229 0.5849,5.39949 0.5859,-0.991841 0.585,-3.05758 0.5882,1.765906 0.5851,-0.187812 0.5849,-1.026534 0.5882,-0.326674 0.585,-0.187795 0.5859,-0.832463 0.5849,0.397698 0.5881,-1.343766 0.5851,2.629114 0.5851,-0.271417 0.5858,0.129389 0.588,-0.111253 0.5852,1.661741 0.585,-1.020232 0.585,-2.502884 0.5881,-1.069972 0.5851,-0.665167 0.5859,0.03712 0.5849,-0.188601 0.5881,-1.072304 0.5851,-0.434766 0.5849,0.166495 0.5852,-5.520232 0.5887,0.347992 0.5853,-0.538934 0.5849,0.385056 0.5849,1.384007 0.5883,1.784837 0.5851,1.282202 0.5856,1.451858 0.5851,1.898466 0.5883,0.523932 0.585,1.133862 0.5848,-0.6407 0.5853,0.252489 0.5887,0.01893 0.5852,2.037326 0.5849,0.255651 0.585,-0.730674 0.5882,-0.582302 0.5849,1.140186 0.5859,0.258792 0.5851,-0.336138 0.5882,-0.613095 0.585,-0.02762 0.5849,-0.169649 0.5852,-1.392677 0.5888,-0.385855 0.5852,0.302231 0.5849,-0.921629 0.5851,0.224886 0.5881,0.557859 0.585,0.952396 0.5858,2.845321 0.5851,-15.4086394 0.588,2.5833614 0.5852,1.22936 0.5849,1.137803 0.5882,2.394771 0.585,2.373488 0.5859,0.474211 0.585,0.921605 0.588,0.08679 0.5852,0.243028 0.585,0.693579 0.5858,1.054161 0.5881,0.481324 0.5851,1.688584 0.5851,-2.160443 0.5849,-0.937393 0.5882,1.264067 0.585,3.171212 0.5859,0.222507 0.5849,-2.352159 0.5884,-0.246188 0.5849,-3.011811 0.5849,-1.858233 0.5851,-1.343744 0.5888,0.01186 0.5852,0.400858 0.5848,2.681998 0.5851,-0.641508 0.5883,-1.426609 0.585,-0.924768 0.5857,-0.234345 0.585,1.155951 0.5881,-0.34244 0.5853,-1.303535 0.5848,0.31721 0.5851,-1.007606 0.5889,-0.336138 0.5851,2.610973 0.5849,1.963164 0.5852,-0.366929 0.588,-0.119931 0.585,-0.699881 0.5859,1.676746 0.585,-0.841928 0.5882,0.774065 0.585,-0.508949 0.585,-0.955533 0.5851,2.342694 0.5888,4.013137 0.5852,-1.096793 0.5849,0.687256 0.5852,-10.168544 0.588,1.725691 0.5851,1.516557 0.5858,0.92793 0.585,0.961857 0.5882,0.520768 0.585,0.311672 0.5849,1.432933 0.5882,-0.813537 0.5851,0.326675 0.5859,0.258815 0.5849,1.167792 0.5881,-0.363745 0.5851,-1.864534 0.5851,-1.208048 0.5857,-0.850605 0.5881,-0.628861 0.5852,-0.274602 0.585,0.921627 0.5849,1.091256 0.5882,1.461321 0.5851,-0.829276 0.5859,-0.314834 0.5849,1.248279 0.5881,1.83453 0.5851,0.05524 0.5848,-1.010792 0.5853,-1.572577 0.5889,0.924766 0.5851,30.027429 0.5848,-5.060998 0.585,-6.777973 0.5883,-6.685647 0.585,-3.738512 0.5857,-4.262465 0.5851,-4.454227 0.588,-3.085187 0.5852,-3.905013 0.5849,-1.473178 0.5852,-2.7806112 0.5888,-2.6409676 0.5851,-1.2206662 0.585,0.03717 0.585,0.9523812 0.5882,-0.2990392 0.585,1.3003544 0.5858,-7.63488436 0.585,4.50076006 0.5881,3.9728875 0.5852,2.7246004 0.5849,5.196713 0.5851,3.526277 0.5889,-21.452775 0.5851,4.9039575 0.5849,5.6590871 0.5852,5.3971324 0.5881,3.624114 0.585,3.341646 0.5858,2.644118 0.585,0.551537 0.5882,2.971579 0.5851,1.275907 0.5849,1.387138 0.5882,-0.163321 0.585,2.678832 0.5859,-1.069949 0.5849,-12.760576 0.5881,1.812463 0.5852,0.887674 0.585,1.233299 0.5858,-1.985252 0.5881,2.206974 0.5851,1.103096 0.5851,0.01578 0.5849,-0.908979 0.5881,0.415839 0.5851,0.897138 0.5859,0.582328 0.5848,-1.100718 0.5881,-0.637561 0.5852,-1.122046 0.585,-2.056252 0.5851,-1.251442 0.589,1.248279 0.5849,-0.338514 0.5849,-0.675416 0.585,-2.000256 0.5882,-0.998168 0.5852,-0.123864 0.5856,3.390578 0.5851,0.635183 0.5881,-0.767764 0.5851,0.292745 0.5849,-0.400836 0.5852,-0.153857 0.5888,0.502627 0.5852,-1.241977 0.5849,-2.324554 0.585,1.479487 0.5882,1.941859 0.5851,-0.946068 0.5857,-1.978955 0.5851,0.635185 0.5882,0.441092 0.585,1.541023 0.5849,1.18672 0.5852,-7.443917 0.5888,-1.408472 0.5852,1.9908 0.5849,4.352404 0.585,1.5347 0.5882,3.482906 0.5851,1.122021 0.5857,0.431605 0.5851,1.769071 0.5882,0.986302 0.585,-0.400837 0.5849,-1.09047 0.5882,-1.38716 0.585,-0.478159 0.5859,-1.189883 0.585,0.05916 0.588,-0.142027 0.5852,-1.966303 0.585,-1.51658 0.5857,-0.561001 0.5882,0.157013 0.5851,-0.02123 0.5851,0.505787 0.5849,0.616258 0.5882,-0.706207 0.585,0.918466 0.5858,-1.220674 0.5849,-0.270632 0.5881,1.812441 0.5853,-4.121229 0.5848,0.268277 0.5851,0.628884 0.589,0.11993 0.585,-0.06785 0.5849,-3.196443 0.5851,2.389255 0.5882,1.698025 0.585,1.77223 0.5858,1.559951 0.585,-0.27458 0.5881,0.958697 0.5852,0.535749 0.5849,-2.083097 0.5851,-3.464717 0.5889,1.13781 0.5851,0.714884 0.5849,-1.026556 0.5852,-2.259071 0.5881,3.957096 0.585,-0.878209 0.5858,-0.310887 0.585,1.586794 0.5881,-2.668587 0.5851,0.890052 0.585,1.328764 0.5851,0.502628 0.5888,0.477373 0.5852,-0.375584 0.5849,1.072327 0.5852,0.764582 0.588,-0.635185 0.5851,1.818765 0.5858,-0.326653 0.585,1.589934 0.5882,-0.07338 0.585,-1.276692 0.5849,-2.000256 0.5882,-1.290887 0.5851,-1.593882 0.5859,-2.342694 0.5849,2.490257 0.5881,-0.03949 0.5851,0.205958 0.5851,0.08048 0.5856,2.16042 0.5884,-1.038399 0.585,-1.723299 0.585,0.946094 0.5848,0.314834 0.5883,0.856907 0.5851,0.561022 0.5859,0.462372 0.5848,-1.772211 0.5881,2.064955 0.5851,-0.502626 0.5849,-1.356393 0.5852,-1.29719 0.5888,0.79221 0.5852,-1.27353 0.5849,-0.172033 0.585,0.486861 0.5882,0.924765 0.585,1.204886 0.5858,-0.699905 0.5851,1.852718 0.588,0.557862"
         style="fill:none;stroke:#ef9901;stroke-width:1.39618;stroke-linecap:round;stroke-linejoin:round;stroke-miterlimit:2;stroke-dasharray:none;stroke-opacity:1" /><text
         xml:space="preserve"
         style="font-style:italic;font-size:11.1694px;font-family:'DejaVu Serif';-inkscape-font-specification:'DejaVu Serif Italic';text-align:start;writing-mode:lr-tb;direction:ltr;text-anchor:start;fill:#000000;fill-opacity:1;stroke:#000000;stroke-width:0.930782;stroke-linecap:square;stroke-opacity:0.980392"
         x="3987.7678"
         y="-104.78924"
         id="text4542-3-6-9-53-9"><tspan
           sodipodi:role="line"
           x="3987.7678"
           y="-104.78924"
           id="tspan4543-8-8-8-86-6"
           style="font-style:normal;font-variant:normal;font-weight:bold;font-stretch:normal;font-size:11.1694px;font-family:'Source Sans 3';-inkscape-font-specification:'Source Sans 3 Bold';font-variant-ligatures:normal;font-variant-caps:normal;font-variant-numeric:normal;font-variant-east-asian:normal;fill:#000000;fill-opacity:1;stroke:none;stroke-width:0.930782;stroke-opacity:0.980392">Normal diffusion (<tspan
   style="font-style:normal;font-variant:normal;font-weight:bold;font-stretch:normal;font-size:11.1694px;font-family:'STIX Two Text';-inkscape-font-specification:'STIX Two Text Bold';fill:#000000;fill-opacity:1"
   id="tspan12">α = 2, β = 1, γ = 0</tspan>)</tspan></text><path
         id="path22-4"
         d="m 3930.9919,30.434235 0.5882,-1.186734 0.585,0.604437 0.5858,-0.305375 0.5851,-0.659644 0.588,-0.12315 0.5852,0.573627 0.5849,-0.530236 0.5851,0.05202 0.5889,0.342442 0.5851,-0.51762 0.5849,0.554699 0.5852,1.306694 0.5881,-0.761443 0.585,-0.992649 0.5858,1.559975 0.585,0.687275 0.5882,-3.683308 0.5851,0.813515 0.5849,0.496313 0.5851,-0.865587 0.5889,2.459451 0.5851,5.686725 0.5849,3.421325 0.5852,1.057337 0.5881,0.351134 0.585,0.567337 0.5857,-1.51973 0.585,-0.644661 0.5883,-0.656476 0.5851,-1.929237 0.5849,-1.34693 0.5881,1.762762 0.5851,1.115723 0.5858,-0.280112 0.5849,1.017091 0.5881,-0.542095 0.5851,0.03946 0.5852,0.08681 0.5857,-0.277756 0.588,0.397683 0.5852,0.370073 0.585,2.259065 0.5851,-0.308531 0.588,-1.950534 0.5851,2.046798 0.5859,0.831654 0.5849,2.321407 0.5881,-1.113355 0.5851,-0.847437 0.5849,0.348755 0.5852,-1.005253 0.5891,1.196203 0.5849,-5.939205 0.5849,-0.243822 0.585,0.949236 0.5882,-0.755119 0.5851,-0.557856 0.5857,0.49946 0.5851,-0.853773 0.5882,0.144402 0.585,1.969473 0.5849,-2.018411 0.5852,-1.054158 0.5888,-0.675438 0.5852,-1.374538 0.5849,-1.075454 0.585,0.656476 0.5882,-0.755119 0.5851,-1.017102 0.5857,-0.286425 0.5851,0.234353 0.5882,-2.740385 0.585,0.08592 0.5849,-0.04579 0.5852,4.062051 0.5888,0.385056 0.5852,-0.684107 0.5849,-1.405304 0.5851,0.169732 0.5881,0.50186 0.585,-2.752233 0.5857,-0.203576 0.5851,0.259582 0.5882,2.107573 0.5851,-0.378744 0.5848,-0.015 0.5883,-0.428448 0.585,-0.973699 0.5858,0.243822 0.5849,-0.916092 0.5881,-0.624922 0.5852,0.825319 0.585,-1.290879 0.5858,2.345071 0.5882,2.132813 h 0.585 l 0.5851,7.542561 0.5849,0.573639 0.5882,0.394515 0.585,1.457398 0.5859,-2.098892 0.5849,0.55471 0.5881,0.561024 0.5852,0.292726 0.5849,1.078633 0.5851,-1.219878 0.5889,-3.979191 0.5851,-1.208819 0.5849,-3.306921 0.5852,-0.221727 0.5881,-1.312996 0.585,-2.693826 0.5858,2.921888 0.585,-0.04012 0.5881,-1.944998 0.5852,-0.271443 0.5849,-0.905833 0.5851,-3.366085 0.5889,0.971299 0.5851,-3.773248 0.5849,0.879025 0.5852,1.528387 0.588,1.214354 0.5851,2.876084 0.5858,-1.778522 0.585,0.724353 0.5882,0.714894 0.585,-0.446609 0.5849,-0.135754 0.5852,8.30636 0.5887,0.277756 0.5853,-1.917412 0.5848,0.591789 0.585,-1.657807 0.5883,-1.689361 0.5851,2.592038 0.5856,-1.920557 0.5851,-0.517621 0.5883,-1.812433 0.5849,0.78036 0.5849,-0.644661 0.5882,-6.448135 0.5852,1.46449 0.5858,-8.063327 0.5849,-0.837978 0.5881,1.602567 0.5851,1.204884 0.5853,0.856907 0.5855,0.0678 0.5884,-0.502638 0.5849,-0.813493 0.585,1.183578 0.5849,2.521025 0.5882,1.440004 0.5851,-3.319536 0.5859,-0.468694 0.5849,-2.040495 0.5882,-0.770913 0.585,-0.415822 0.5849,0.418979 0.5852,0.22805 0.5888,2.247217 0.5851,5.775875 0.585,1.73512 0.585,-1.617561 0.5882,2.970781 0.585,-1.180421 0.5858,-0.949236 0.5851,-1.458165 0.588,-0.766967 0.5852,-0.517598 0.5849,-0.04335 0.5851,-2.083887 0.5889,-1.257746 0.5851,-1.256956 0.5849,-0.61942 0.5852,0.335351 0.5881,0.903455 0.585,0.418989 0.5858,-0.354279 0.5849,0.705414 0.5882,1.698819 0.5852,2.04682 0.5849,-2.753012 0.5851,-1.01708 0.5888,-2.551802 0.5852,1.982087 0.5848,-0.604404 0.5853,-0.804834 0.5881,-0.212257 0.5848,6.241413 0.5859,-0.632035 0.585,-3.766145 0.5882,3.744839 0.5851,-0.145147 0.5849,-0.200419 0.5883,0.767756 0.5849,-0.04335 0.5859,-0.153794 0.5849,1.084957 0.5881,-0.63518 0.5851,3.067034 0.5851,1.469991 0.5858,1.202539 0.588,3.584665 0.5852,0.425303 0.585,0.323503 0.585,-1.500779 0.5881,-0.02845 0.5851,0.293538 0.5859,1.377695 0.5849,-0.240677 0.5881,-0.148336 0.5851,0.567336 0.5849,-0.147591 0.5852,-6.919996 0.5888,0.243822 0.5852,-1.408472 0.5849,-1.18989 0.585,0.101699 0.5882,0.299051 0.5851,0.107367 0.5857,0.376376 0.5851,1.196204 0.5882,-1.032885 0.585,0.8719 0.5849,-2.120176 0.5852,-0.493157 0.5888,-0.317213 0.5852,1.741456 0.5849,-0.284069 0.585,-0.745649 0.5882,-0.613095 0.5849,1.691728 0.5858,-0.329816 0.5851,0.394537 0.5883,-0.931097 0.585,1.066796 0.5848,0.249357 0.5853,-1.204895 0.5887,0.295894 0.5853,0.05835 0.5848,-0.887672 0.5851,1.513394 0.5882,0.770912 0.5849,5.227479 0.5858,0.286424 0.5851,-16.15663 0.588,0.921605 0.5852,-0.160918 0.5849,-0.107368 0.5882,1.353232 0.585,1.775377 0.5859,-0.213046 0.585,0.0678 0.588,-0.539728 0.5852,-0.591789 0.585,0.508952 0.5858,0.425291 0.5881,0.483699 0.5851,2.401088 0.5851,-2.551792 0.5849,-0.628878 0.5882,1.615181 0.585,4.965517 0.5859,0.187782 0.5849,-1.858214 0.5884,1.020236 0.5849,-3.631225 0.5849,-0.672259 0.5851,-0.946079 0.5889,-0.132587 0.5851,0.175945 0.5849,3.751163 0.5851,-1.07312 0.5882,-1.306661 0.585,-1.312985 0.5858,-0.582342 0.585,1.802998 0.5881,-0.795365 0.5852,-2.934492 0.5849,0.213046 0.5851,-3.568882 0.5889,0.360592 0.5851,1.676735 0.5849,1.451074 0.5852,-1.651482 0.588,-0.817472 0.585,-1.250654 0.5858,0.819839 0.585,-1.28222 0.5883,0.168809 0.585,-1.47946 0.5849,-1.599422 0.5852,2.394764 0.5887,3.81904 0.5852,-0.60995 0.5849,1.321655 0.5852,-10.944947 0.588,0.5152422 0.5851,0.8940072 0.5858,0.619409 0.585,0.2343522 0.5882,0.403196 0.585,0.305364 0.5849,1.1370184 0.5882,-0.8229622 0.5851,0.2809 0.5859,0.34481 0.5849,1.5938862 0.5881,-0.213057 0.5851,-1.5781032 0.5851,-1.0786332 0.5857,-1.3500532 0.5881,-0.6628332 0.5852,-0.6533086 0.585,1.9418418 0.5849,0.2469792 0.5882,1.9016294 0.5851,-0.7551412 0.5859,-0.3826892 0.5849,0.9807912 0.5881,3.3621722 0.5851,0.567314 0.5849,-0.733812 0.5852,-1.028939 0.5889,1.769075 0.5851,33.122086 0.5849,2.456317 0.585,-1.186734 0.5882,-0.7646 0.585,0.976856 0.5858,-0.09536 0.5851,0.185336 0.588,0.826142 0.5852,-0.934243 0.5849,1.346897 0.5852,-0.856896 0.5888,-1.337438 0.5851,-0.714894 0.585,0.449754 0.5849,0.826142 0.5883,-1.144121 0.585,0.342443 0.5857,-9.413403 0.585,1.55364 0.5881,0.792209 0.5853,0.332995 0.5848,3.864754 0.5851,0.968176 0.5889,-25.50848 0.5851,-1.359556 0.5849,2.805072 0.5852,-0.598079 0.5881,-0.268297 0.585,0.323503 0.5858,-0.400038 0.585,-2.253541 0.5882,1.10942 0.5851,-0.07347 0.5849,0.221715 0.5882,-0.601258 0.585,3.471051 0.5859,-1.162292 0.5849,-12.6926824 0.5881,0.07414 0.5852,0.0678 0.585,1.0012862 0.5858,-2.5178596 0.5881,2.3545516 0.5851,1.4337022 0.5851,0.50814 0.5849,-0.718018 0.5881,1.309817 0.5851,1.448707 0.5859,2.19121 0.5849,-0.280123 0.5881,0.538928 0.5851,-0.273821 0.585,-0.934231 0.5851,-0.668336 0.589,2.076807 0.585,0.487633 0.5849,0.02434 0.585,-2.087043 0.5882,-0.837967 0.5851,-0.07414 0.5856,4.176465 0.5852,1.476315 0.5881,-0.860063 0.5851,0.687264 0.5849,0.111291 0.5852,-0.277744 0.5887,1.288522 0.5853,-1.880322 0.5848,-2.663061 0.585,1.498411 0.5883,1.898473 0.5851,-1.337449 0.5856,-2.512357 0.5851,0.182325 0.5882,0.129352 0.585,1.260113 0.5849,0.699912 0.5852,-8.8247804 0.5888,-4.1543703 0.5852,0.6036147 0.5849,2.9132074 0.585,1.0233824 0.5882,2.8169202 0.5851,0.918471 0.5857,-0.138955 0.5851,3.018117 0.5882,0.412677 0.585,0.357436 0.5849,-0.422135 0.5882,0.01345 0.585,0.09247 0.5859,-0.394537 0.585,1.183588 0.588,0.952382 0.5852,-1.149656 0.585,-0.736957 0.5858,-0.397682 0.5881,0.785884 0.5851,0.814315 0.5851,0.745649 0.5849,1.398979 0.5882,-0.132575 0.585,1.3256 0.5859,-0.878202 0.5849,-0.255659 0.5881,2.539154 0.5852,-4.78008 0.5849,0.538938 0.5851,0.228018 0.589,-0.03401 0.585,-0.511308 0.5849,-3.822196 0.5851,1.522896 0.5882,0.832455 0.585,1.68856 0.5857,1.30984 0.585,-0.724353 0.5881,0.8356 0.5853,0.662811 0.5849,-2.38845 0.5851,-3.84666 0.5888,0.841134 0.5851,-0.104922 0.5849,-2.009707 0.5853,-3.1562184 0.5881,3.0883634 0.585,-1.340594 0.5857,-0.9555612 0.585,1.0605052 0.5881,-3.5633926 0.5851,-0.4371172 0.585,1.0076212 0.5851,-0.311677 0.5888,-0.6651672 0.5852,-0.8356115 0.5849,0.7614315 0.5852,0.4095092 0.588,-1.0967837 0.5851,1.6641307 0.5858,0.154716 0.585,1.6641314 0.5882,0.09859 0.585,-0.6628 0.5849,-2.6780546 0.5882,-0.7219862 0.5851,-1.9537009 0.5859,-2.5091894 0.5849,2.5091894 0.5881,-0.5428622 0.5851,-0.018784 0.5851,0.3479443 0.5857,1.9979039 0.5883,-1.451863 0.585,-2.4318425 0.585,0.4963028 h 0.5849 l 0.5882,0.9184596 0.5851,0.2737985 0.5859,-0.00556 0.5849,-2.37032273 0.5881,2.62281443 0.5851,-1.2916898 0.5849,-1.1157115 0.5852,-2.2188078 0.5888,0.79457564 0.5852,-1.89847194 0.5849,-0.9184486 0.585,-0.3266597 0.5882,0.5057724 0.585,0.9981629 0.5857,-1.189913 0.5851,1.9237248 0.588,-0.360615"
         style="fill:none;stroke:#6495ed;stroke-width:1.39617635;stroke-linecap:round;stroke-linejoin:round;stroke-miterlimit:2;stroke-dasharray:none;stroke-opacity:1" /><text
         xml:space="preserve"
         style="font-style:italic;font-size:11.1694px;font-family:'DejaVu Serif';-inkscape-font-specification:'DejaVu Serif Italic';text-align:start;writing-mode:lr-tb;direction:ltr;text-anchor:start;fill:#000000;fill-opacity:1;stroke:#000000;stroke-width:0.930782;stroke-linecap:square;stroke-opacity:0.980392"
         x="3957.7109"
         y="-14.959007"
         id="text4542-3-6-9-53-9-4"><tspan
           sodipodi:role="line"
           x="3957.7109"
           y="-14.959007"
           id="tspan4543-8-8-8-86-6-8"
           style="font-style:normal;font-variant:normal;font-weight:bold;font-stretch:normal;font-size:11.1694px;font-family:'Source Sans 3';-inkscape-font-specification:'Source Sans 3 Bold';font-variant-ligatures:normal;font-variant-caps:normal;font-variant-numeric:normal;font-variant-east-asian:normal;fill:#000000;fill-opacity:1;stroke:none;stroke-width:0.930782;stroke-opacity:0.980392">Superdiffusive Lévy motion (<tspan
   style="font-style:normal;font-variant:normal;font-weight:bold;font-stretch:normal;font-size:11.1694px;font-family:'STIX Two Text';-inkscape-font-specification:'STIX Two Text Bold'"
   id="tspan16"><tspan
   style="fill:#6495ed;fill-opacity:1"
   id="tspan13">α = 1.6</tspan>, β = 1, γ = 0</tspan>)</tspan></text><path
         id="path31-1"
         d="m 4278.1645,-67.454478 h 0.5882 l 0.585,0.693577 0.5858,0.09243 0.5851,-0.431607 h 0.588 l 0.5852,0.493155 0.5849,-0.08596 0.5851,-0.194091 0.5889,0.631236 0.5851,-0.579173 0.5848,0.511318 0.5853,0.974481 0.5881,-0.478173 0.585,-1.386375 0.5857,1.799847 0.585,0.813495 0.5882,-4.025735 0.5852,1.178057 0.5848,0.751959 0.5851,-0.502613 0.5889,2.006549 0.5851,6.358976 0.5849,1.605723 0.5852,0.696734 0.5881,-0.388999 0.585,-0.354282 0.5858,-2.03102 0.585,-1.238824 0.5882,-0.317986 0.5851,-2.120192 0.5849,-1.174102 0.5881,2.123349 0.5851,0.946072 0.5859,-0.440298 0.5849,0.770114 0.5881,-0.572845 0.5851,-0.240662 0.5851,-0.09237 0.5858,-0.357436 0.588,0.252493 0.5852,0.887695 0.585,1.32561 0.5851,0.110401 0.588,-2.666203 0.5851,1.744597 0.5859,1.245113 0.5849,2.049965 0.5881,-1.843231 0.5851,-0.936609 0.5849,0.609948 0.5852,-1.534711 0.5891,1.34375 0.5849,-6.855285 0.5849,0.515252 0.585,2.348219 0.5882,-0.868753 0.5851,-0.586274 0.5856,0.974481 0.5852,-0.946064 0.5882,0.160164 0.585,2.397922 0.5849,-1.889785 0.5852,-1.42976 0.5887,-0.114393 0.5853,-0.579158 0.5848,-1.264075 0.585,0.850616 0.5883,-0.01509 0.5851,-1.269597 0.5856,0.0892 0.5851,0.456076 0.5883,-2.326929 0.5849,0.16655 0.5849,0.101721 0.5852,4.62621 0.5888,0.554717 0.5852,-1.004473 0.5849,-1.587567 0.5851,0.147592 0.5881,0.594937 0.585,-2.068096 0.5858,-0.194105 0.5851,0.342437 0.5881,2.265381 0.5851,-0.567329 0.5849,-0.258805 0.5882,0.110347 0.585,-1.211202 0.5859,0.546039 0.5849,-1.06997 0.5881,-0.221712 0.5852,0.915291 0.585,-1.232491 0.5858,2.727748 0.5882,1.861382 0.585,-0.465534 0.5851,7.323185 0.5849,-0.03944 0.5882,-0.425295 0.585,0.998159 0.5859,-2.585727 0.5849,-0.542875 0.5881,0.530258 0.5852,0.182324 0.5849,0.501831 0.5851,-1.180429 0.5889,-2.41923 0.5851,-3.100976 0.5849,-1.87716 0.5852,-0.841129 0.5881,-0.317201 0.585,-1.627813 0.5858,2.980247 0.5849,0.527096 0.5882,-2.228301 0.5852,0.468701 0.5849,-1.288515 0.5851,-2.644116 0.5888,1.802986 0.5852,-3.523121 0.5848,1.630171 0.5853,1.92689 0.5879,1.476313 0.5852,2.117008 0.5857,-1.121238 0.585,0.875057 0.5882,0.224892 0.585,-0.255653 0.5849,-0.397693 0.5852,9.41026 0.5888,-1.350078 0.5852,-3.002347 0.5849,0.283268 0.585,-1.528375 0.5882,-2.049975 0.5851,0.83244 0.5857,0.422161 0.5851,-0.871917 0.5882,-1.668047 0.585,1.171752 0.5849,-0.502641 0.5882,-6.522313 0.5851,2.130441 0.5859,-8.42708 0.5849,1.343744 0.5881,2.928184 0.5851,1.723302 0.5852,1.343744 0.5856,-0.141947 0.5884,-0.292732 0.5849,-0.706217 0.585,1.553653 0.5849,2.974723 0.5882,0.887682 0.5851,-3.159354 0.5859,-0.829301 0.5849,-1.51656 0.5882,-0.637567 0.585,0.317201 0.5849,0.868751 0.5852,0.172748 0.5888,2.734081 0.5851,4.642 0.585,2.031015 0.585,-1.997087 0.5882,2.108339 0.585,-1.251445 0.5857,-2.049934 0.5851,-1.652295 0.588,-0.08919 0.5853,-0.539721 0.5848,0.570496 0.5852,-2.604666 0.5888,-0.9303 0.5851,-0.785887 0.5849,-0.03719 0.5852,0.514444 0.5882,1.275903 0.5849,0.471867 0.5858,-0.43162 0.585,0.826147 0.5881,2.225108 0.5852,1.430569 0.5849,-2.795603 0.5851,-0.258831 0.5889,-3.239848 0.5851,2.040502 0.5849,-0.299064 0.5852,-0.693579 0.5881,0.292745 0.5849,6.59964 0.5859,-1.384004 0.585,-3.504959 0.5882,2.737221 0.5851,0.200423 0.5849,-0.718047 0.5882,0.249346 0.585,0.407139 0.5859,-0.403999 0.5849,1.137823 0.5881,-1.103897 0.5851,3.883737 0.5851,0.145145 0.5858,0.807199 0.588,0.570479 0.5852,2.857165 0.585,-0.471845 0.585,-2.150966 0.5881,-0.32114 0.5851,0.02534 0.5859,0.74565 0.5849,0.317197 0.5881,-0.887678 0.5851,-0.181571 0.5849,0.415814 0.5852,-6.860811 0.5887,0.403191 0.5853,-1.248268 0.5849,-0.39454 0.5849,0.564189 0.5883,0.866379 0.5851,0.153792 0.5856,0.416624 0.5851,1.047858 0.5883,-0.539721 0.585,0.437927 0.5848,-1.621508 0.5853,-0.299051 0.5887,-0.511305 0.5852,2.11151 0.5849,-0.04338 0.585,-1.054192 0.5882,-0.687246 0.5849,1.544167 0.5859,0.468687 0.5851,-0.138942 0.5882,-0.366906 0.585,0.44108 0.5849,0.28644 0.5852,-1.214355 0.5888,0.07667 0.5852,0.860074 0.5849,-0.739349 0.5851,0.690426 0.5881,1.029723 0.585,1.497615 0.5858,3.893192 0.5851,-18.912823 0.588,3.932644 0.5852,1.149654 0.5849,0.653332 0.5882,2.0192 0.585,1.895295 0.5859,-0.422134 0.585,0.323506 0.588,-0.60678 0.5852,-0.265125 0.585,0.385055 0.5858,0.92161 0.5881,0.32352 0.5851,2.003395 0.5851,-2.669352 0.5849,-0.887696 0.5882,1.877159 0.585,4.229325 0.5859,0.634401 0.5849,-2.255895 0.5884,0.613086 0.5849,-2.868994 0.5849,-1.399782 0.5851,-0.961869 0.5888,0.496335 0.5852,0.727505 0.5848,3.421313 0.5851,-0.841102 0.5883,-1.695681 0.585,-1.072341 0.5857,-0.323507 0.585,1.266432 0.5881,-0.73303 0.5853,-1.936322 0.5848,0.04338 0.5851,-1.772225 0.5889,-1.004459 0.5851,2.533658 0.5849,1.583618 0.5852,-1.235657 0.588,-0.740117 0.585,-1.399001 0.5859,1.621507 0.585,-1.571801 0.5882,0.585491 0.585,-1.023404 0.585,-1.507101 0.5851,2.635438 0.5888,4.669623 0.5852,-1.578121 0.5849,1.072328 0.5852,-12.37235 0.588,2.74354 0.5851,1.812443 0.5858,0.868752 0.585,0.88453 0.5882,0.351935 0.585,0.163358 0.5849,1.642808 0.5882,-1.107036 0.5851,0.487631 0.5859,0.437145 0.5849,1.645948 0.5881,-0.203576 0.5851,-1.926069 0.5851,-1.032862 0.5857,-0.662791 0.5881,-0.508165 0.5852,-0.194091 0.585,1.170943 0.5849,1.270366 0.5882,1.725672 0.5851,-1.081799 0.5859,-0.295899 0.5849,1.679916 0.5881,2.407394 0.5851,0.280109 0.5848,-0.847451 0.5853,-1.405292 0.5889,1.747744 0.5851,38.154667 0.5848,-5.7885 0.585,-5.146985 0.5883,-3.961058 0.585,-0.03398 0.5857,-0.899506 0.5851,-1.409262 0.588,-0.104211 0.5852,-1.686201 0.5849,0.795369 0.5852,-1.522879 0.5888,-1.926075 0.5851,-0.798525 0.585,0.07098 0.585,0.588637 0.5882,-1.479487 0.585,0.184577 0.5858,-11.382886 0.585,3.612283 0.5881,2.049965 0.5852,0.261957 0.5849,3.421334 0.5851,1.473178 0.5889,-29.413547 0.5851,4.121224 0.5849,3.534951 0.5852,2.798783 0.5881,0.687259 0.585,0.7212 0.5858,0.314829 0.585,-1.78799 0.5882,1.78799 0.5851,0.07963 0.5849,0.774058 0.5882,-0.662805 0.585,3.40241 0.5859,-0.915318 0.5849,-15.022785 0.5881,3.587837 0.5852,1.686194 0.585,1.941874 0.5858,-2.117829 0.5881,3.214611 0.5851,1.720137 0.5851,0.486848 0.5849,-0.505793 0.5881,1.267226 0.5851,1.895309 0.5859,1.574941 0.5848,-0.39136 0.5881,0.332965 0.5852,-0.240657 0.585,-1.417135 0.5851,-0.475019 0.589,2.478428 0.5849,0.280107 0.5849,-0.163357 0.585,-1.888989 0.5882,-0.733825 0.5852,0.138956 0.5856,4.302716 0.5851,0.68094 0.5881,-0.942911 0.5851,0.477377 0.5849,-0.409523 0.5852,-0.08987 0.5888,0.706217 0.5852,-1.516572 0.5849,-2.853985 0.585,1.818737 0.5882,2.144655 0.5851,-1.510241 0.5857,-2.700153 0.5851,0.542887 0.5882,0.113584 0.585,1.42739 0.5849,0.961869 0.5852,-9.770851 0.5888,-2.071277 0.5852,1.660972 0.5849,4.207214 0.585,0.552346 0.5882,3.208292 0.5851,0.446603 0.5857,-0.02762 0.5851,1.969481 0.5882,1.245116 0.585,-0.150771 0.5849,-0.693592 0.5882,-0.844283 0.585,0.397679 0.5859,-0.48685 0.585,1.090505 0.588,0.78904 0.5852,-1.503935 0.585,-0.939758 0.5857,0.116818 0.5882,0.82612 0.5851,0.431648 0.5851,1.00128 0.5849,1.057344 0.5882,-0.62889 0.585,1.42425 0.5858,-1.316123 0.5849,-0.09243 0.5881,2.428711 0.5853,-5.09491 0.5848,0.50578 0.5851,0.659637 0.589,-0.129348 0.585,-0.428454 0.5849,-4.407651 0.5851,2.527339 0.5882,1.340604 0.585,1.42739 0.5858,1.248282 0.585,-0.887682 0.5881,0.868752 0.5852,0.449769 0.5849,-2.678057 0.5851,-4.256945 0.5889,1.461329 0.5851,0.643861 0.5849,-1.596243 0.5852,-3.143592 0.5881,4.558356 0.585,-1.757216 0.5858,-0.875057 0.585,1.495244 0.5881,-3.875044 0.5851,0.696731 0.585,1.078633 0.5851,0.02843 0.5888,0.08286 0.5852,-0.915304 0.5849,0.995783 0.5852,0.628083 0.588,-1.010779 0.5851,2.203831 0.5858,-0.44977 0.585,2.147809 0.5882,0.166549 0.585,-1.127542 0.5849,-1.886632 0.5882,-0.980005 0.5851,-1.476313 0.5859,-2.561279 0.5849,3.291951 0.5881,-0.197271 0.5851,0.110346 0.5851,-0.09243 0.5856,2.490245 0.5884,-1.5505 0.585,-2.259047 0.585,1.073096 0.5848,0.144398 0.5883,0.819815 0.5851,0.459228 0.5859,0.403999 0.5848,-2.32061 0.5881,2.576262 0.5851,-0.724366 0.5849,-1.66725 0.5852,-1.559959 0.5888,0.983158 0.5852,-1.750128 0.5849,-0.385836 0.585,0.311676 0.5882,0.767752 0.585,1.084939 0.5858,-1.267214 0.5851,2.037337 0.588,0.410305"
         style="fill:none;stroke:#dc143c;stroke-width:1.39617635;stroke-linecap:round;stroke-linejoin:round;stroke-miterlimit:2;stroke-dasharray:none;stroke-opacity:1" /><text
         xml:space="preserve"
         style="font-style:italic;font-size:11.1694px;font-family:'DejaVu Serif';-inkscape-font-specification:'DejaVu Serif Italic';text-align:start;writing-mode:lr-tb;direction:ltr;text-anchor:start;fill:#000000;fill-opacity:1;stroke:#000000;stroke-width:0.930782;stroke-linecap:square;stroke-opacity:0.980392"
         x="4251.7666"
         y="-104.17744"
         id="text4542-3-6-9-53-9-4-2"><tspan
           sodipodi:role="line"
           x="4251.7666"
           y="-104.17744"
           id="tspan4543-8-8-8-86-6-8-4"
           style="font-style:normal;font-variant:normal;font-weight:bold;font-stretch:normal;font-size:11.1694px;font-family:'Source Sans 3';-inkscape-font-specification:'Source Sans 3 Bold';font-variant-ligatures:normal;font-variant-caps:normal;font-variant-numeric:normal;font-variant-east-asian:normal;fill:#000000;fill-opacity:1;stroke:none;stroke-width:0.930782;stroke-opacity:0.980392">Lévy motion + long-range memory subdiffusion (<tspan
   style="font-style:normal;font-variant:normal;font-weight:bold;font-stretch:normal;font-size:11.1694px;font-family:'STIX Two Text';-inkscape-font-specification:'STIX Two Text Bold'"
   id="tspan20"><tspan
   style="fill:#6495ed;fill-opacity:1"
   id="tspan17">α = 1.6</tspan>, <tspan
   style="fill:#dc143c;fill-opacity:1"
   id="tspan18">β = 0.5</tspan>, γ = 0</tspan>)</tspan></text><text
         xml:space="preserve"
         style="font-style:italic;font-size:11.1694px;font-family:'DejaVu Serif';-inkscape-font-specification:'DejaVu Serif Italic';text-align:start;writing-mode:lr-tb;direction:ltr;text-anchor:start;fill:#000000;fill-opacity:1;stroke:#000000;stroke-width:0.930784;stroke-linecap:square;stroke-dasharray:none;stroke-opacity:0.980392"
         x="4250.2588"
         y="-15.425877"
         id="text4542-3-6-9-53-9-4-2-2"><tspan
           x="4250.2588"
           y="-15.425877"
           id="tspan4543-8-8-8-86-6-8-4-8"
           style="font-style:normal;font-variant:normal;font-weight:bold;font-stretch:normal;font-size:11.1694px;font-family:'Source Sans 3';-inkscape-font-specification:'Source Sans 3 Bold';font-variant-ligatures:normal;font-variant-caps:normal;font-variant-numeric:normal;font-variant-east-asian:normal;fill:#000000;fill-opacity:1;stroke:none;stroke-width:0.930784;stroke-dasharray:none;stroke-opacity:0.980392"
           sodipodi:role="line">Lévy motion + long-range memory + oscillations (<tspan
   style="font-style:normal;font-variant:normal;font-weight:bold;font-stretch:normal;font-size:11.1694px;font-family:'STIX Two Text';-inkscape-font-specification:'STIX Two Text Bold';stroke-width:0.930784;stroke-dasharray:none"
   id="tspan24"><tspan
   style="fill:#6495ed;fill-opacity:1;stroke-width:0.930784;stroke-dasharray:none"
   id="tspan21">α</tspan><tspan
   style="fill:#6495ed;fill-opacity:1"
   id="tspan1"> = 1.6</tspan>, <tspan
   style="fill:#dc143c;fill-opacity:1;stroke-width:0.930784;stroke-dasharray:none"
   id="tspan22">β</tspan><tspan
   style="fill:#dc143c;fill-opacity:1"
   id="tspan2"> = 0.5</tspan>, <tspan
   style="fill:#ef9901;fill-opacity:1;stroke-width:0.930784;stroke-dasharray:none"
   id="tspan23">γ</tspan><tspan
   style="fill:#ef9901;fill-opacity:1"
   id="tspan3"> = 3</tspan></tspan>)</tspan></text></g></g></svg>
