<?xml version="1.0" encoding="UTF-8" standalone="no"?>
<!-- Created with Inkscape (http://www.inkscape.org/) -->

<svg
   version="1.1"
   id="svg1"
   width="184.52249"
   height="196.82388"
   viewBox="0 0 184.52249 196.82388"
   sodipodi:docname="logo.svg"
   inkscape:version="1.4.3 (0d15f75042, 2025-12-25)"
   xml:space="preserve"
   inkscape:export-filename="qr.svg"
   inkscape:export-xdpi="400"
   inkscape:export-ydpi="400"
   xmlns:inkscape="http://www.inkscape.org/namespaces/inkscape"
   xmlns:sodipodi="http://sodipodi.sourceforge.net/DTD/sodipodi-0.dtd"
   xmlns="http://www.w3.org/2000/svg"
   xmlns:svg="http://www.w3.org/2000/svg"><defs
     id="defs1" /><sodipodi:namedview
     id="namedview1"
     pagecolor="#ffffff"
     bordercolor="#666666"
     borderopacity="1.0"
     inkscape:showpageshadow="2"
     inkscape:pageopacity="0.0"
     inkscape:pagecheckerboard="0"
     inkscape:deskcolor="#d1d1d1"
     inkscape:zoom="0.15858937"
     inkscape:cx="-2096.6097"
     inkscape:cy="2210.1103"
     inkscape:window-width="1920"
     inkscape:window-height="1028"
     inkscape:window-x="0"
     inkscape:window-y="32"
     inkscape:window-maximized="1"
     inkscape:current-layer="layer-MC4"
     showgrid="false"><inkscape:page
       x="5.0650251e-06"
       y="1.5687764e-06"
       width="184.52249"
       height="196.82388"
       id="page2"
       margin="0"
       bleed="0" /></sodipodi:namedview><g
     id="layer-MC4"
     inkscape:groupmode="layer"
     inkscape:label="Text"
     transform="translate(-2909.2627,-84.861139)"><path
       class="st0"
       d="m 3006.6984,212.75761 h 14.6447 v -2.14788 h -14.6447 z m 0,6.05312 h 14.6447 v -2.14788 h -14.6447 z m 0,-12.10624 h 14.6447 v -2.14788 h -14.6447 z m -10.3489,3.90524 h -14.6446 v 2.14788 h 14.6446 z m 0,6.05312 h -14.6446 v 2.14788 h 14.6446 z m 0,-12.10624 h -14.6446 v 2.14788 h 14.6446 z m 23.041,-38.66184 c -5.8579,-0.39052 -11.911,-0.39052 -17.9641,-0.39052 -5.8579,0 -11.911,0.19526 -17.7688,0.39052 v 29.48454 h -56.2354 c 2.343,14.05885 8.0057,27.33665 16.402,38.27131 1.1715,-1.56209 2.9289,-2.5384 5.0768,-2.5384 h 34.9518 v 30.6561 c 5.6626,1.5621 11.7157,2.34313 17.7688,2.34313 v 0.19527 -0.19527 c 6.2484,0 12.1063,-0.78103 17.7689,-2.34313 v -30.6561 h 34.9518 c 2.1479,0 3.9053,0.97631 5.0769,2.5384 8.201,-10.93466 14.0587,-24.21246 16.4019,-38.27131 h -56.4306 z m -28.1177,9.17731 7.6152,3.51471 2.7336,-7.81046 2.7337,8.00572 7.42,-3.70997 -3.71,7.6152 7.8105,2.73368 -8.0058,2.73366 3.7099,7.41995 -7.6152,-3.51471 -2.7336,7.81047 -2.9289,-8.00573 -7.0294,3.90524 3.5147,-7.61522 -7.8105,-2.73366 8.0057,-2.73368 c -0.1952,-0.19526 -3.7099,-7.6152 -3.7099,-7.6152 z m -26.7509,48.62019 -7.4199,-3.70998 -2.7337,8.00574 -2.7337,-7.81047 -7.6151,3.51471 3.7099,-7.41995 -8.0057,-2.73367 7.8105,-2.73366 -3.71,-7.61521 7.42,3.70997 2.7336,-8.00573 2.7337,7.81047 7.6152,-3.51471 -3.71,7.41995 8.0057,2.92892 -7.8104,2.73367 z m 12.1063,-0.58579 h -3.3194 v -2.34314 h 3.3194 z m 0,-6.44363 h -3.3194 v -2.34315 h 3.3194 z m 0,-6.44365 h -3.3194 v -2.34314 h 3.3194 z m 0,-6.6389 h -3.3194 v -2.34314 h 3.3194 z m 1.7573,19.52618 v -23.43141 h 15.8162 c 3.3194,0 5.8578,2.5384 5.8578,5.85785 v 19.52617 c -1.1715,-1.36682 -2.7337,-2.14787 -4.491,-2.14787 -0.3905,0.19526 -12.4967,0.19526 -17.183,0.19526 z m 33.3898,30.46085 -7.6153,-3.51473 -2.7336,7.81047 -2.9289,-8.00572 -7.2247,3.70998 3.7099,-7.61521 -7.8104,-2.73368 8.0057,-2.92892 -3.9052,-7.41995 7.6152,3.51471 2.7336,-7.81047 2.929,8.00574 7.4198,-3.70998 -3.5146,7.61521 7.8105,2.73366 -8.0058,2.92893 z m 26.5556,-50.57281 7.6152,3.51471 2.7336,-7.81047 2.929,8.00573 7.4199,-3.70997 -3.71,7.61521 7.8105,2.73366 -8.0057,2.73367 3.71,7.41995 -7.6153,-3.51472 -2.7336,7.81047 -2.5384,-7.81047 -7.4199,3.70998 3.7099,-7.61521 -7.8105,-2.73367 8.0057,-2.92892 c -0.3905,0 -4.1004,-7.41995 -4.1004,-7.41995 z m -11.911,-1.75736 h 3.3195 v 2.34314 h -3.3195 z m 0,6.44364 h 3.3195 v 2.34314 h -3.3195 z m 0,6.44363 h 3.3195 v 2.34316 h -3.3195 z m 0,6.63891 h 3.3195 v 2.34314 h -3.3195 z m -1.7573,-21.08827 v 23.43141 h -16.9879 c -1.7574,0 -3.5147,0.78105 -4.491,2.14788 v -19.52618 c 0,-3.31945 2.5385,-5.85785 5.8579,-5.85785 h 0.9763 c -0.1953,-0.19526 14.6447,-0.19526 14.6447,-0.19526 z m 28.8987,-99.58351 c -14.4494,-3.12419 -33.585,-6.053119 -52.1349,-6.053119 -27.7272,0 -56.8211,6.834159 -69.7085,10.348879 -2.5385,0.58579 -4.4911,1.17156 -5.6626,1.56208 v 62.8743 c 8.3962,-1.36683 42.7624,-6.63891 75.3711,-6.63891 32.6087,0 66.9747,5.27208 75.371,6.63891 v -63.06956 c -1.1715,-0.39052 -2.929,-0.78103 -5.6626,-1.56209 -4.1004,-0.9763 -10.3488,-2.5384 -17.5735,-4.10049 z m -78.6906,6.63889 c 1.1717,-0.19526 -1.3668,-2.14787 0.1954,-2.14787 0.9763,0 4.491,0 7.0294,1.36682 0.5858,0.19527 0.781,-0.78103 1.7573,-1.36682 0,0 0.3906,-0.19526 0.5858,0 0.9763,0.58579 1.3668,1.56209 1.9526,1.36682 2.5384,-1.17156 6.0531,-1.17156 7.0294,-1.36682 1.7574,-0.19526 -0.781,1.75735 0.1953,2.14787 5.8579,1.36684 10.1536,6.24838 10.1536,12.3015 0,1.75735 -0.3906,3.31945 -0.9763,4.88153 -0.3905,0.78105 -1.1716,-1.56208 -1.5621,-0.19526 -0.1953,2.34315 -0.781,4.10051 -2.1479,6.6389 -1.1715,2.34315 -3.3194,-2.53839 -3.9052,-1.17156 -1.1716,2.34314 -3.71,3.12418 -5.6626,3.51471 -0.1952,0 -0.3905,0 -0.1952,-0.19527 0,0 0.5858,-0.58578 0.5858,-1.36683 0,0 0,-0.19526 0.1951,-0.39053 1.3669,-0.58577 2.5385,-1.95261 2.7338,-3.5147 0.3905,-1.36683 0.9763,-3.51472 1.7573,-4.88154 1.5621,-2.73367 -0.3905,-6.24838 0.1953,-7.02943 1.1715,-0.78104 1.7574,-1.95262 1.7574,-3.31944 0,-2.1479 -1.7574,-4.10051 -4.1006,-4.10051 -1.1715,0 -2.3432,0.58579 -2.9289,1.36683 l -0.1952,0.19526 c -0.3906,0.39052 -0.7811,0.78105 -0.9764,1.17159 -0.3905,0.39051 -0.1953,1.36683 0.3905,1.56209 2.7337,0.78104 4.4911,6.83416 3.3194,8.78677 -0.5857,0.97631 -1.9526,4.29576 -1.9526,5.07681 0,1.17157 -0.9762,2.14788 -2.1478,2.14788 -0.9763,0 -1.7573,-0.58578 -2.1479,-1.36684 0.7811,-0.39051 2.3431,-1.56209 2.3431,-2.5384 l -0.3905,-3.31945 c 1.3669,-0.19526 1.9527,-0.9763 2.148,-2.14787 0.1951,0 0.1951,-0.19526 0.3904,-0.19526 0.3906,-0.39052 0.7811,-1.56211 -0.1953,-1.36685 -1.3668,0.19526 -2.9288,0.19526 -4.4909,0.58579 -0.1953,0 -0.3905,0.19527 -0.3905,0.39054 0,0.19526 0.781,4.29575 0.9763,5.27205 0,0.19526 0,0.19526 -0.1953,0.19526 -0.5858,0 -1.7573,-0.19526 -1.9526,-0.19526 -0.1953,0 -1.3668,0 -1.9526,0.19526 0,0 -0.1952,0 -0.1952,-0.19526 0.1952,-0.9763 1.1715,-5.07679 1.1715,-5.07679 v -0.39053 c -0.1953,-0.39053 -4.2958,-0.78106 -4.8816,-0.78106 -0.1952,0 -0.3905,0 -0.5857,0.19526 -0.3906,0.5858 0.3905,1.17159 0.781,1.36685 0.1953,1.17157 0.781,1.95261 2.1479,2.14787 0,0.19526 -0.3906,3.31945 -0.3906,3.31945 0,1.17158 1.5621,1.95263 2.5385,2.5384 l 0.1952,0.19526 c -0.3905,0.78106 -1.1716,1.36684 -2.1479,1.36684 -1.1715,0 -2.1478,-0.97631 -2.1478,-2.14787 0,-0.78105 -1.5621,-4.29577 -1.9526,-5.27208 -1.1716,-2.14787 0.5857,-8.20099 3.5146,-8.78677 0.5858,-0.19526 0.9764,-0.97632 0.3906,-1.56209 -1.1716,-1.17159 -2.5384,-2.73368 -4.2958,-2.73368 -2.1479,0 -4.1005,1.75735 -4.1005,4.10051 0,2.5384 1.9526,2.92891 1.7574,3.70996 -0.7811,2.34315 -0.7811,4.88155 0.1952,6.63891 0.781,1.17156 1.3669,3.31945 1.7574,4.68627 0.1953,1.5621 1.1716,2.73367 2.3431,3.51471 0.5858,0.39053 0.3906,0.78105 0.5858,1.36684 0.1953,0.19527 0.3905,0.39052 0.3905,0.58578 0.1953,0.19527 0,0.19527 -0.1952,0.19527 -1.9526,-0.19527 -4.6863,-0.97631 -5.8579,-3.51471 -0.5858,-1.36683 -2.7336,3.31944 -3.9052,1.17156 -1.3668,-2.34313 -1.9526,-4.29575 -2.3432,-6.6389 -0.3905,-1.36682 -1.1715,0.97631 -1.562,0.19526 -0.5857,-1.56208 -0.9763,-3.12418 -0.9763,-4.88153 0.3906,-6.05312 4.6863,-10.93466 10.544,-12.3015 z m 16.7926,4.10051 v -0.39053 c 0.1953,-0.19527 0.5858,-0.39054 0.9763,-0.39054 0.9763,0 1.7573,0.78107 1.7573,1.75737 0,0.58579 -0.1952,0.97631 -0.5857,1.36682 -0.1953,0.19527 -0.3906,0 -0.3906,-0.19525 -0.3905,-0.78104 -0.9763,-1.56209 -1.7573,-2.14787 z m -4.1005,20.11195 c -0.3905,1.17158 -1.9526,0.78105 -2.9289,1.36683 h -0.3905 c -0.7812,-0.78104 -2.3431,-0.39052 -2.929,-1.5621 0,0 0,-0.39052 0.1952,-0.39052 1.1717,-0.19525 2.148,-0.58578 2.929,-1.56209 0,0 0.1953,-0.19526 0.3905,0 0.5858,0.78105 1.5621,1.17157 2.5384,1.36684 0.1953,0.39051 0.3905,0.58577 0.1953,0.78104 z m -11.911,-17.57356 c 0,0 -0.1952,0.19526 -0.3904,0 -0.3907,-0.39052 -0.5859,-0.78104 -0.5859,-1.36682 0,-0.97632 0.7811,-1.75737 1.7574,-1.75737 0.3905,0 0.9763,0.19527 1.1716,0.5858 0.1952,0.19525 0,0.39051 0,0.39051 -0.7811,0.39053 -1.5621,1.17158 -1.9527,2.14788 z m -16.0114,23.04089 c -1.1716,0 -1.7574,0.39052 -2.5384,0.97631 -0.5858,0.39053 -0.7811,-0.78105 0,-2.92893 0.5857,-1.75735 -2.9289,-2.73366 -3.71,-1.95262 -1.1716,0.97632 -4.1005,2.73368 -7.0294,-0.39051 -0.5858,-0.58579 1.3668,-0.39053 1.3668,-0.97632 0.1953,-0.78105 0.9763,-1.17157 1.1716,-1.56209 0.1953,-0.19526 0.1953,-0.58578 -0.1953,-0.78105 -0.9763,-0.39052 -2.1478,-1.56209 -1.7573,-3.51471 0,-0.19527 -1.5621,-0.39053 -0.9763,-0.78105 2.7336,-2.5384 5.6625,-0.97631 6.8342,-0.19526 0.1952,0 0.5857,0.19526 0.5857,-0.19526 0,-0.78105 -0.3905,-1.36684 1.3669,-2.73366 0.3905,-0.19527 -0.9763,-1.36683 0,-1.36683 5.6625,1.36683 3.1241,7.22468 4.2957,8.39625 2.1479,1.95261 7.4199,3.51471 12.3015,4.49102 0.3905,0 1.9527,0.58579 2.3431,0.78105 3.9053,1.95262 6.4436,1.75736 8.5915,0.97631 0.7811,-0.19527 0.5858,0.58579 0.3906,0.78105 -7.8106,7.41995 -13.8636,5.66259 -16.0114,4.29575 -1.5622,-0.97631 -4.4911,-0.97631 -5.8579,0.97631 -0.1953,0.19527 -0.5858,0.39053 -0.781,-0.19526 -0.3906,-1.36683 0,-2.34315 0.3904,-3.51471 0.1953,-0.39053 -0.3904,-0.58579 -0.781,-0.58579 z m 75.1758,7.02943 c -0.9763,0.9763 -2.9289,1.95262 -5.8578,1.75735 -1.1717,0 -1.9526,0.39053 -2.148,0.58578 -0.3905,0.39053 -0.3905,0.58579 -0.3905,0.78106 -0.1952,0.58578 0,1.36683 0.3905,1.75735 0.3905,0.39053 0.1954,0.78106 -0.3905,0.78106 -0.5858,0.19526 -1.1715,0.19526 -2.3431,-0.39053 -0.5858,-0.19526 -0.781,0 -0.781,0.39053 -0.1953,0.58578 0.1952,1.36682 0.9763,1.95261 0.3905,0.39052 0.3905,0.78104 -0.3906,0.9763 -1.1715,0.39053 -2.1478,-0.19526 -3.71,-0.9763 -0.9763,-0.58579 -1.7572,-0.58579 -2.3431,0.19526 -0.3905,0.39052 -0.3905,0.78104 -0.1952,0.97631 0.5857,0.58578 0.9763,1.95261 -0.5858,3.90524 -0.5858,0.58579 -1.1716,-1.17157 -1.5621,-0.97631 -2.1479,0.97631 -3.9054,-0.39053 -4.6864,-1.17158 -0.1953,-0.19526 -0.3905,-0.19526 -0.781,0 -1.1716,0.78105 -3.5147,1.95262 -4.2957,-0.19526 -0.1954,-0.39052 -1.3669,0.39052 -1.3669,-0.19526 0,-3.51471 3.1242,-4.10049 4.2957,-4.29575 0.3906,0 0.3906,-0.19526 0.1953,-0.58579 -0.5858,-0.78105 -1.1716,-1.75736 -0.781,-2.73367 0.1952,-0.78105 -1.7574,-0.97631 -0.9763,-1.36684 4.1004,-1.95261 6.2484,1.75736 7.0294,2.14789 1.1716,0.58578 6.4436,-0.97632 7.0295,-3.90523 0.1952,-0.58579 -1.1716,-0.78106 -2.5384,-1.17157 -0.1952,0 -0.3906,-0.39053 0,-0.78105 3.1242,-2.34315 5.6626,-5.46733 11.5204,-6.05312 0.7811,0 0.9763,0.58579 0.9763,0.78105 0.1953,0.9763 0.3905,1.75735 0.7811,2.53839 0.781,1.75736 1.7573,2.92894 2.9289,3.70999 0.3905,0.58578 0.1952,1.17157 0,1.56209 z m 24.0172,-1.95261 c 0.5858,0.19526 0.5858,0.58577 0.1952,0.9763 -0.3906,0.39053 -0.9762,0.58579 -2.3431,0.58579 -0.5858,0 -0.5858,0.39052 -0.5858,0.58578 0,0.58578 0.781,1.17157 1.7573,1.17157 0.5858,0.19526 0.5858,0.58579 0.1954,0.9763 -0.7812,0.78106 -1.9527,0.78106 -3.9053,0.78106 -1.7574,0 -3.1243,2.14788 -2.1479,2.92893 0.7811,0.58578 2.1479,1.95261 0.9763,5.66259 -0.3906,1.17157 -0.9763,-0.97632 -1.562,-0.58579 -1.5622,0.97631 -2.7338,-0.19527 -3.5148,-0.97631 -0.1953,-0.39052 -0.5858,-0.39052 -0.781,0 -0.5858,0.97631 -2.1479,2.92893 -5.2721,1.17157 -0.5858,-0.39053 -2.1479,0.97631 -2.1479,0.39053 -0.5858,-2.53841 0.7811,-3.90524 1.7574,-4.68629 0.1952,0 0.5857,-0.58578 -0.1953,-0.58578 -0.9763,0 -2.3431,-0.39052 -2.5384,-1.75736 0,-0.19526 -1.3668,-0.19526 -1.3668,-0.58578 0.3905,-1.75737 4.2957,-3.1242 7.0294,-1.36684 2.3431,1.56209 5.2721,-3.70997 3.1242,-6.05311 -1.5621,-1.75736 -10.3489,3.12419 -13.2777,-3.12419 -1.1717,-2.53841 0.3904,-4.68629 -0.9764,-4.88154 -1.1716,-0.19527 -6.8342,-1.36685 -12.8872,3.51471 -10.349,8.39625 -21.6743,3.70997 -24.4079,1.95261 -0.3905,-0.19526 -0.781,0.19527 -0.5858,0.58578 0.3906,1.17158 0.1953,2.14789 -0.1952,2.92894 -1.1716,1.56209 -4.8816,3.31944 -5.4673,3.5147 -4.2958,1.36684 -3.9053,4.6863 -3.5147,6.05313 0.1952,0.39052 0,0.78104 -0.5858,0.58578 -1.3668,-0.19526 -4.1006,-0.97631 -5.0768,-3.70997 -0.1953,-0.39053 -0.3906,-0.39053 -0.7811,0 -1.5621,1.17157 -0.9763,2.92892 -0.5858,3.51471 0.1953,0.39052 0,0.58578 -0.3905,0.58578 -1.5621,0.19526 -2.5384,-1.56209 -3.9053,-1.36683 -0.781,0 -1.7573,0.78105 -2.3431,1.17157 -0.1952,0.19526 -0.3905,0.58578 -0.1952,0.97631 1.5621,4.88155 -0.9763,5.07681 -1.1716,4.88155 -0.1952,-0.19526 0,-0.97631 -0.781,-0.97631 -2.5384,0.19526 -3.3195,-1.5621 -3.5148,-2.92893 0,-0.39052 -0.1951,-0.58579 -0.5858,-0.39052 -0.9762,0.78104 -3.5146,2.14788 -5.0767,0 -0.1953,-0.19527 -0.9763,0 -1.3668,0.19526 -0.3905,0.19526 -0.3905,-0.39053 -0.3905,-0.58579 0.1952,-2.73366 2.1478,-4.10049 3.1241,-4.49102 0.3905,-0.19526 0.3905,-0.39053 0.1953,-0.58578 -0.7811,-0.58579 -2.3432,-1.95262 -1.7574,-3.31946 0,-0.19526 -1.1715,-0.78104 -0.9762,-0.9763 3.1241,-2.14788 6.834,1.36682 7.4198,1.75735 0.5859,0.39053 3.3195,0.58579 10.3489,-3.5147 4.491,-2.53842 6.8342,-4.49103 8.0057,-6.05312 0.1953,-0.19526 0.3906,-0.58579 0.9763,-0.58579 2.7337,0 5.6626,-0.58579 7.8105,-2.34315 0.3905,-0.39051 0.781,-0.19526 0.9763,0 4.1005,2.73368 6.0531,-3.31944 6.8342,-6.24836 0.1952,-0.58579 0.1952,-0.97632 0.781,-1.17159 14.84,0.78106 42.7624,0.5858 42.7624,0.5858 0,0 3.71,0.19526 3.5148,-1.95263 -0.1954,-3.70996 -15.621,-3.5147 -26.9462,-1.95261 -4.1004,0.58579 -10.1536,0.9763 -13.6684,-0.39052 -1.5621,-0.58579 -2.7337,-1.5621 -3.3195,-2.73366 -0.781,-1.56211 -0.5857,-2.34315 -0.3904,-3.31946 0.1951,-0.78104 0.5858,-1.36683 0.9762,-2.14789 2.929,-4.49101 9.7632,-4.88153 11.7158,-4.88153 0.3905,0 0.5859,-0.19526 0.7811,-0.39053 0.1952,-0.9763 0.9763,-3.5147 3.9052,-3.5147 0.7811,0 1.5621,-0.39053 2.1479,-0.58578 0.3905,-0.19527 0.5858,0 0.3905,0.19525 0,0.39053 -0.1953,0.78105 -0.5858,1.17158 -1.9526,1.75735 -1.7573,2.53839 -1.3668,2.73365 0.1953,0.19527 0.3905,0 0.3905,0 6.0532,-5.27206 9.5678,-1.75735 10.5441,-0.58579 0.1954,0.19527 0.1954,0.58579 -0.1952,0.58579 -4.1005,0.97631 -5.6626,4.49103 -14.0589,3.90524 -0.9763,0 -7.8106,-0.39052 -9.9584,2.73367 -1.1716,1.75735 -0.3905,3.51471 3.3195,4.29576 2.7337,0.58578 9.3726,-0.39052 12.4969,-0.58578 2.9288,-0.19527 16.2066,-1.95263 23.0407,0 2.929,0.78104 7.2247,3.12418 6.2484,7.6152 -0.5858,2.73366 -3.3194,3.90523 -3.3194,3.90523 0,0 -7.6153,5.27207 6.053,5.46734 4.2958,0 0,3.5147 -0.1952,4.49101 0,0.78105 0.7811,1.36684 1.3669,1.75737 z m -24.7983,-29.48453 c -0.3905,0 -0.9763,0.19526 -1.5621,0.58578 -1.1715,0.78104 -6.0531,2.92892 -7.6152,0.39052 0,0 3.5147,-0.19526 5.6626,-2.14787 0,0 2.3432,-0.78107 3.9052,0.39051 -0.1951,0.39053 0,0.78106 -0.3905,0.78106 z m -32.4135,-27.141392 c -46.277,0 -92.3588,12.301492 -92.3588,12.301492 v 61.50746 c 0,55.45434 39.6382,113.05658 92.1636,123.01493 54.478,-10.7394 92.3589,-67.56059 92.3589,-123.01493 V 97.16263 c 0,0 -38.4667,-12.301492 -92.1637,-12.301492 z m 78.4952,96.264062 c 0,45.10547 -34.366,86.11046 -78.4952,86.11046 -44.3244,0 -78.6905,-41.00499 -78.6905,-86.11046 v -77.71419 l 1.1716,-0.39053 c 0,0 39.8334,-12.301489 77.3237,-12.301489 37.4903,0 77.3236,12.301489 77.3236,12.301489 l 1.1716,0.39053 v 77.71419 z"
       id="path3-4"
       style="fill:#ffffff;fill-opacity:1;stroke-width:8.58136" /></g></svg>
