<?xml version="1.0" encoding="UTF-8" standalone="no"?>
<svg
   id="Artwork"
   viewBox="0 0 94.458 100.8"
   width="810.9375"
   height="865"
   version="1.1"
   sodipodi:docname="the-university-of-sydney-3.svg"
   inkscape:version="1.4.3 (0d15f75042, 2025-12-25)"
   xmlns:inkscape="http://www.inkscape.org/namespaces/inkscape"
   xmlns:sodipodi="http://sodipodi.sourceforge.net/DTD/sodipodi-0.dtd"
   xmlns="http://www.w3.org/2000/svg"
   xmlns:svg="http://www.w3.org/2000/svg">
  <defs
     id="defs3" />
  <sodipodi:namedview
     id="namedview3"
     pagecolor="#ffffff"
     bordercolor="#666666"
     borderopacity="1.0"
     inkscape:showpageshadow="2"
     inkscape:pageopacity="0.0"
     inkscape:pagecheckerboard="0"
     inkscape:deskcolor="#d1d1d1"
     inkscape:zoom="0.3518"
     inkscape:cx="1547.7544"
     inkscape:cy="709.20978"
     inkscape:window-width="1920"
     inkscape:window-height="1028"
     inkscape:window-x="2688"
     inkscape:window-y="1346"
     inkscape:window-maximized="1"
     inkscape:current-layer="Artwork" />
  <style
     id="style1">.st0{fill:#363636}</style>
  <path
     class="st0"
     d="m 49.83526,65.5 h 7.5 v -1.1 h -7.5 z m 0,3.1 h 7.5 v -1.1 h -7.5 z m 0,-6.2 h 7.5 v -1.1 h -7.5 z m -5.3,2 h -7.5 v 1.1 h 7.5 z m 0,3.1 h -7.5 v 1.1 h 7.5 z m 0,-6.2 h -7.5 v 1.1 h 7.5 z m 11.8,-19.8 c -3,-0.2 -6.1,-0.2 -9.2,-0.2 -3,0 -6.1,0.1 -9.1,0.2 V 56.6 H 9.2352601 c 1.1999999,7.2 4.0999999,14 8.3999999,19.6 0.6,-0.8 1.5,-1.3 2.6,-1.3 h 17.9 v 15.7 c 2.9,0.8 6,1.2 9.1,1.2 v 0.1 -0.1 c 3.2,0 6.2,-0.4 9.1,-1.2 V 74.9 h 17.9 c 1.1,0 2,0.5 2.6,1.3 4.2,-5.6 7.2,-12.4 8.4,-19.6 h -28.9 z m -14.4,4.7 3.9,1.8 1.4,-4 1.4,4.1 3.8,-1.9 -1.9,3.9 4,1.4 -4.1,1.4 1.9,3.8 -3.9,-1.8 -1.4,4 -1.5,-4.1 -3.6,2 1.8,-3.9 -4,-1.4 4.1,-1.4 c -0.1,-0.1 -1.9,-3.9 -1.9,-3.9 z m -13.7,24.9 -3.8,-1.9 -1.4,4.1 -1.4,-4 -3.9,1.8 1.9,-3.8 -4.1,-1.4 4,-1.4 -1.9,-3.9 3.8,1.9 1.4,-4.1 1.4,4 3.9,-1.8 -1.9,3.8 4.1,1.5 -4,1.4 z m 6.2,-0.3 h -1.7 v -1.2 h 1.7 z m 0,-3.3 h -1.7 v -1.2 h 1.7 z m 0,-3.3 h -1.7 V 63 h 1.7 z m 0,-3.4 h -1.7 v -1.2 h 1.7 z m 0.9,10 v -12 h 8.1 c 1.7,0 3,1.3 3,3 v 10 c -0.6,-0.7 -1.4,-1.1 -2.3,-1.1 -0.2,0.1 -6.4,0.1 -8.8,0.1 z m 17.1,15.6 -3.9,-1.8 -1.4,4 -1.5,-4.1 -3.7,1.9 1.9,-3.9 -4,-1.4 4.1,-1.5 -2,-3.8 3.9,1.8 1.4,-4 1.5,4.1 3.8,-1.9 -1.8,3.9 4,1.4 -4.1,1.5 z m 13.6,-25.9 3.9,1.8 1.4,-4 1.5,4.1 3.8,-1.9 -1.9,3.9 4,1.4 -4.1,1.4 1.9,3.8 -3.9,-1.8 -1.4,4 -1.3,-4 -3.8,1.9 1.9,-3.9 -4,-1.4 4.1,-1.5 c -0.2,0 -2.1,-3.8 -2.1,-3.8 z m -6.1,-0.9 h 1.7 v 1.2 h -1.7 z m 0,3.3 h 1.7 v 1.2 h -1.7 z m 0,3.3 h 1.7 v 1.2 h -1.7 z m 0,3.4 h 1.7 v 1.2 h -1.7 z m -0.9,-10.8 v 12 h -8.7 c -0.9,0 -1.8,0.4 -2.3,1.1 v -10 c 0,-1.7 1.3,-3 3,-3 h 0.5 c -0.1,-0.1 7.5,-0.1 7.5,-0.1 z m 14.8,-51 c -7.4,-1.6 -17.2,-3.1 -26.7,-3.1 -14.2,0 -29.1,3.5 -35.7,5.3 -1.3,0.3 -2.2999999,0.6 -2.8999999,0.8 V 43 C 12.83526,42.3 30.43526,39.6 47.13526,39.6 c 16.7,0 34.3,2.7 38.6,3.4 V 10.7 c -0.6,-0.2 -1.5,-0.4 -2.9,-0.8 -2.1,-0.5 -5.3,-1.3 -9,-2.1 z m -40.3,3.4 c 0.6,-0.1 -0.7,-1.1 0.1,-1.1 0.5,0 2.3,0 3.6,0.7 0.3,0.1 0.4,-0.4 0.9,-0.7 0,0 0.2,-0.1 0.3,0 0.5,0.3 0.7,0.8 1,0.7 1.3,-0.6 3.1,-0.6 3.6,-0.7 0.9,-0.1 -0.4,0.9 0.1,1.1 3,0.7 5.2,3.2 5.2,6.3 0,0.9 -0.2,1.7 -0.5,2.5 -0.2,0.4 -0.6,-0.8 -0.8,-0.1 -0.1,1.2 -0.4,2.1 -1.1,3.4 -0.6,1.2 -1.7,-1.3 -2,-0.6 -0.6,1.2 -1.9,1.6 -2.9,1.8 -0.1,0 -0.2,0 -0.1,-0.1 0,0 0.3,-0.3 0.3,-0.7 0,0 0,-0.1 0.1,-0.2 0.7,-0.3 1.3,-1 1.4,-1.8 0.2,-0.7 0.5,-1.8 0.9,-2.5 0.8,-1.4 -0.2,-3.2 0.1,-3.6 0.6,-0.4 0.9,-1 0.9,-1.7 0,-1.1 -0.9,-2.1 -2.1,-2.1 -0.6,0 -1.2,0.3 -1.5,0.7 l -0.1,0.1 c -0.2,0.2 -0.4,0.4 -0.5,0.6 -0.2,0.2 -0.1,0.7 0.2,0.8 1.4,0.4 2.3,3.5 1.7,4.5 -0.3,0.5 -1,2.2 -1,2.6 0,0.6 -0.5,1.1 -1.1,1.1 -0.5,0 -0.9,-0.3 -1.1,-0.7 0.4,-0.2 1.2,-0.8 1.2,-1.3 l -0.2,-1.7 c 0.7,-0.1 1,-0.5 1.1,-1.1 0.1,0 0.1,-0.1 0.2,-0.1 0.2,-0.2 0.4,-0.8 -0.1,-0.7 -0.7,0.1 -1.5,0.1 -2.3,0.3 -0.1,0 -0.2,0.1 -0.2,0.2 0,0.1 0.4,2.2 0.5,2.7 0,0.1 0,0.1 -0.1,0.1 -0.3,0 -0.9,-0.1 -1,-0.1 -0.1,0 -0.7,0 -1,0.1 0,0 -0.1,0 -0.1,-0.1 0.1,-0.5 0.6,-2.6 0.6,-2.6 V 17 c -0.1,-0.2 -2.2,-0.4 -2.5,-0.4 -0.1,0 -0.2,0 -0.3,0.1 -0.2,0.3 0.2,0.6 0.4,0.7 0.1,0.6 0.4,1 1.1,1.1 0,0.1 -0.2,1.7 -0.2,1.7 0,0.6 0.8,1 1.3,1.3 l 0.1,0.1 c -0.2,0.4 -0.6,0.7 -1.1,0.7 -0.6,0 -1.1,-0.5 -1.1,-1.1 0,-0.4 -0.8,-2.2 -1,-2.7 -0.6,-1.1 0.3,-4.2 1.8,-4.5 0.3,-0.1 0.5,-0.5 0.2,-0.8 -0.6,-0.6 -1.3,-1.4 -2.2,-1.4 -1.1,0 -2.1,0.9 -2.1,2.1 0,1.3 1,1.5 0.9,1.9 -0.4,1.2 -0.4,2.5 0.1,3.4 0.4,0.6 0.7,1.7 0.9,2.4 0.1,0.8 0.6,1.4 1.2,1.8 0.3,0.2 0.2,0.4 0.3,0.7 0.1,0.1 0.2,0.2 0.2,0.3 0.1,0.1 0,0.1 -0.1,0.1 -1,-0.1 -2.4,-0.5 -3,-1.8 -0.3,-0.7 -1.4,1.7 -2,0.6 -0.7,-1.2 -1,-2.2 -1.2,-3.4 -0.2,-0.7 -0.6,0.5 -0.8,0.1 -0.3,-0.8 -0.5,-1.6 -0.5,-2.5 0.2,-3.1 2.4,-5.6 5.4,-6.3 z m 8.6,2.1 v -0.2 c 0.1,-0.1 0.3,-0.2 0.5,-0.2 0.5,0 0.9,0.4 0.9,0.9 0,0.3 -0.1,0.5 -0.3,0.7 -0.1,0.1 -0.2,0 -0.2,-0.1 -0.2,-0.4 -0.5,-0.8 -0.9,-1.1 z m -2.1,10.3 c -0.2,0.6 -1,0.4 -1.5,0.7 h -0.2 c -0.4,-0.4 -1.2,-0.2 -1.5,-0.8 0,0 0,-0.2 0.1,-0.2 0.6,-0.1 1.1,-0.3 1.5,-0.8 0,0 0.1,-0.1 0.2,0 0.3,0.4 0.8,0.6 1.3,0.7 0.1,0.2 0.2,0.3 0.1,0.4 z m -6.1,-9 c 0,0 -0.1,0.1 -0.2,0 -0.2,-0.2 -0.3,-0.4 -0.3,-0.7 0,-0.5 0.4,-0.9 0.9,-0.9 0.2,0 0.5,0.1 0.6,0.3 0.1,0.1 0,0.2 0,0.2 -0.4,0.2 -0.8,0.6 -1,1.1 z m -8.2,11.8 c -0.6,0 -0.9,0.2 -1.3,0.5 -0.3,0.2 -0.4,-0.4 0,-1.5 0.3,-0.9 -1.5,-1.4 -1.9,-1 -0.6,0.5 -2.1,1.4 -3.6,-0.2 -0.3,-0.3 0.7,-0.2 0.7,-0.5 0.1,-0.4 0.5,-0.6 0.6,-0.8 0.1,-0.1 0.1,-0.3 -0.1,-0.4 -0.5,-0.2 -1.1,-0.8 -0.9,-1.8 0,-0.1 -0.8,-0.2 -0.5,-0.4 1.4,-1.3 2.9,-0.5 3.5,-0.1 0.1,0 0.3,0.1 0.3,-0.1 0,-0.4 -0.2,-0.7 0.7,-1.4 0.2,-0.1 -0.5,-0.7 0,-0.7 2.9,0.7 1.6,3.7 2.2,4.3 1.1,1 3.8,1.8 6.3,2.3 0.2,0 1,0.3 1.2,0.4 2,1 3.3,0.9 4.4,0.5 0.4,-0.1 0.3,0.3 0.2,0.4 -4,3.8 -7.1,2.9 -8.2,2.2 -0.8,-0.5 -2.3,-0.5 -3,0.5 -0.1,0.1 -0.3,0.2 -0.4,-0.1 -0.2,-0.7 0,-1.2 0.2,-1.8 0.1,-0.2 -0.2,-0.3 -0.4,-0.3 z m 38.5,3.6 c -0.5,0.5 -1.5,1 -3,0.9 -0.6,0 -1,0.2 -1.1,0.3 -0.2,0.2 -0.2,0.3 -0.2,0.4 -0.1,0.3 0,0.7 0.2,0.9 0.2,0.2 0.1,0.4 -0.2,0.4 -0.3,0.1 -0.6,0.1 -1.2,-0.2 -0.3,-0.1 -0.4,0 -0.4,0.2 -0.1,0.3 0.1,0.7 0.5,1 0.2,0.2 0.2,0.4 -0.2,0.5 -0.6,0.2 -1.1,-0.1 -1.9,-0.5 -0.5,-0.3 -0.9,-0.3 -1.2,0.1 -0.2,0.2 -0.2,0.4 -0.1,0.5 0.3,0.3 0.5,1 -0.3,2 -0.3,0.3 -0.6,-0.6 -0.8,-0.5 -1.1,0.5 -2,-0.2 -2.4,-0.6 -0.1,-0.1 -0.2,-0.1 -0.4,0 -0.6,0.4 -1.8,1 -2.2,-0.1 -0.1,-0.2 -0.7,0.2 -0.7,-0.1 0,-1.8 1.6,-2.1 2.2,-2.2 0.2,0 0.2,-0.1 0.1,-0.3 -0.3,-0.4 -0.6,-0.9 -0.4,-1.4 0.1,-0.4 -0.9,-0.5 -0.5,-0.7 2.1,-1 3.2,0.9 3.6,1.1 0.6,0.3 3.3,-0.5 3.6,-2 0.1,-0.3 -0.6,-0.4 -1.3,-0.6 -0.1,0 -0.2,-0.2 0,-0.4 1.6,-1.2 2.9,-2.8 5.9,-3.1 0.4,0 0.5,0.3 0.5,0.4 0.1,0.5 0.2,0.9 0.4,1.3 0.4,0.9 0.9,1.5 1.5,1.9 0.2,0.3 0.1,0.6 0,0.8 z m 12.3,-1 c 0.3,0.1 0.3,0.3 0.1,0.5 -0.2,0.2 -0.5,0.3 -1.2,0.3 -0.3,0 -0.3,0.2 -0.3,0.3 0,0.3 0.4,0.6 0.9,0.6 0.3,0.1 0.3,0.3 0.1,0.5 -0.4,0.4 -1,0.4 -2,0.4 -0.9,0 -1.6,1.1 -1.1,1.5 0.4,0.3 1.1,1 0.5,2.9 -0.2,0.6 -0.5,-0.5 -0.8,-0.3 -0.8,0.5 -1.4,-0.1 -1.8,-0.5 -0.1,-0.2 -0.3,-0.2 -0.4,0 -0.3,0.5 -1.1,1.5 -2.7,0.6 -0.3,-0.2 -1.1,0.5 -1.1,0.2 -0.3,-1.3 0.4,-2 0.9,-2.4 0.1,0 0.3,-0.3 -0.1,-0.3 -0.5,0 -1.2,-0.2 -1.3,-0.9 0,-0.1 -0.7,-0.1 -0.7,-0.3 0.2,-0.9 2.2,-1.6 3.6,-0.7 1.2,0.8 2.7,-1.9 1.6,-3.1 -0.8,-0.9 -5.3,1.6 -6.8,-1.6 -0.6,-1.3 0.2,-2.4 -0.5,-2.5 -0.6,-0.1 -3.5,-0.7 -6.6,1.8 -5.3,4.3 -11.1,1.9 -12.5,1 -0.2,-0.1 -0.4,0.1 -0.3,0.3 0.2,0.6 0.1,1.1 -0.1,1.5 -0.6,0.8 -2.5,1.7 -2.8,1.8 -2.2,0.7 -2,2.4 -1.8,3.1 0.1,0.2 0,0.4 -0.3,0.3 -0.7,-0.1 -2.1,-0.5 -2.6,-1.9 -0.1,-0.2 -0.2,-0.2 -0.4,0 -0.8,0.6 -0.5,1.5 -0.3,1.8 0.1,0.2 0,0.3 -0.2,0.3 -0.8,0.1 -1.3,-0.8 -2,-0.7 -0.4,0 -0.9,0.4 -1.2,0.6 -0.1,0.1 -0.2,0.3 -0.1,0.5 0.8,2.5 -0.5,2.6 -0.6,2.5 -0.1,-0.1 0,-0.5 -0.4,-0.5 -1.3,0.1 -1.7,-0.8 -1.8,-1.5 0,-0.2 -0.1,-0.3 -0.3,-0.2 -0.5,0.4 -1.8,1.1 -2.6,0 -0.1,-0.1 -0.5,0 -0.7,0.1 -0.2,0.1 -0.2,-0.2 -0.2,-0.3 0.1,-1.4 1.1,-2.1 1.6,-2.3 0.2,-0.1 0.2,-0.2 0.1,-0.3 -0.4,-0.3 -1.2,-1 -0.9,-1.7 0,-0.1 -0.6,-0.4 -0.5,-0.5 1.6,-1.1 3.5,0.7 3.8,0.9 0.3,0.2 1.7,0.3 5.3,-1.8 2.3,-1.3 3.5,-2.3 4.1,-3.1 0.1,-0.1 0.2,-0.3 0.5,-0.3 1.4,0 2.9,-0.3 4,-1.2 0.2,-0.2 0.4,-0.1 0.5,0 2.1,1.4 3.1,-1.7 3.5,-3.2 0.1,-0.3 0.1,-0.5 0.4,-0.6 7.6,0.4 21.9,0.3 21.9,0.3 0,0 1.9,0.1 1.8,-1 -0.1,-1.9 -8,-1.8 -13.8,-1 -2.1,0.3 -5.2,0.5 -7,-0.2 -0.8,-0.3 -1.4,-0.8 -1.7,-1.4 -0.4,-0.8 -0.3,-1.2 -0.2,-1.7 0.1,-0.4 0.3,-0.7 0.5,-1.1 1.5,-2.3 5,-2.5 6,-2.5 0.2,0 0.3,-0.1 0.4,-0.2 0.1,-0.5 0.5,-1.8 2,-1.8 0.4,0 0.8,-0.2 1.1,-0.3 0.2,-0.1 0.3,0 0.2,0.1 0,0.2 -0.1,0.4 -0.3,0.6 -1,0.9 -0.9,1.3 -0.7,1.4 0.1,0.1 0.2,0 0.2,0 3.1,-2.7 4.9,-0.9 5.4,-0.3 0.1,0.1 0.1,0.3 -0.1,0.3 -2.1,0.5 -2.9,2.3 -7.2,2 -0.5,0 -4,-0.2 -5.1,1.4 -0.6,0.9 -0.2,1.8 1.7,2.2 1.4,0.3 4.8,-0.2 6.4,-0.3 1.5,-0.1 8.3,-1 11.8,0 1.5,0.4 3.7,1.6 3.2,3.9 -0.3,1.4 -1.7,2 -1.7,2 0,0 -3.9,2.7 3.1,2.8 2.2,0 0,1.8 -0.1,2.3 0,0.4 0.4,0.7 0.7,0.9 z m -12.7,-15.1 c -0.2,0 -0.5,0.1 -0.8,0.3 -0.6,0.4 -3.1,1.5 -3.9,0.2 0,0 1.8,-0.1 2.9,-1.1 0,0 1.2,-0.4 2,0.2 -0.1,0.2 0,0.4 -0.2,0.4 z M 47.23526,0 c -23.7,0 -47.29999988,6.3 -47.29999988,6.3 v 31.5 c 0,28.4 20.29999988,57.9 47.19999988,63 27.9,-5.5 47.3,-34.6 47.3,-63 V 6.3 c 0,0 -19.7,-6.3 -47.2,-6.3 z m 40.2,49.3 c 0,23.1 -17.6,44.1 -40.2,44.1 -22.7,0 -40.2999999,-21 -40.2999999,-44.1 V 9.5 l 0.6,-0.2 c 0,0 20.3999999,-6.3 39.5999999,-6.3 19.2,0 39.6,6.3 39.6,6.3 l 0.6,0.2 v 39.8 z"
     id="path3"
     style="fill:#cccccc;fill-opacity:1" />
</svg>
