<?xml version="1.0" encoding="UTF-8" standalone="no"?>
<!-- Created with Inkscape (http://www.inkscape.org/) -->

<svg
   version="1.1"
   id="svg1"
   width="526.10883"
   height="196.50539"
   viewBox="0 0 526.10882 196.50539"
   sodipodi:docname="spatial_deriv.svg"
   inkscape:version="1.4.3 (0d15f75042, 2025-12-25)"
   xml:space="preserve"
   inkscape:export-filename="temporal_deriv.svg"
   inkscape:export-xdpi="400"
   inkscape:export-ydpi="400"
   xmlns:inkscape="http://www.inkscape.org/namespaces/inkscape"
   xmlns:sodipodi="http://sodipodi.sourceforge.net/DTD/sodipodi-0.dtd"
   xmlns="http://www.w3.org/2000/svg"
   xmlns:svg="http://www.w3.org/2000/svg"><defs
     id="defs1" /><sodipodi:namedview
     id="namedview1"
     pagecolor="#ffffff"
     bordercolor="#666666"
     borderopacity="1.0"
     inkscape:showpageshadow="2"
     inkscape:pageopacity="0.0"
     inkscape:pagecheckerboard="0"
     inkscape:deskcolor="#d1d1d1"
     inkscape:zoom="0.44992777"
     inkscape:cx="396.73035"
     inkscape:cy="-1476.9037"
     inkscape:window-width="1920"
     inkscape:window-height="1028"
     inkscape:window-x="0"
     inkscape:window-y="32"
     inkscape:window-maximized="1"
     inkscape:current-layer="layer-MC1"
     showgrid="false"><inkscape:page
       x="0"
       y="0"
       width="526.10883"
       height="196.50539"
       id="page2"
       margin="0"
       bleed="0" /></sodipodi:namedview><g
     id="layer-MC1"
     inkscape:groupmode="layer"
     inkscape:label="Midground"
     transform="translate(-2488.7005,-1366.7252)"><g
       id="g477"
       transform="translate(0,-212)"><g
         id="g14"
         transform="matrix(3.6768557,0,0,3.6768557,1445.0927,50.638041)"
         style="stroke-width:0.271972"><path
           id="path150-5"
           d="m 293.3603,430.51422 h -9 l 4.40625,10.04687 h 0.29687 z m -0.95313,0.60937 -3.125,7.35938 -3.09375,-7.35938 z m 0,0"
           style="fill:#000000;fill-opacity:1;fill-rule:nonzero;stroke:none;stroke-width:0.362629"
           aria-label="∇" /><path
           id="path151-0"
           d="m 302.72358,428.59235 c -0.1875,0.5625 -0.51562,0.6875 -0.84375,0.6875 -0.70312,0 -1.14062,-0.625 -1.98437,-0.625 -0.73438,0 -1.3125,0.54687 -1.46875,1.53125 h 0.39062 c 0.14063,-0.53125 0.45313,-0.67188 0.79688,-0.67188 0.70312,0 1.14062,0.625 1.9375,0.625 0.8125,0 1.32812,-0.42187 1.54687,-1.54687 z m 0,0"
           style="fill:#000000;fill-opacity:1;fill-rule:nonzero;stroke:none;stroke-width:0.362629"
           aria-label="̃" /><path
           id="path152"
           d="m 297.98921,438.56109 h -0.0625 l -0.10938,-1.70312 -0.4375,-4.15625 c -0.0156,-0.0937 -0.0312,-0.42188 -0.0312,-0.51563 -0.0469,-0.65625 0.42188,-0.9375 1.15625,-0.9375 l 0.0469,-0.4375 h -3.56249 l -0.0312,0.4375 c 0.76562,0 1.01562,0.35938 1.14062,1.32813 l 0.8125,7.875 h 0.46875 l 5.34375,-7.64063 c 0.89063,-1.32812 1.17188,-1.5625 1.96875,-1.5625 l 0.0312,-0.4375 h -3.15625 l -0.0156,0.4375 c 0.65625,0 0.85938,0.0937 0.85938,0.375 0,0.23438 -0.1875,0.57813 -0.4375,0.96875 z m 0,0"
           style="fill:#000000;fill-opacity:1;fill-rule:nonzero;stroke:none;stroke-width:0.362629"
           aria-label="𝑉" /><path
           id="path153-6"
           d="m 308.70796,439.89703 c -0.0937,-0.59375 -0.29688,-1.5625 -1.32813,-1.5625 -1.46875,0 -2.5,1.32813 -2.5,3.28125 0,1.21875 0.34375,1.96875 1.21875,1.96875 0.76563,0 1.48438,-0.84375 2.10938,-1.84375 h 0.0937 c -0.0469,0.34375 -0.0937,0.64063 -0.0937,0.90625 0,0.51563 0.1875,0.89063 0.6875,0.89063 0.85937,0 1.26562,-0.76563 1.42187,-1.03125 l -0.17187,-0.17188 c -0.20313,0.21875 -0.40625,0.40625 -0.71875,0.40625 -0.59375,0 -0.5625,-1.125 -0.5625,-1.90625 0,-0.0469 0.51562,-0.75 1.32812,-1.875 0.0625,-0.10937 0.23438,-0.29687 0.29688,-0.39062 v -0.15625 l -0.89063,0.0156 c -0.20312,0.28125 -0.57812,0.875 -0.82812,1.46875 z m -2.375,2.75 c -0.5,0 -0.96875,-0.35937 -0.96875,-1.28125 0,-1.42187 0.8125,-2.14062 1.96875,-2.14062 0.67187,0 1.03125,0.29687 1.03125,0.95312 0,0.17188 -0.0156,0.29688 -0.0312,0.375 -0.0781,0.73438 -0.9375,2.09375 -2,2.09375 z m 0,0"
           style="fill:#6495ed;fill-opacity:1;fill-rule:nonzero;stroke:none;stroke-width:0.362629"
           aria-label="𝛼" /><path
           id="path154-4"
           d="m 312.25093,436.38922 c 0,3.20312 1.53125,5.48437 3.875,6.6875 l 0.23437,-0.40625 c -2.125,-1.39063 -2.92187,-3.35938 -2.92187,-6.28125 0,-2.89063 0.79687,-4.84375 2.92187,-6.25 l -0.23437,-0.39063 c -2.34375,1.20313 -3.875,3.46875 -3.875,6.64063 z m 0,0"
           style="fill:#000000;fill-opacity:1;fill-rule:nonzero;stroke:none;stroke-width:0.362629"
           aria-label="(" /><path
           id="path155"
           d="m 321.37984,436.04547 h -0.0469 l -0.17187,-0.75 c -0.20313,-0.78125 -0.46875,-1.42188 -0.82813,-1.82813 h -0.21875 l -2.01562,0.23438 v 0.4375 c 0,0 0.21875,-0.0469 0.45312,-0.0469 0.95313,-0.0156 1.20313,0.375 1.59375,1.59375 l 0.40625,1.32813 -1.04687,1.53125 c -0.5625,0.8125 -0.82813,0.82812 -0.89063,0.82812 -0.23437,0 -0.59375,-0.1875 -0.90625,-0.1875 -0.35937,0 -0.57812,0.3125 -0.57812,0.60938 0,0.35937 0.21875,0.70312 0.84375,0.70312 0.875,0 1.35937,-0.67187 1.82812,-1.4375 l 0.92188,-1.51562 h 0.0625 l 0.35937,1.46875 c 0.20313,0.95312 0.53125,1.5 1.20313,1.5 0.98437,0 1.59375,-0.98438 2.01562,-1.625 l -0.29687,-0.23438 c -0.40625,0.53125 -0.67188,0.8125 -1.04688,0.8125 -0.45312,0 -0.75,-0.53125 -1.15625,-1.875 l -0.3125,-0.98437 0.89063,-1.40625 c 0.25,-0.42188 0.45312,-0.625 0.79687,-0.625 0.1875,0 0.51563,0.15625 0.75,0.15625 0.39063,0 0.67188,-0.34375 0.67188,-0.6875 0,-0.40625 -0.17188,-0.64063 -0.73438,-0.64063 -0.85937,0 -1.4375,0.71875 -1.82812,1.40625 z m 0,0"
           style="fill:#000000;fill-opacity:1;fill-rule:nonzero;stroke:none;stroke-width:0.362629"
           aria-label="𝑥" /><path
           id="path156-6"
           d="m 329.91889,436.38922 c 0,-3.17188 -1.51562,-5.4375 -3.85937,-6.64063 l -0.23438,0.39063 c 2.125,1.40625 2.90625,3.35937 2.90625,6.25 0,2.92187 -0.78125,4.89062 -2.90625,6.28125 l 0.23438,0.40625 c 2.34375,-1.20313 3.85937,-3.48438 3.85937,-6.6875 z m 14.23828,-0.76563 v -1 h -8.67187 v 1 z m 0,2.95313 v -0.96875 h -8.67187 v 0.96875 z m 0,0"
           style="fill:#000000;fill-opacity:1;fill-rule:nonzero;stroke:none;stroke-width:0.362629"
           aria-label=")=" /><path
           id="path157-2"
           d="m 360.27437,424.86969 v -1 h -8.67188 v 1 z m 10.83203,-6.59375 h -9 l 4.40625,10.04687 h 0.29687 z m -0.95313,0.60937 -3.125,7.35938 -3.09375,-7.35938 z m 0,0"
           style="fill:#000000;fill-opacity:1;fill-rule:nonzero;stroke:none;stroke-width:0.362629"
           aria-label="−∇" /><path
           id="path158"
           d="m 379.09858,432.46735 v -0.48438 h -1.95312 v -15.89062 h 1.95312 v -0.48438 h -3.14062 v 16.85938 z m 0,0"
           style="fill:#000000;fill-opacity:1;fill-rule:nonzero;stroke:none;stroke-width:0.362629"
           aria-label="[" /><path
           id="path159-5"
           d="m 384.60639,428.13531 c 3.48438,0 6.9375,-2.29687 6.9375,-6.25 0,-2.57812 -1.78125,-3.32812 -5.0625,-3.32812 l 0.0937,-0.42188 -0.14062,-0.10937 -1.23438,0.57812 c -1.70312,0.25 -4.01562,1.32813 -4.01562,3.03125 0,0.35938 0.21875,0.625 0.54687,0.625 0.5,0 0.8125,-0.25 0.8125,-1.03125 0,-1.3125 1.39063,-2.03125 2.54688,-2.17187 -0.21875,1.54687 -0.45313,3 -0.75,4.53125 -0.42188,2.09375 -1.25,3.57812 -3.35938,3.59375 l -0.40625,0.95312 z m -1.59375,-0.95312 -0.0469,-0.0781 c 2.07812,-1.42187 2.54687,-3.01562 2.84375,-4.67187 0.1875,-1.14063 0.40625,-2.25 0.59375,-3.39063 2.09375,0 3.75,0.53125 3.75,3.1875 0,1.20313 -0.40625,2.95313 -1.40625,3.90625 -1.0625,0.98438 -2.42188,1.04688 -3.89063,1.04688 z m 0,0"
           style="fill:#000000;fill-opacity:1;fill-rule:nonzero;stroke:none;stroke-width:0.362629"
           aria-label="𝒟" /><path
           id="path160-8"
           d="m 396.14936,418.90875 c -0.0937,-0.59375 -0.29687,-1.5625 -1.32812,-1.5625 -1.46875,0 -2.5,1.32812 -2.5,3.28125 0,1.21875 0.34375,1.96875 1.21875,1.96875 0.76562,0 1.48437,-0.84375 2.10937,-1.84375 h 0.0937 c -0.0469,0.34375 -0.0937,0.64062 -0.0937,0.90625 0,0.51562 0.1875,0.89062 0.6875,0.89062 0.85938,0 1.26563,-0.76562 1.42188,-1.03125 l -0.17188,-0.17187 c -0.20312,0.21875 -0.40625,0.40625 -0.71875,0.40625 -0.59375,0 -0.5625,-1.125 -0.5625,-1.90625 0,-0.0469 0.51563,-0.75 1.32813,-1.875 0.0625,-0.10938 0.23437,-0.29688 0.29687,-0.39063 v -0.15625 l -0.89062,0.0156 c -0.20313,0.28125 -0.57813,0.875 -0.82813,1.46875 z m -2.375,2.75 c -0.5,0 -0.96875,-0.35938 -0.96875,-1.28125 0,-1.42188 0.8125,-2.14063 1.96875,-2.14063 0.67188,0 1.03125,0.29688 1.03125,0.95313 0,0.17187 -0.0156,0.29687 -0.0312,0.375 -0.0781,0.73437 -0.9375,2.09375 -2.00001,2.09375 z m 0,0"
           style="fill:#6495ed;fill-opacity:1;fill-rule:nonzero;stroke:none;stroke-width:0.362629"
           aria-label="𝛼" /><path
           id="path161"
           d="m 405.38765,420.04937 v -0.71875 h -6.32813 v 0.71875 z m 5.60546,0.6875 h -0.3125 c -0.25,0.64063 -0.39062,0.85938 -0.95312,0.85938 h -1.46875 l -0.75,0.0312 v -0.0469 l 1.40625,-1.32812 c 1.125,-1.14063 1.73437,-1.875 1.73437,-2.8125 0,-1.125 -0.84375,-1.84375 -2.04687,-1.84375 -1.03125,0 -1.75,0.59375 -2.07813,1.625 l 0.25,0.10937 c 0.39063,-0.79687 0.85938,-1.04687 1.5625,-1.04687 0.8125,0 1.32813,0.51562 1.32813,1.3125 0,1.10937 -0.53125,1.78125 -1.59375,2.875 l -1.60938,1.60937 V 422.44 h 4.1875 z m 0,0"
           style="fill:#000000;fill-opacity:1;fill-rule:nonzero;stroke:none;stroke-width:0.362629"
           aria-label="−2" /><path
           id="path162-6"
           d="m 395.21186,428.44391 h -0.0312 l -0.125,-0.53125 c -0.15626,-0.57813 -0.34376,-1.04688 -0.60938,-1.34375 h -0.15625 l -1.46875,0.17187 v 0.3125 c 0,0 0.15625,-0.0312 0.32812,-0.0312 0.6875,0 0.875,0.28125 1.15625,1.17188 l 0.29688,0.96875 -0.76563,1.10937 c -0.40625,0.59375 -0.59375,0.60938 -0.64062,0.60938 -0.1875,0 -0.4375,-0.14063 -0.67188,-0.14063 -0.25,0 -0.40625,0.23438 -0.40625,0.45313 0,0.26562 0.15625,0.51562 0.60938,0.51562 0.64062,0 0.98437,-0.5 1.32812,-1.04687 l 0.6875,-1.10938 h 0.0312 l 0.26563,1.07813 c 0.15625,0.6875 0.39062,1.09375 0.875,1.09375 0.71875,0 1.17187,-0.71875 1.48437,-1.1875 l -0.23437,-0.17188 c -0.28125,0.375 -0.48438,0.59375 -0.76563,0.59375 -0.32812,0 -0.53125,-0.39062 -0.82812,-1.375 l -0.23438,-0.71875 0.65625,-1.03125 c 0.17188,-0.29687 0.32813,-0.45312 0.57813,-0.45312 0.125,0 0.375,0.10937 0.54687,0.10937 0.28125,0 0.48438,-0.23437 0.48438,-0.5 0,-0.29687 -0.125,-0.46875 -0.53125,-0.46875 -0.625,0 -1.04688,0.53125 -1.32813,1.03125 z m 0,0"
           style="fill:#000000;fill-opacity:1;fill-rule:nonzero;stroke:none;stroke-width:0.362629"
           aria-label="𝑥" /><path
           id="path163-2"
           d="m 421.07515,421.26031 c -0.78125,0.0469 -1.625,0.0781 -2.53125,0.0781 -1.03125,-0.0156 -1.84375,-0.0625 -2.89063,-0.0625 -1.39062,0 -2.35937,0.42187 -2.96875,1.70312 l 0.3125,0.21875 c 0.625,-0.75 0.95313,-0.76562 2.5,-0.76562 -0.34375,1.23437 -0.76562,2.07812 -1.51562,3.25 -0.71875,1.09375 -0.89063,1.32812 -1.54688,2.25 v 0.20312 h 1.375 c 0.59375,-0.98437 1.92188,-4.14062 2.26563,-5.6875 0.70312,0 1.35937,0.0312 2.07812,0.0469 -0.59375,1.60937 -1.42187,3.40625 -1.42187,4.65624 0,0.60938 0.23437,1.10938 0.9375,1.10938 0.89062,0 1.5,-0.42188 1.98437,-1.125 l -0.1875,-0.25 c -0.25,0.1875 -0.51562,0.35937 -1.03125,0.35937 -0.45312,0 -0.5625,-0.48437 -0.5625,-0.87499 0,-1.09375 0.6875,-3.17188 0.92188,-3.85938 0.35937,0.0156 0.5625,0.0156 0.78125,0.0156 0.96875,0 1.45312,-0.73438 1.53125,-1.09375 z m 0,0"
           style="fill:#000000;fill-opacity:1;fill-rule:nonzero;stroke:none;stroke-width:0.362629"
           aria-label="𝜋" /><path
           id="path164"
           d="m 425.44233,432.46735 v -16.85938 h -3.14062 v 0.48438 h 1.9375 v 15.89062 h -1.9375 v 0.48438 z m 0,0"
           style="fill:#000000;fill-opacity:1;fill-rule:nonzero;stroke:none;stroke-width:0.362629"
           aria-label="]" /><path
           id="path165-8"
           d="m 350.6955,436.62013 h 76.22267"
           style="fill:none;stroke:#000000;stroke-width:0.269071;stroke-linecap:butt;stroke-linejoin:miter;stroke-miterlimit:10;stroke-dasharray:none;stroke-opacity:1" /><path
           id="path166"
           d="m 393.10639,442.80719 c -0.78125,0.0469 -1.625,0.0781 -2.53125,0.0781 -1.03125,-0.0156 -1.84375,-0.0625 -2.89062,-0.0625 -1.39063,0 -2.35938,0.42187 -2.96875,1.70312 l 0.3125,0.21875 c 0.625,-0.75 0.95312,-0.76562 2.5,-0.76562 -0.34375,1.23437 -0.76563,2.07812 -1.51563,3.25 -0.71875,1.09375 -0.89062,1.32812 -1.54687,2.25 v 0.20312 h 1.375 c 0.59375,-0.98437 1.92187,-4.14062 2.26562,-5.6875 0.70313,0 1.35938,0.0312 2.07813,0.0469 -0.59375,1.60937 -1.42188,3.40625 -1.42188,4.65625 0,0.60937 0.23438,1.10937 0.9375,1.10937 0.89063,0 1.5,-0.42187 1.98438,-1.125 l -0.1875,-0.25 c -0.25,0.1875 -0.51563,0.35938 -1.03125,0.35938 -0.45313,0 -0.5625,-0.48438 -0.5625,-0.875 0,-1.09375 0.6875,-3.17188 0.92187,-3.85938 0.35938,0.0156 0.5625,0.0156 0.78125,0.0156 0.96875,0 1.45313,-0.73438 1.53125,-1.09375 z m 0,0"
           style="fill:#000000;fill-opacity:1;fill-rule:nonzero;stroke:none;stroke-width:0.362629"
           aria-label="𝜋" /></g><g
         id="g13"
         transform="matrix(3.6768557,0,0,3.6768557,1445.0927,143.12694)"
         style="stroke-width:0.271972"><path
           id="path198-3"
           d="m 311.92529,428.2841 -13.67187,-2.8125 h -0.71875 l -13.70312,2.82812 0.10937,0.375 13.92187,-2.28125 13.96875,2.28125 z m 0,0"
           style="fill:#000000;fill-opacity:1;fill-rule:nonzero;stroke:none;stroke-width:0.362629"
           aria-label="ˆ" /><path
           id="path199-9"
           d="m 288.49951,440.29191 c 3.48438,0 6.9375,-2.29688 6.9375,-6.25 0,-2.57813 -1.78125,-3.32813 -5.0625,-3.32813 l 0.0937,-0.42187 -0.14062,-0.10938 -1.23438,0.57813 c -1.70312,0.25 -4.01562,1.32812 -4.01562,3.03125 0,0.35937 0.21875,0.625 0.54687,0.625 0.5,0 0.8125,-0.25 0.8125,-1.03125 0,-1.3125 1.39063,-2.03125 2.54688,-2.17188 -0.21875,1.54688 -0.45313,3 -0.75,4.53125 -0.42188,2.09375 -1.25,3.57813 -3.35938,3.59375 l -0.40625,0.95313 z m -1.59375,-0.95313 -0.0469,-0.0781 c 2.07812,-1.42188 2.54687,-3.01563 2.84375,-4.67188 0.1875,-1.14062 0.40625,-2.25 0.59375,-3.39062 2.09375,0 3.75,0.53125 3.75,3.1875 0,1.20312 -0.40625,2.95312 -1.40625,3.90625 -1.0625,0.98437 -2.42188,1.04687 -3.89063,1.04687 z m 0,0"
           style="fill:#000000;fill-opacity:1;fill-rule:nonzero;stroke:none;stroke-width:0.362629"
           aria-label="𝒟" /><path
           id="path200"
           d="m 300.04249,431.06926 c -0.0937,-0.59375 -0.29688,-1.5625 -1.32813,-1.5625 -1.46875,0 -2.5,1.32812 -2.5,3.28125 0,1.21875 0.34375,1.96875 1.21875,1.96875 0.76563,0 1.48438,-0.84375 2.10938,-1.84375 h 0.0937 c -0.0469,0.34375 -0.0937,0.64062 -0.0937,0.90625 0,0.51562 0.1875,0.89062 0.6875,0.89062 0.85937,0 1.26562,-0.76562 1.42187,-1.03125 l -0.17187,-0.17187 c -0.20313,0.21875 -0.40625,0.40625 -0.71875,0.40625 -0.59375,0 -0.5625,-1.125 -0.5625,-1.90625 0,-0.0469 0.51562,-0.75 1.32812,-1.875 0.0625,-0.10938 0.23438,-0.29688 0.29688,-0.39063 v -0.15625 l -0.89063,0.0156 c -0.20312,0.28125 -0.57812,0.875 -0.82812,1.46875 z m -2.375,2.75 c -0.5,0 -0.96875,-0.35938 -0.96875,-1.28125 0,-1.42188 0.8125,-2.14063 1.96875,-2.14063 0.67187,0 1.03125,0.29688 1.03125,0.95313 0,0.17187 -0.0156,0.29687 -0.0312,0.375 -0.0781,0.73437 -0.9375,2.09375 -2,2.09375 z m 0,0"
           style="fill:#6495ed;fill-opacity:1;fill-rule:nonzero;stroke:none;stroke-width:0.362629"
           aria-label="𝛼" /><path
           id="path201-1"
           d="m 299.10499,440.60441 h -0.0312 l -0.125,-0.53125 c -0.15625,-0.57813 -0.34375,-1.04688 -0.60938,-1.34375 h -0.15625 l -1.46875,0.17187 v 0.3125 c 0,0 0.15625,-0.0312 0.32813,-0.0312 0.6875,0 0.875,0.28125 1.15625,1.17187 l 0.29687,0.96875 -0.76562,1.10938 c -0.40625,0.59375 -0.59375,0.60937 -0.64063,0.60937 -0.1875,0 -0.4375,-0.14062 -0.67187,-0.14062 -0.25,0 -0.40625,0.23437 -0.40625,0.45312 0,0.26563 0.15625,0.51563 0.60937,0.51563 0.64063,0 0.98438,-0.5 1.32813,-1.04688 l 0.6875,-1.10937 h 0.0312 l 0.26562,1.07812 c 0.15625,0.6875 0.39063,1.09375 0.875,1.09375 0.71875,0 1.17188,-0.71875 1.48438,-1.1875 l -0.23438,-0.17188 c -0.28125,0.375 -0.48437,0.59375 -0.76562,0.59375 -0.32813,0 -0.53125,-0.39062 -0.82813,-1.375 l -0.23437,-0.71875 0.65625,-1.03125 c 0.17187,-0.29687 0.32812,-0.45312 0.57812,-0.45312 0.125,0 0.375,0.10937 0.54688,0.10937 0.28125,0 0.48437,-0.23437 0.48437,-0.5 0,-0.29687 -0.125,-0.46875 -0.53125,-0.46875 -0.625,0 -1.04687,0.53125 -1.32812,1.03125 z m 0,0"
           style="fill:#000000;fill-opacity:1;fill-rule:nonzero;stroke:none;stroke-width:0.362629"
           aria-label="𝑥" /><path
           id="path202-9"
           d="m 305.85108,433.49503 -0.0625,0.59375 h 1.20312 l -0.98437,5.4375 c -0.15625,0.76563 -0.54688,3.53125 -1.375,3.53125 -0.54688,0 -0.0625,-1.29687 -0.9375,-1.29687 -0.375,0 -0.59375,0.32812 -0.59375,0.73437 0,0.5 0.375,1.03125 1.28125,1.03125 2,0 2.67187,-3.26562 2.90625,-4.51562 l 0.90625,-4.92188 h 1.35937 l 0.0937,-0.59375 h -1.375 l 0.1875,-1.03125 c 0.25,-1.23437 0.70313,-2.09375 1.48438,-2.09375 0.28125,0 0.28125,0.39063 0.3125,0.73438 0.0469,0.29687 0.1875,0.54687 0.54687,0.54687 0.35938,0 0.64063,-0.21875 0.64063,-0.65625 0,-0.625 -0.48438,-1.04687 -1.3125,-1.04687 -1.3125,0 -1.90625,0.67187 -2.29688,1.35937 -0.34375,0.59375 -0.54687,1.375 -0.73437,2.1875 z m 0,0"
           style="fill:#000000;fill-opacity:1;fill-rule:nonzero;stroke:none;stroke-width:0.362629"
           aria-label="𝑓" /><path
           id="path203"
           d="m 312.65967,436.30753 c 0,3.20313 1.53125,5.48438 3.875,6.6875 l 0.23438,-0.40625 c -2.125,-1.39062 -2.92188,-3.35937 -2.92188,-6.28125 0,-2.89062 0.79688,-4.84375 2.92188,-6.25 l -0.23438,-0.39062 c -2.34375,1.20312 -3.875,3.46875 -3.875,6.64062 z m 0,0"
           style="fill:#000000;fill-opacity:1;fill-rule:nonzero;stroke:none;stroke-width:0.362629"
           aria-label="(" /><path
           id="path204-6"
           d="m 320.9331,430.04191 h -0.3125 l -2.01562,0.15625 v 0.375 c 0,0 0.25,-0.0312 0.51562,-0.0312 0.375,0 0.45313,0.25 0.45313,0.4375 0,0.23437 -0.0469,0.46875 -0.0469,0.46875 l -1.71875,8.84375 h 1.20313 l 0.5,-2.67188 0.84375,-0.75 1,2.4375 c 0.1875,0.39063 0.45312,1.125 1.20312,1.125 1.14063,0.0156 1.82813,-1.26562 2.03125,-1.625 l -0.3125,-0.20312 c -0.32812,0.46875 -0.625,0.84375 -1.1875,0.84375 -0.375,0 -0.54687,-0.3125 -0.73437,-0.78125 l -1.07813,-2.5 1.70313,-1.51563 c 0.48437,-0.42187 0.92187,-0.84375 1.92187,-0.875 l 0.0312,-0.35937 h -3.125 l -0.0469,0.35937 c 0.3125,0 0.65625,0.0781 0.65625,0.32813 0,0.26562 -0.14063,0.40625 -0.34375,0.59375 l -2.35938,2.125 h -0.0781 z m 0,0"
           style="fill:#000000;fill-opacity:1;fill-rule:nonzero;stroke:none;stroke-width:0.362629"
           aria-label="𝑘" /><path
           id="path205-9"
           d="m 329.95264,436.30753 c 0,-3.17187 -1.51562,-5.4375 -3.85937,-6.64062 l -0.23438,0.39062 c 2.125,1.40625 2.90625,3.35938 2.90625,6.25 0,2.92188 -0.78125,4.89063 -2.90625,6.28125 l 0.23438,0.40625 c 2.34375,-1.20312 3.85937,-3.48437 3.85937,-6.6875 z m 14.23828,-0.76562 v -1 h -8.67187 v 1 z m 0,2.95312 v -0.96875 h -8.67187 v 0.96875 z m 14.51563,-1.46875 v -1 h -8.67188 v 1 z m 0,0"
           style="fill:#000000;fill-opacity:1;fill-rule:nonzero;stroke:none;stroke-width:0.362629"
           aria-label=")=−" /><path
           id="path206"
           d="m 362.46827,443.12003 v -13.09375 h -0.96875 v 13.09375 z m 0,0"
           style="fill:#000000;fill-opacity:1;fill-rule:nonzero;stroke:none;stroke-width:0.362629"
           aria-label="|" /><path
           id="path207-3"
           d="m 368.08155,430.04191 h -0.3125 l -2.01563,0.15625 v 0.375 c 0,0 0.25,-0.0312 0.51563,-0.0312 0.375,0 0.45312,0.25 0.45312,0.4375 0,0.23437 -0.0469,0.46875 -0.0469,0.46875 l -1.71875,8.84375 h 1.20312 l 0.5,-2.67188 0.84375,-0.75 1,2.4375 c 0.1875,0.39063 0.45313,1.125 1.20313,1.125 1.14062,0.0156 1.82812,-1.26562 2.03125,-1.625 l -0.3125,-0.20312 c -0.32813,0.46875 -0.625,0.84375 -1.1875,0.84375 -0.375,0 -0.54688,-0.3125 -0.73438,-0.78125 l -1.07812,-2.5 1.70312,-1.51563 c 0.48438,-0.42187 0.92188,-0.84375 1.92188,-0.875 l 0.0312,-0.35937 h -3.125 l -0.0469,0.35937 c 0.3125,0 0.65625,0.0781 0.65625,0.32813 0,0.26562 -0.14062,0.40625 -0.34375,0.59375 l -2.35937,2.125 h -0.0781 z m 0,0"
           style="fill:#000000;fill-opacity:1;fill-rule:nonzero;stroke:none;stroke-width:0.362629"
           aria-label="𝑘" /><path
           id="path208-3"
           d="m 375.41358,443.12003 v -13.09375 h -0.96875 v 13.09375 z m 0,0"
           style="fill:#000000;fill-opacity:1;fill-rule:nonzero;stroke:none;stroke-width:0.362629"
           aria-label="|" /><path
           id="path209"
           d="m 381.58936,431.52628 c -0.0937,-0.59375 -0.29688,-1.5625 -1.32813,-1.5625 -1.46875,0 -2.5,1.32813 -2.5,3.28125 0,1.21875 0.34375,1.96875 1.21875,1.96875 0.76563,0 1.48438,-0.84375 2.10938,-1.84375 h 0.0937 c -0.0469,0.34375 -0.0937,0.64063 -0.0937,0.90625 0,0.51563 0.1875,0.89063 0.6875,0.89063 0.85937,0 1.26562,-0.76563 1.42187,-1.03125 l -0.17187,-0.17188 c -0.20313,0.21875 -0.40625,0.40625 -0.71875,0.40625 -0.59375,0 -0.5625,-1.125 -0.5625,-1.90625 0,-0.0469 0.51562,-0.75 1.32812,-1.875 0.0625,-0.10937 0.23438,-0.29687 0.29688,-0.39062 v -0.15625 l -0.89063,0.0156 c -0.20312,0.28125 -0.57812,0.875 -0.82812,1.46875 z m -2.375,2.75 c -0.5,0 -0.96875,-0.35937 -0.96875,-1.28125 0,-1.42187 0.8125,-2.14062 1.96875,-2.14062 0.67187,0 1.03125,0.29687 1.03125,0.95312 0,0.17188 -0.0156,0.29688 -0.0312,0.375 -0.0781,0.73438 -0.9375,2.09375 -2,2.09375 z m 0,0"
           style="fill:#6495ed;fill-opacity:1;fill-rule:nonzero;stroke:none;stroke-width:0.362629"
           aria-label="𝛼" /><path
           id="path210-8"
           d="m 393.43311,429.4716 -1.57812,-2.21875 h -0.95313 l -1.57812,2.21875 h 0.5625 l 1.48437,-1.42187 1.5,1.42187 z m 0,0"
           style="fill:#000000;fill-opacity:1;fill-rule:nonzero;stroke:none;stroke-width:0.362629"
           aria-label="̂" /><path
           id="path211"
           d="m 387.40186,433.49503 -0.0625,0.59375 h 1.20312 l -0.98437,5.4375 c -0.15625,0.76563 -0.54688,3.53125 -1.375,3.53125 -0.54688,0 -0.0625,-1.29687 -0.9375,-1.29687 -0.375,0 -0.59375,0.32812 -0.59375,0.73437 0,0.5 0.375,1.03125 1.28125,1.03125 2,0 2.67187,-3.26562 2.90625,-4.51562 l 0.90625,-4.92188 h 1.35937 l 0.0937,-0.59375 h -1.375 l 0.1875,-1.03125 c 0.25,-1.23437 0.70313,-2.09375 1.48438,-2.09375 0.28125,0 0.28125,0.39063 0.3125,0.73438 0.0469,0.29687 0.1875,0.54687 0.54687,0.54687 0.35938,0 0.64063,-0.21875 0.64063,-0.65625 0,-0.625 -0.48438,-1.04687 -1.3125,-1.04687 -1.3125,0 -1.90625,0.67187 -2.29688,1.35937 -0.34375,0.59375 -0.54687,1.375 -0.73437,2.1875 z m 0,0"
           style="fill:#000000;fill-opacity:1;fill-rule:nonzero;stroke:none;stroke-width:0.362629"
           aria-label="𝑓" /><path
           id="path212"
           d="m 394.21045,436.30753 c 0,3.20313 1.53125,5.48438 3.875,6.6875 l 0.23438,-0.40625 c -2.125,-1.39062 -2.92188,-3.35937 -2.92188,-6.28125 0,-2.89062 0.79688,-4.84375 2.92188,-6.25 l -0.23438,-0.39062 c -2.34375,1.20312 -3.875,3.46875 -3.875,6.64062 z m 0,0"
           style="fill:#000000;fill-opacity:1;fill-rule:nonzero;stroke:none;stroke-width:0.362629"
           aria-label="(" /><path
           id="path213"
           d="m 402.48389,430.04191 h -0.3125 l -2.01562,0.15625 v 0.375 c 0,0 0.25,-0.0312 0.51562,-0.0312 0.375,0 0.45313,0.25 0.45313,0.4375 0,0.23437 -0.0469,0.46875 -0.0469,0.46875 l -1.71875,8.84375 h 1.20313 l 0.5,-2.67188 0.84375,-0.75 1,2.4375 c 0.1875,0.39063 0.45312,1.125 1.20312,1.125 1.14063,0.0156 1.82813,-1.26562 2.03125,-1.625 l -0.3125,-0.20312 c -0.32812,0.46875 -0.625,0.84375 -1.1875,0.84375 -0.375,0 -0.54687,-0.3125 -0.73437,-0.78125 l -1.07813,-2.5 1.70313,-1.51563 c 0.48437,-0.42187 0.92187,-0.84375 1.92187,-0.875 l 0.0312,-0.35937 h -3.125 l -0.0469,0.35937 c 0.3125,0 0.65625,0.0781 0.65625,0.32813 0,0.26562 -0.14063,0.40625 -0.34375,0.59375 l -2.35938,2.125 h -0.0781 z m 0,0"
           style="fill:#000000;fill-opacity:1;fill-rule:nonzero;stroke:none;stroke-width:0.362629"
           aria-label="𝑘" /><path
           id="path214-0"
           d="m 411.49951,436.30753 c 0,-3.17187 -1.51562,-5.4375 -3.85937,-6.64062 l -0.23438,0.39062 c 2.125,1.40625 2.90625,3.35938 2.90625,6.25 0,2.92188 -0.78125,4.89063 -2.90625,6.28125 l 0.23438,0.40625 c 2.34375,-1.20312 3.85937,-3.48437 3.85937,-6.6875 z m 0,0"
           style="fill:#000000;fill-opacity:1;fill-rule:nonzero;stroke:none;stroke-width:0.362629"
           aria-label=")" /></g></g></g></svg>
