<?xml version="1.0" encoding="UTF-8" standalone="no"?>
<!-- Created with Inkscape (http://www.inkscape.org/) -->

<svg
   version="1.1"
   id="svg1"
   width="607.60846"
   height="169.71202"
   viewBox="0 0 607.60846 169.71202"
   sodipodi:docname="temporal_deriv.svg"
   inkscape:version="1.4.3 (0d15f75042, 2025-12-25)"
   xml:space="preserve"
   inkscape:export-filename="logo.svg"
   inkscape:export-xdpi="400"
   inkscape:export-ydpi="400"
   xmlns:inkscape="http://www.inkscape.org/namespaces/inkscape"
   xmlns:sodipodi="http://sodipodi.sourceforge.net/DTD/sodipodi-0.dtd"
   xmlns="http://www.w3.org/2000/svg"
   xmlns:svg="http://www.w3.org/2000/svg"><defs
     id="defs1"><rect
       x="90.22966"
       y="494.11481"
       width="1438.1143"
       height="689.84174"
       id="rect4544-1-9-3-4" /></defs><sodipodi:namedview
     id="namedview1"
     pagecolor="#ffffff"
     bordercolor="#666666"
     borderopacity="1.0"
     inkscape:showpageshadow="2"
     inkscape:pageopacity="0.0"
     inkscape:pagecheckerboard="0"
     inkscape:deskcolor="#d1d1d1"
     inkscape:zoom="0.05185167"
     inkscape:cx="-9.642891"
     inkscape:cy="67.500237"
     inkscape:window-width="1920"
     inkscape:window-height="1028"
     inkscape:window-x="0"
     inkscape:window-y="32"
     inkscape:window-maximized="1"
     inkscape:current-layer="layer-MC1"
     showgrid="false"><inkscape:page
       x="0"
       y="0"
       width="607.60846"
       height="169.71202"
       id="page2"
       margin="0"
       bleed="0" /></sodipodi:namedview><g
     id="layer-MC1"
     inkscape:groupmode="layer"
     inkscape:label="Midground"
     transform="translate(-2445.324,-1101.7302)"><g
       id="g472"
       transform="translate(787.03217,-467.78284)"><g
         id="g12"
         transform="matrix(3.6768557,0,0,3.6768557,3709.8708,475.60843)"
         style="stroke-width:0.271972"><path
           id="path96"
           d="m -552.5804,315.39762 c -0.71875,0.65625 -1.46875,0.96875 -2.29687,0.96875 -1.39063,0 -2.0625,-0.75 -2.0625,-2.17188 0,-2.34375 1.39062,-3.90625 3.03125,-3.90625 1.04687,0 1.65625,0.5625 1.60937,1.98438 h 0.34375 l 0.5,-2.4375 h -0.29687 c -0.17188,0.23437 -0.28125,0.39062 -0.45313,0.39062 -0.26562,0 -0.54687,-0.40625 -1.60937,-0.40625 -2.15625,0 -4.15625,1.65625 -4.15625,4.64063 0,1.40625 0.67187,2.59375 2.59375,2.59375 1.34375,0 2.26562,-0.59375 2.98437,-1.45313 z m 0,0"
           style="fill:#000000;fill-opacity:1;fill-rule:nonzero;stroke:none;stroke-width:0.362629"
           aria-label="𝐶" /><path
           id="path97-0"
           d="m -548.65071,312.61637 -0.0937,0.4375 c 1.04687,0 1.34375,0.17187 1.14062,1.21875 l -1.26562,6.10937 c -0.23438,1.17188 -0.5,1.35938 -1.60938,1.35938 l -0.0781,0.4375 h 3.6875 c 3.71875,0 6.39062,-1.67188 6.39062,-5.79688 0,-2.26562 -1.35937,-3.76562 -4.39062,-3.76562 z m 2.5625,0.625 c 0.25,-0.0156 0.39062,-0.0312 0.64062,-0.0312 2.85938,0 3.51563,1.53125 3.51563,3.3125 0,3.59375 -1.79688,5.09375 -4.9375,5.09375 -0.375,0 -0.65625,0 -0.9375,-0.0469 z m 0,0"
           style="fill:#000000;fill-opacity:1;fill-rule:nonzero;stroke:none;stroke-width:0.362629"
           aria-label="𝐷" /><path
           id="path98"
           d="m -533.92024,308.03044 c 0,-0.85938 -0.5625,-1.39063 -1.32812,-1.39063 -2.375,0 -3.03125,3.23438 -3.59375,6.3125 -0.21875,1.20313 -0.45313,2.39062 -0.71875,3.59375 l 0.14062,0.0156 c 1.35938,-0.0469 1.10938,-1.54688 1.23438,-3.1875 h 0.0781 c 0.21875,0.39062 0.64063,0.99999 1.45313,0.99999 1.01562,0 2.25,-0.51562 2.25,-2.21875 0,-1.06249 -0.67188,-1.81249 -1.29688,-2.04687 v -0.0469 c 0.85938,-0.32813 1.78125,-0.92188 1.78125,-2.03125 z m -2.84375,5.51562 c -0.79687,0 -1.26562,-0.51562 -1.26562,-1.34375 0,-1.10937 0.39062,-4.73437 2.48437,-4.73437 0.45313,0 0.82813,0.26562 0.82813,0.9375 0,1.125 -1.21875,1.4375 -1.48438,1.4375 -0.0312,0 -0.5,-0.0469 -0.59375,-0.0469 -0.17187,0 -0.28125,0.23438 -0.28125,0.46875 0,0.23438 0.125,0.4375 0.23438,0.4375 0.125,0 0.40625,-0.17187 0.79687,-0.40625 0.21875,0.15625 0.92188,0.625 0.92188,1.73438 0,1.375 -0.96875,1.51562 -1.64063,1.51562 z m 0,0"
           style="fill:#dc143c;fill-opacity:1;fill-rule:nonzero;stroke:none;stroke-width:0.362629"
           aria-label="𝛽" /><path
           id="path99-9"
           d="m -536.8304,321.81559 h -1.04688 l 0.28125,-1.26562 h -0.3125 c -0.53125,0.92187 -0.79687,1.10937 -1.46875,1.46875 l -0.0469,0.21875 h 0.60937 l -0.73437,3.53125 c -0.0156,0.0625 -0.0781,0.4375 -0.0781,0.60937 0,0.32813 0.20313,0.5625 0.65625,0.5625 0.82813,0 1.28125,-0.78125 1.59375,-1.20312 l -0.21875,-0.15625 c -0.375,0.48437 -0.59375,0.64062 -0.90625,0.64062 -0.14062,0 -0.17187,-0.10937 -0.17187,-0.21875 0,-0.1875 0.0625,-0.53125 0.0625,-0.53125 l 0.64062,-3.23437 h 1.04688 z m 0,0"
           style="fill:#000000;fill-opacity:1;fill-rule:nonzero;stroke:none;stroke-width:0.362629"
           aria-label="𝑡" /><path
           id="path100-2"
           d="m -528.31478,324.88199 v -0.4375 h -1.89062 v -12.48437 h 1.89062 v -0.42188 h -3.03125 v 13.34375 z m 0,0"
           style="fill:#000000;fill-opacity:1;fill-rule:nonzero;stroke:none;stroke-width:0.362629"
           aria-label="[" /><path
           id="path101"
           d="m -524.73665,315.38199 -0.0625,0.59375 h 1.20313 l -0.98438,5.4375 c -0.15625,0.76563 -0.54687,3.53125 -1.375,3.53125 -0.54687,0 -0.0625,-1.29687 -0.9375,-1.29687 -0.375,0 -0.59375,0.32812 -0.59375,0.73437 0,0.5 0.375,1.03125 1.28125,1.03125 2,0 2.67188,-3.26562 2.90625,-4.51562 l 0.90625,-4.92188 h 1.35938 l 0.0937,-0.59375 h -1.375 l 0.1875,-1.03125 c 0.25,-1.23437 0.70312,-2.09375 1.48437,-2.09375 0.28125,0 0.28125,0.39063 0.3125,0.73438 0.0469,0.29687 0.1875,0.54687 0.54688,0.54687 0.35937,0 0.64062,-0.21875 0.64062,-0.65625 0,-0.625 -0.48437,-1.04687 -1.3125,-1.04687 -1.3125,0 -1.90625,0.67187 -2.29687,1.35937 -0.34375,0.59375 -0.54688,1.375 -0.73438,2.1875 z m 0,0"
           style="fill:#000000;fill-opacity:1;fill-rule:nonzero;stroke:none;stroke-width:0.362629"
           aria-label="𝑓" /><path
           id="path102-5"
           d="m -517.92415,318.19449 c 0,3.20313 1.53125,5.48438 3.875,6.6875 l 0.23438,-0.40625 c -2.125,-1.39062 -2.92188,-3.35937 -2.92188,-6.28125 0,-2.89062 0.79688,-4.84375 2.92188,-6.25 l -0.23438,-0.39062 c -2.34375,1.20312 -3.875,3.46875 -3.875,6.64062 z m 0,0"
           style="fill:#000000;fill-opacity:1;fill-rule:nonzero;stroke:none;stroke-width:0.362629"
           aria-label="(" /><path
           id="path103-4"
           d="m -508.77571,315.30387 h -1.4375 l 0.39063,-1.75 h -0.4375 c -0.71875,1.26562 -1.07813,1.53125 -2,2 l -0.0625,0.3125 h 0.82812 l -1,4.84375 c -0.0156,0.0937 -0.10937,0.57812 -0.10937,0.82812 0,0.45313 0.28125,0.76563 0.89062,0.76563 1.15625,0 1.76563,-1.07813 2.1875,-1.64063 l -0.29687,-0.21875 c -0.5,0.65625 -0.8125,0.875 -1.23438,0.875 -0.20312,0 -0.25,-0.14062 -0.25,-0.29687 0,-0.25 0.10938,-0.73438 0.10938,-0.73438 l 0.875,-4.42187 h 1.4375 z m 0,0"
           style="fill:#000000;fill-opacity:1;fill-rule:nonzero;stroke:none;stroke-width:0.362629"
           aria-label="𝑡" /><path
           id="path104"
           d="m -503.47102,318.19449 c 0,-3.17187 -1.51563,-5.4375 -3.85938,-6.64062 l -0.23437,0.39062 c 2.125,1.40625 2.90625,3.35938 2.90625,6.25 0,2.92188 -0.78125,4.89063 -2.90625,6.28125 l 0.23437,0.40625 c 2.34375,-1.20312 3.85938,-3.48437 3.85938,-6.6875 z m 4.35156,6.6875 v -13.34375 h -3.03125 v 0.42188 h 1.89062 v 12.48437 h -1.89062 v 0.4375 z"
           style="fill:#000000;fill-opacity:1;fill-rule:nonzero;stroke:none;stroke-width:0.362629"
           aria-label=")]="
           sodipodi:nodetypes="sccsccsccccccccc" /><path
           id="path110"
           d="m -469.40631,302.22575 c -0.32813,0.28125 -0.48438,0.59375 -0.48438,0.98438 0,0.48437 0.25,0.73437 0.625,0.73437 0.48438,0 1.07813,-0.375 1.07813,-1.26562 0,-0.9375 -0.64063,-1.375 -1.51563,-1.375 -3.76562,0 -4.875,9.14062 -5.76562,17.01562 -1.07813,9.51563 -1.6875,16.39063 -4.1875,16.39063 -0.28125,0 -0.42188,-0.0937 -0.42188,-0.0937 v -0.0937 c 0.1875,-0.29688 0.35938,-0.625 0.35938,-1.04688 0,-0.5 -0.23438,-0.8125 -0.67188,-0.8125 -0.54687,0 -0.98437,0.4375 -0.98437,1.29688 0,0.75 0.5,1.46875 1.70312,1.46875 3.20313,0 4.82813,-6.25 6.0625,-17.5625 0.75,-6.96875 1.23438,-15.82813 3.70313,-15.82813 0.34375,0 0.5,0.10938 0.5,0.10938 z m 0,0"
           style="fill:#000000;fill-opacity:1;fill-rule:nonzero;stroke:none;stroke-width:0.362629"
           aria-label="∫" /><path
           id="path113"
           d="m -447.72272,304.98356 -0.0625,0.59375 h 1.20313 l -0.98438,5.4375 c -0.15625,0.76562 -0.54687,3.53125 -1.375,3.53125 -0.54687,0 -0.0625,-1.29688 -0.9375,-1.29688 -0.375,0 -0.59375,0.32813 -0.59375,0.73438 0,0.5 0.375,1.03125 1.28125,1.03125 2,0 2.67188,-3.26563 2.90625,-4.51563 l 0.90625,-4.92187 h 1.35938 l 0.0937,-0.59375 h -1.375 l 0.1875,-1.03125 c 0.25,-1.23438 0.70312,-2.09375 1.48437,-2.09375 0.28125,0 0.28125,0.39062 0.3125,0.73437 0.0469,0.29688 0.1875,0.54688 0.54688,0.54688 0.35937,0 0.64062,-0.21875 0.64062,-0.65625 0,-0.625 -0.48437,-1.04688 -1.3125,-1.04688 -1.3125,0 -1.90625,0.67188 -2.29687,1.35938 -0.34375,0.59375 -0.54688,1.375 -0.73438,2.1875 z m 0,0"
           style="fill:#000000;fill-opacity:1;fill-rule:nonzero;stroke:none;stroke-width:0.362629"
           aria-label="𝑓" /><path
           id="path114-2"
           d="m -440.69147,306.24528 c 0.67188,-1.23438 2.03125,-3.9375 2.26563,-4.5625 0.0469,-0.14063 0.0937,-0.39063 0.0937,-0.51563 0,-0.53125 -0.34375,-0.76562 -0.73438,-0.76562 -0.32812,0 -0.65625,0.10937 -0.82812,0.67187 -0.20313,0.64063 -0.89063,3.6875 -1.15625,5.03125 z m 0,0"
           style="fill:#000000;fill-opacity:1;fill-rule:nonzero;stroke:none;stroke-width:0.362629"
           aria-label="′" /><path
           id="path115-2"
           d="m -436.55085,307.79606 c 0,3.20312 1.53125,5.48437 3.875,6.6875 l 0.23437,-0.40625 c -2.125,-1.39063 -2.92187,-3.35938 -2.92187,-6.28125 0,-2.89063 0.79687,-4.84375 2.92187,-6.25 l -0.23437,-0.39063 c -2.34375,1.20313 -3.875,3.46875 -3.875,6.64063 z m 0,0"
           style="fill:#000000;fill-opacity:1;fill-rule:nonzero;stroke:none;stroke-width:0.362629"
           aria-label="(" /><path
           id="path116"
           d="m -430.23053,310.76481 c 0,0.67187 0.28125,1.125 0.93749,1.125 0.98438,0 1.59375,-0.46875 2.10938,-1.17188 l -0.20313,-0.23437 c -0.25,0.1875 -0.53125,0.39062 -1.09375,0.39062 -0.48437,0 -0.59375,-0.4375 -0.59375,-0.875 0,-0.6875 0.0781,-1.39062 0.85938,-3.85937 0.59375,0.0156 0.98437,0.0312 1.21875,0.0312 1.01562,0 1.48437,-0.60938 1.625,-1.0625 l -0.0312,-0.20313 c -0.45312,0.0312 -0.9375,0.0625 -1.4375,0.0625 -0.60937,0 -1.29687,-0.0469 -2,-0.0469 -1.23437,0 -2.23437,0.42187 -2.85937,1.70312 l 0.3125,0.21875 c 0.5,-0.59375 0.78125,-0.75 1.76562,-0.75 0.25,-0.0156 0.46875,0 0.79688,0.0156 -0.8125,2.04687 -1.40625,3.67187 -1.40625,4.65625 z m 0,0"
           style="fill:#000000;fill-opacity:1;fill-rule:nonzero;stroke:none;stroke-width:0.362629"
           aria-label="𝜏" /><path
           id="path117-4"
           d="m -420.336,307.79606 c 0,-3.17188 -1.51563,-5.4375 -3.85938,-6.64063 l -0.23437,0.39063 c 2.125,1.40625 2.90625,3.35937 2.90625,6.25 0,2.92187 -0.78125,4.89062 -2.90625,6.28125 l 0.23437,0.40625 c 2.34375,-1.20313 3.85938,-3.48438 3.85938,-6.6875 z m 0,0"
           style="fill:#000000;fill-opacity:1;fill-rule:nonzero;stroke:none;stroke-width:0.362629"
           aria-label=")" /><g
           id="g473"><path
             id="path111-6"
             d="m -463.73835,298.77653 h -1.04688 l 0.28125,-1.26562 h -0.3125 c -0.53125,0.92187 -0.79687,1.10937 -1.46875,1.46875 l -0.0469,0.21875 h 0.60937 l -0.73437,3.53125 c -0.0156,0.0625 -0.0781,0.4375 -0.0781,0.60937 0,0.32813 0.20313,0.5625 0.65625,0.5625 0.82813,0 1.28125,-0.78125 1.59375,-1.20312 l -0.21875,-0.15625 c -0.375,0.48437 -0.59375,0.64062 -0.90625,0.64062 -0.14062,0 -0.17187,-0.10937 -0.17187,-0.21875 0,-0.1875 0.0625,-0.53125 0.0625,-0.53125 l 0.64062,-3.23437 h 1.04688 z m 0,0"
             style="fill:#000000;fill-opacity:1;fill-rule:nonzero;stroke:none;stroke-width:0.362629"
             aria-label="𝑡" /><path
             id="path112-9"
             d="m -469.98444,333.81559 c 0,-2.1875 -0.95312,-3.45312 -2.32812,-3.45312 -1.53125,0 -2.35938,1.40625 -2.35938,3.42187 0,1.89063 0.625,3.51563 2.34375,3.51563 1.67188,0 2.34375,-1.65625 2.34375,-3.48438 z m -1.03125,0.0781 c 0,2.03125 -0.46875,3.03125 -1.3125,3.03125 -0.84375,0 -1.3125,-1.01563 -1.3125,-3.07813 0,-2.10937 0.46875,-3.10937 1.29688,-3.10937 0.875,0 1.32812,0.98437 1.32812,3.15625 z m 0,0"
             style="fill:#000000;fill-opacity:1;fill-rule:nonzero;stroke:none;stroke-width:0.362629"
             aria-label="0" /><path
             id="path118-7"
             d="m -458.50499,318.42656 h 46.69333"
             style="fill:none;stroke:#000000;stroke-width:0.269071;stroke-linecap:butt;stroke-linejoin:miter;stroke-miterlimit:10;stroke-dasharray:none;stroke-opacity:1" /></g><path
           id="path119"
           d="m -457.87897,329.69059 c 0,3.20312 1.53125,5.48437 3.875,6.6875 l 0.23438,-0.40625 c -2.125,-1.39063 -2.92188,-3.35938 -2.92188,-6.28125 0,-2.89063 0.79688,-4.84375 2.92188,-6.25 l -0.23438,-0.39063 c -2.34375,1.20313 -3.875,3.46875 -3.875,6.64063 z m 0,0"
           style="fill:#000000;fill-opacity:1;fill-rule:nonzero;stroke:none;stroke-width:0.362629"
           aria-label="(" /><path
           id="path120-7"
           d="m -448.73444,326.79996 h -1.4375 l 0.39062,-1.75 h -0.4375 c -0.71875,1.26563 -1.07812,1.53125 -2,2 l -0.0625,0.3125 h 0.82813 l -1,4.84375 c -0.0156,0.0937 -0.10938,0.57813 -0.10938,0.82813 0,0.45312 0.28125,0.76562 0.89063,0.76562 1.15625,0 1.76562,-1.07812 2.1875,-1.64062 l -0.29688,-0.21875 c -0.5,0.65625 -0.8125,0.875 -1.23437,0.875 -0.20313,0 -0.25,-0.14063 -0.25,-0.29688 0,-0.25 0.10937,-0.73437 0.10937,-0.73437 l 0.875,-4.42188 h 1.4375 z m 0,0"
           style="fill:#000000;fill-opacity:1;fill-rule:nonzero;stroke:none;stroke-width:0.362629"
           aria-label="𝑡" /><path
           id="path121-5"
           d="m -435.16413,330.40934 v -1 h -8.67188 v 1 z m 0,0"
           style="fill:#000000;fill-opacity:1;fill-rule:nonzero;stroke:none;stroke-width:0.362629"
           aria-label="−" /><path
           id="path122"
           d="m -429.26959,332.65934 c 0,0.67187 0.28125,1.125 0.9375,1.125 0.98437,0 1.59375,-0.46875 2.10937,-1.17188 l -0.20312,-0.23437 c -0.25,0.1875 -0.53125,0.39062 -1.09375,0.39062 -0.48438,0 -0.59375,-0.4375 -0.59375,-0.875 0,-0.6875 0.0781,-1.39062 0.85937,-3.85937 0.59375,0.0156 0.98438,0.0312 1.21875,0.0312 1.01563,0 1.48438,-0.60938 1.625,-1.0625 l -0.0312,-0.20313 c -0.45312,0.0312 -0.9375,0.0625 -1.4375,0.0625 -0.60937,0 -1.29687,-0.0469 -2,-0.0469 -1.23437,0 -2.23437,0.42187 -2.85937,1.70312 l 0.3125,0.21875 c 0.5,-0.59375 0.78125,-0.75 1.76562,-0.75 0.25,-0.0156 0.46875,0 0.79688,0.0156 -0.8125,2.04687 -1.40625,3.67187 -1.40625,4.65625 z m 0,0"
           style="fill:#000000;fill-opacity:1;fill-rule:nonzero;stroke:none;stroke-width:0.362629"
           aria-label="𝜏" /><path
           id="path123-4"
           d="m -419.37897,329.69059 c 0,-3.17188 -1.51562,-5.4375 -3.85937,-6.64063 l -0.23438,0.39063 c 2.125,1.40625 2.90625,3.35937 2.90625,6.25 0,2.92187 -0.78125,4.89062 -2.90625,6.28125 l 0.23438,0.40625 c 2.34375,-1.20313 3.85937,-3.48438 3.85937,-6.6875 z m 0,0"
           style="fill:#000000;fill-opacity:1;fill-rule:nonzero;stroke:none;stroke-width:0.362629"
           aria-label=")" /><path
           id="path124-8"
           d="m -413.05866,323.37028 c 0,-0.85938 -0.5625,-1.39063 -1.32813,-1.39063 -2.375,0 -3.03125,3.23438 -3.59375,6.3125 -0.21875,1.20313 -0.45312,2.39063 -0.71875,3.59375 l 0.14063,0.0156 c 1.35937,-0.0469 1.10937,-1.54688 1.23437,-3.1875 h 0.0781 c 0.21875,0.39062 0.64062,1 1.45312,1 1.01563,0 2.25,-0.51563 2.25,-2.21875 0,-1.0625 -0.67187,-1.8125 -1.29687,-2.04688 v -0.0469 c 0.85937,-0.32813 1.78125,-0.92188 1.78125,-2.03125 z m -2.84375,5.51562 c -0.79688,0 -1.26563,-0.51562 -1.26563,-1.34375 0,-1.10937 0.39063,-4.73437 2.48438,-4.73437 0.45312,0 0.82812,0.26562 0.82812,0.9375 0,1.125 -1.21875,1.4375 -1.48437,1.4375 -0.0312,0 -0.5,-0.0469 -0.59375,-0.0469 -0.17188,0 -0.28125,0.23438 -0.28125,0.46875 0,0.23438 0.125,0.4375 0.23437,0.4375 0.125,0 0.40625,-0.17187 0.79688,-0.40625 0.21875,0.15625 0.92187,0.625 0.92187,1.73438 0,1.375 -0.96875,1.51562 -1.64062,1.51562 z m 0,0"
           style="fill:#dc143c;fill-opacity:1;fill-rule:nonzero;stroke:none;stroke-width:0.362629"
           aria-label="𝛽" /><path
           id="path125"
           d="m -400.10554,311.92887 h -0.3125 l -1.98437,0.15625 v 0.375 c 0,0 0.25,-0.0312 0.5,-0.0312 0.39062,0 0.46875,0.25 0.46875,0.4375 0,0.23438 -0.0469,0.48438 -0.0469,0.48438 l -0.48437,2.43749 h -0.0312 c -0.35938,-0.35937 -0.84375,-0.57812 -1.45313,-0.57812 -2.17187,0 -3.78125,2.21875 -3.79687,4.96875 0,1.46875 0.76562,2.17187 1.71875,2.17187 0.90625,0 1.79687,-0.51562 2.51562,-1.40625 h 0.125 c -0.0312,0.17188 -0.0781,0.45313 -0.0781,0.625 0,0.45313 0.3125,0.75 0.875,0.75 0.98437,0 1.51562,-0.84375 2,-1.54687 l -0.28125,-0.21875 c -0.20313,0.26562 -0.57813,0.75 -1.09375,0.75 -0.15625,0 -0.25,-0.0781 -0.25,-0.28125 0,-0.1875 0.0781,-0.60938 0.0781,-0.60938 z m -2.625,7.6875 c -0.25,0.90625 -1.14062,1.78125 -2.09375,1.78125 -0.6875,0 -1.14062,-0.375 -1.14062,-1.65625 0,-1.92188 0.92187,-3.98438 2.4375,-3.98438 0.65625,0 1.21875,0.46875 1.21875,1.4375 0,0.32813 -0.125,1.29688 -0.42188,2.42188 z m 5.15235,1.54687 c 0,0.67188 0.28125,1.125 0.9375,1.125 0.98437,0 1.59375,-0.46875 2.10937,-1.17187 l -0.20312,-0.23438 c -0.25,0.1875 -0.53125,0.39063 -1.09375,0.39063 -0.48438,0 -0.59375,-0.4375 -0.59375,-0.875 0,-0.6875 0.0781,-1.39063 0.85937,-3.85938 0.59375,0.0156 0.98438,0.0312 1.21875,0.0312 1.01563,0 1.48437,-0.60937 1.625,-1.0625 l -0.0312,-0.20312 c -0.45313,0.0312 -0.9375,0.0625 -1.4375,0.0625 -0.60938,0 -1.29688,-0.0469 -2,-0.0469 -1.23438,0 -2.23438,0.42188 -2.85938,1.70313 l 0.3125,0.21875 c 0.5,-0.59375 0.78125,-0.75 1.76563,-0.75 0.25,-0.0156 0.46875,0 0.79687,0.0156 -0.8125,2.04688 -1.40625,3.67188 -1.40625,4.65625 z"
           style="fill:#000000;fill-opacity:1;fill-rule:nonzero;stroke:none;stroke-width:0.362629"
           aria-label="𝑑𝜏,"
           sodipodi:nodetypes="ccccsscccscsccssccsscccsssscssccsscsccssccccss" /></g><text
         xml:space="preserve"
         id="text4544-0-0-5"
         style="font-style:normal;font-variant:normal;font-weight:normal;font-stretch:normal;font-size:56px;font-family:'Liberation Sans';-inkscape-font-specification:'Liberation Sans';font-variant-ligatures:normal;font-variant-caps:normal;font-variant-numeric:normal;font-variant-east-asian:normal;writing-mode:lr-tb;direction:ltr;white-space:pre;shape-inside:url(#rect4544-1-9-3-4);display:inline;fill:#000000;fill-opacity:1;stroke:none;stroke-width:1.81767;stroke-linecap:square;stroke-opacity:0.113725"
         transform="matrix(1.1003075,0,0,1.1003075,1793.7244,1062.1754)"><tspan
           x="90.230469"
           y="544.55748"
           id="tspan5"><tspan
   style="font-family:'STIX Two Math';-inkscape-font-specification:'STIX Two Math'"
   id="tspan4">∝</tspan>
</tspan><tspan
           x="90.230469"
           y="615.32775"
           id="tspan6"> </tspan></text></g></g></svg>
