<svg fill="#cccccc" xmlns="http://www.w3.org/2000/svg" xmlns:xlink="http://www.w3.org/1999/xlink" xmlns:inkscape="http://www.inkscape.org/namespaces/inkscape" version="1.1" width="338" height="254" viewBox="0 0 338 254">
<defs>
<path id="font_1_1" d="M.044921876 .23046875 .13427735 .23828125C.13850911 .20247396 .14835613 .1730957 .16381836 .15014649 .1792806 .12719727 .20328777 .10864258 .23583985 .09448242 .26839195 .080322269 .30501304 .07324219 .34570313 .07324219 .38183595 .07324219 .41373698 .07861328 .44140626 .08935547 .46907554 .100097659 .4896647 .11482748 .5031738 .13354492 .5166829 .15226238 .5234375 .17263794 .5234375 .19467163 .5234375 .21703084 .51692709 .23655193 .50390627 .25323487 .4908854 .26992799 .46940104 .28396098 .43945313 .29533387 .4202474 .3028005 .37776695 .31440736 .31201173 .33015443 .24625652 .3459015 .20019531 .36078898 .17382813 .3748169 .13964844 .39275108 .11417643 .41500855 .09741211 .44158937 .08064779 .46817018 .072265628 .4979299 .072265628 .53086856 .072265628 .5670726 .08251953 .60091146 .103027347 .63238528 .123535159 .66385909 .15348308 .6877492 .1928711 .7040558 .23225911 .72036239 .27604167 .7285156 .32421876 .7285156 .37727867 .7285156 .42407228 .7199707 .4645996 .70288088 .50512698 .685791 .5362956 .66064456 .55810549 .6274414 .57991537 .5942383 .5916341 .5566406 .5932617 .51464846L.5024414 .5078125C.4975586 .5525818 .48103843 .58639529 .45288087 .6092529 .4247233 .6321208 .38313804 .6435547 .328125 .6435547 .27083335 .6435547 .22908528 .6330821 .20288086 .61213687 .17667644 .5912018 .16357422 .5659587 .16357422 .5364075 .16357422 .5107625 .17285156 .48965965 .19140625 .47309876 .20963542 .45653788 .25724284 .4395701 .33422853 .42219544 .4112142 .40483094 .46402995 .38965354 .49267579 .3766632 .53434249 .357488 .5651042 .33320109 .58496096 .3038025 .6048177 .2744039 .6147461 .24053955 .6147461 .20220948 .6147461 .16419475 .6038411 .12837728 .58203127 .09475708 .5602214 .061136884 .52888998 .03498332 .4880371 .016296387 .44718424-.002380371 .40120445-.01171875 .35009767-.01171875 .285319-.01171875 .2310384-.0022786458 .18725586 .016601563 .14347331 .03548177 .10913086 .06388346 .084228519 .10180664 .059326173 .13972982 .046223958 .18261719 .044921876 .23046875Z"/>
<path id="font_1_2" d="M.06591797-.19921875V.5185547H.1459961V.45069886C.1648763 .4772288 .18619792 .49712119 .20996094 .510376 .23372396 .52364096 .26253257 .53027346 .29638673 .53027346 .34065757 .53027346 .37972007 .5188802 .41357423 .49609376 .44742839 .47330729 .47298179 .4411621 .49023438 .3996582 .507487 .3581543 .5161133 .31266276 .5161133 .2631836 .5161133 .2101237 .5065918 .16235352 .48754884 .11987305 .46850587 .07739258 .44083659 .044840497 .40454103 .022216797 .36824546-.00040690104 .33007813-.01171875 .29003907-.01171875 .2607422-.01171875 .23445638-.005533854 .21118164 .0068359377 .1879069 .019205729 .16878255 .03483073 .1538086 .053710939V-.19921875H.06591797M.14550781 .25610353C.14550781 .18945313 .15901692 .14019776 .18603516 .1083374 .21305339 .07647705 .24576824 .060546876 .2841797 .060546876 .3232422 .060546876 .35668946 .077046718 .38452149 .11004639 .41235353 .14304607 .42626954 .19417317 .42626954 .26342774 .42626954 .3294271 .41267906 .3788452 .38549806 .41168214 .35831706 .44451905 .32584635 .4609375 .28808595 .4609375 .25065104 .4609375 .2175293 .4434611 .1887207 .4085083 .15991211 .3735555 .14550781 .3227539 .14550781 .25610353Z"/>
<path id="font_1_3" d="M.42089845 .16796875 .51171877 .15625C.49739585 .103037517 .47086589 .06173706 .4321289 .032348634 .39339195 .0029703777 .34391276-.01171875 .2836914-.01171875 .20784505-.01171875 .14770508 .01163737 .103271488 .05834961 .05883789 .10506185 .036621095 .17057292 .036621095 .2548828 .036621095 .3421224 .05908203 .40983073 .104003909 .4580078 .14892578 .5061849 .20719402 .53027346 .2788086 .53027346 .34814454 .53027346 .40478517 .5067088 .44873048 .45957948 .49267579 .41246034 .51464846 .34616599 .51464846 .2606964 .51464846 .25549827 .51448568 .247701 .51416018 .23730469H.1274414C.13069661 .18017578 .14680989 .13643392 .17578125 .1060791 .20475261 .07572428 .24088542 .060546876 .2841797 .060546876 .31640626 .060546876 .34391276 .06908671 .36669923 .08616638 .3894857 .103256229 .4075521 .13052368 .42089845 .16796875M.13232422 .3095703H.421875C.41796876 .3530477 .40690104 .38565574 .38867188 .4073944 .3606771 .4411367 .3243815 .4580078 .27978517 .4580078 .23942058 .4580078 .20548503 .4445394 .17797852 .41760255 .150472 .39067588 .1352539 .35466514 .13232422 .3095703Z"/>
<path id="font_1_4" d="M.40429688 .19042969 .49072267 .17871094C.48128257 .119140628 .45711265 .072509769 .4182129 .03881836 .37931315 .005126953 .33154298-.01171875 .27490235-.01171875 .2039388-.01171875 .14689128 .011474609 .103759769 .057861329 .060628255 .10424805 .0390625 .17073567 .0390625 .25732423 .0390625 .3133138 .048339845 .3623047 .06689453 .40429688 .08544922 .44628907 .11368815 .4777832 .15161133 .4987793 .1895345 .5197754 .23079427 .53027346 .27539063 .53027346 .33170573 .53027346 .37776695 .5161133 .41357423 .48779298 .4493815 .45948283 .47233073 .419281 .48242188 .3671875L.39697267 .35351563C.38883464 .3881836 .37443034 .41426597 .35375978 .4317627 .3330892 .44925944 .30810548 .4580078 .2788086 .4580078 .23453777 .4580078 .1985677 .44213868 .17089844 .4104004 .14322917 .3786621 .12939453 .32845054 .12939453 .25976563 .12939453 .19010417 .14274089 .13948567 .1694336 .107910159 .1961263 .07633463 .23095703 .060546876 .27392579 .060546876 .308431 .060546876 .3372396 .07116699 .36035157 .09240723 .38346354 .11364746 .39811198 .14632161 .40429688 .19042969Z"/>
<path id="font_1_5" d="M.2578125 .07861328 .2705078 .0009765625C.24576824-.004231771 .22363281-.0068359377 .20410156-.0068359377 .17220052-.0068359377 .14746094-.0017903646 .12988281 .008300781 .11230469 .018391928 .0999349 .031656904 .09277344 .048095704 .08561198 .06453451 .08203125 .099121097 .08203125 .15185547V.4501953H.017578125V.5185547H.08203125V.64697268L.1694336 .69970706V.5185547H.2578125V.4501953H.1694336V.14697266C.1694336 .121907558 .17097982 .10579427 .17407227 .09863281 .17716472 .09147135 .18221028 .08577474 .18920899 .08154297 .19620769 .077311199 .20621746 .07519531 .21923828 .07519531 .2290039 .07519531 .24186199 .07633463 .2578125 .07861328Z"/>
<path id="font_1_6" d="M.064941409 0V.5185547H.14404297V.4399414C.16422527 .47672526 .18286133 .50097659 .19995117 .5126953 .21704102 .52441409 .23583985 .53027346 .25634767 .53027346 .28597007 .53027346 .31608073 .5208333 .3466797 .5019531L.31640626 .4204712C.29492188 .43312583 .2734375 .43945313 .25195313 .43945313 .23274739 .43945313 .2154948 .43367515 .20019531 .42211915 .18489583 .41056315 .17399089 .39453126 .16748047 .37402345 .15771485 .34277345 .15283203 .30859376 .15283203 .27148438V0H.064941409Z"/>
<path id="font_1_7" d="M.40429688 .06542969C.37174479 .03722127 .34041343 .017308554 .31030274 .0056915285 .28019206-.0059153239 .24788411-.01171875 .2133789-.01171875 .15641277-.01171875 .11263021 .0021972657 .08203125 .030029297 .051432294 .057861329 .036132814 .09342448 .036132814 .13671875 .036132814 .16210938 .04191081 .18530274 .053466798 .20629883 .06502279 .22729492 .08015951 .24414063 .09887695 .25683595 .1175944 .26953126 .13867188 .27913413 .16210938 .28564454 .17936199 .2902018 .20540364 .29459635 .24023438 .29882813 .3111979 .30729167 .363444 .3173828 .39697267 .32910157 .3972982 .34109498 .39746095 .3487142 .39746095 .35195924 .39746095 .38763429 .38916017 .4127655 .3725586 .4273529 .35009767 .44713847 .31673179 .45703126 .27246095 .45703126 .2311198 .45703126 .20060222 .44978843 .1809082 .43530274 .16121419 .42081706 .14664714 .39518229 .13720703 .35839845L.05126953 .3701172C.05908203 .40701295 .0719401 .43680827 .08984375 .45950318 .1077474 .4821981 .1336263 .4996643 .16748047 .51190188 .20133464 .5241496 .24055989 .53027346 .28515626 .53027346 .3294271 .53027346 .36539714 .52504476 .3930664 .5145874 .4207357 .5041402 .44108073 .49099223 .45410157 .47514344 .4671224 .4593048 .47623698 .43929545 .4814453 .41511537 .484375 .40009056 .48583985 .3731028 .48583985 .33415223V.21730042C.48583985 .13582866 .48771159 .084228519 .49145509 .0625 .49519859 .040771486 .5026042 .01993815 .5136719 0H.421875C.4127604 .01864624 .40690104 .040456136 .40429688 .06542969M.39697267 .25976563C.36507163 .24680583 .31722007 .23578899 .25341798 .22671509 .21728516 .22153728 .19173177 .21570842 .17675781 .20922852 .16178386 .20274861 .15022786 .1932729 .14208985 .18080139 .13395183 .16832988 .12988281 .15447998 .12988281 .13925171 .12988281 .11592611 .13875325 .09648641 .15649414 .08093262 .17423503 .065389 .20019531 .057617189 .234375 .057617189 .26822917 .057617189 .29833985 .06499735 .32470704 .07975769 .35107423 .0945282 .37044273 .114705409 .3828125 .1402893 .3922526 .16003418 .39697267 .18917339 .39697267 .22770691V.25976563Z"/>
<path id="font_1_8" d="M.063964847 0V.7158203H.15185547V0H.063964847Z"/>
<path id="font_1_9" d=""/>
<path id="font_1_10" d="M.0073242189 0 .19692993 .26812745 .021484375 .5185547H.13134766L.2109375 .39770509C.22591146 .3743795 .23795574 .35491944 .24707031 .33932496 .26139323 .36012779 .2745768 .37890116 .2866211 .39564515L.37402345 .5185547H.4790039L.304245 .27043153 .49267579 0H.38476563L.2783203 .16091919 .25 .20158386 .11376953 0H.0073242189Z"/>
<path id="font_1_11" d="M.033203126 .25927735C.033203126 .355306 .059895833 .42643229 .11328125 .47265626 .15787761 .5110677 .21223958 .53027346 .2763672 .53027346 .34765626 .53027346 .40592448 .5069173 .45117188 .46020509 .49641929 .41349284 .51904299 .34895835 .51904299 .26660157 .51904299 .1998698 .5090332 .14737956 .48901368 .10913086 .46899415 .070882167 .43986003 .041178388 .40161134 .020019532 .36336265-.0011393229 .3216146-.01171875 .2763672-.01171875 .20377605-.01171875 .1451009 .011555989 .1003418 .05810547 .055582685 .104654949 .033203126 .17171224 .033203126 .25927735M.123535159 .2590332C.123535159 .19270833 .13802083 .14304607 .16699219 .11004639 .19596355 .077046718 .23242188 .060546876 .2763672 .060546876 .31998698 .060546876 .35628257 .07712809 .3852539 .11029053 .41422526 .14345296 .42871095 .19401042 .42871095 .2619629 .42871095 .32600913 .4141439 .37453208 .38500978 .40753175 .35587565 .4405314 .31966148 .45703126 .2763672 .45703126 .23242188 .45703126 .19596355 .4406128 .16699219 .40777589 .13802083 .37493897 .123535159 .32535807 .123535159 .2590332Z"/>
<path id="font_1_12" d="M.06591797 0V.5185547H.14501953V.44482423C.18310547 .50179037 .23811849 .53027346 .3100586 .53027346 .3413086 .53027346 .3700358 .5246582 .39624024 .51342776 .42244468 .50219729 .44205729 .48746745 .45507813 .46923829 .46809898 .45100913 .47721354 .42936198 .48242188 .40429688 .4856771 .38802085 .4873047 .35953776 .4873047 .31884767V0H.39941407V.3154297C.39941407 .35123698 .3959961 .37801109 .38916017 .39575196 .38232423 .41349284 .37019859 .42765299 .3527832 .43823243 .33536784 .44881187 .3149414 .45410157 .2915039 .45410157 .254069 .45410157 .22176107 .44222007 .19458008 .41845704 .1673991 .394694 .1538086 .34960938 .1538086 .28320313V0H.06591797Z"/>
<path id="font_2_1" d="M.5283203 .3125H.055664064V.39453126H.5283203V.3125Z"/>
<path id="font_1_13" d="M.50341799 .08496094V0H.030273438C.029622397 .0211792 .033040365 .041549684 .040527345 .06111145 .052571615 .09336853 .07185873 .12513733 .09838867 .15641785 .12491862 .18770854 .1632487 .22387696 .2133789 .2649231 .29117839 .32877604 .34375 .37928263 .37109376 .41644288 .3984375 .45360313 .41210938 .488739 .41210938 .5218506 .41210938 .5565796 .3996582 .5858714 .37475587 .60972598 .34985353 .6335805 .3173828 .6455078 .27734376 .6455078 .23502605 .6455078 .20117188 .6328125 .17578125 .6074219 .15039063 .58203127 .13753255 .546875 .13720703 .5019531L.046875 .51171877C.053059896 .57910159 .07633463 .63045248 .11669922 .6657715 .1570638 .7010905 .21126302 .71875 .27929688 .71875 .34798179 .71875 .40234376 .6997121 .4423828 .66163638 .48242188 .6235606 .5024414 .57637026 .5024414 .5200653 .5024414 .49142967 .49658204 .4632772 .48486329 .4356079 .47314454 .40794883 .45369468 .37882487 .42651368 .34823609 .39933268 .3176473 .35416667 .27570597 .29101563 .22241211 .23828125 .17822266 .20442708 .14824422 .18945313 .1324768 .17447917 .11671957 .16210938 .10088094 .15234375 .08496094H.50341799Z"/>
<path id="font_1_14" d="M.09082031 0V.10058594H.19091797V0H.09082031Z"/>
<path id="font_1_15" d="M.041503908 .35327149C.041503908 .43784587 .05021159 .50591537 .06762695 .55747988 .08504232 .6090444 .11092123 .6488139 .14526367 .67678835 .17960613 .70476278 .22281902 .71875 .27490235 .71875 .3133138 .71875 .34700523 .711024 .37597657 .6955719 .4049479 .6801198 .4288737 .6578369 .4477539 .62872317 .46663413 .5996094 .4814453 .56414797 .4921875 .52233889 .5029297 .48053996 .5083008 .42418418 .5083008 .35327149 .5083008 .26934815 .49967448 .2016042 .48242188 .15003968 .46516929 .098475139 .43937174 .058624269 .4050293 .03048706 .37068687 .0023498536 .3273112-.01171875 .27490235-.01171875 .20589192-.01171875 .1516927 .013005574 .11230469 .062454225 .065104167 .12198385 .041503908 .21892293 .041503908 .35327149M.13183594 .35302735C.13183594 .2357076 .14558919 .15762837 .1730957 .11878967 .20060222 .07996114 .23453777 .060546876 .27490235 .060546876 .31526695 .060546876 .34920249 .08004252 .37670899 .11903381 .40421549 .15803528 .41796876 .23603313 .41796876 .35302735 .41796876 .4706726 .40421549 .5488281 .37670899 .5874939 .34920249 .62616989 .3149414 .6455078 .27392579 .6455078 .2335612 .6455078 .20133464 .6284485 .1772461 .59432986 .14697266 .55078127 .13183594 .47034709 .13183594 .35302735Z"/>
<path id="font_1_16" d="M.3725586 0H.28466798V.5600586C.26350913 .5398763 .23575847 .51969406 .20141602 .49951173 .16707357 .47932945 .13623047 .46419273 .10888672 .45410157V.5390625C.15804036 .5621745 .20100911 .59016928 .23779297 .6230469 .2745768 .6559245 .3006185 .6878255 .31591798 .71875H.3725586V0Z"/>
<path id="font_1_17" d="M.17675781 .38893128C.14029949 .4022471 .11328125 .4212443 .095703128 .44592286 .078125 .47061158 .06933594 .50016787 .06933594 .5345917 .06933594 .5865631 .08805338 .630249 .12548828 .6656494 .16292317 .7010498 .21272786 .71875 .27490235 .71875 .33740235 .71875 .3876953 .7006429 .42578126 .6644287 .4638672 .62821456 .48291017 .5841268 .48291017 .5321655 .48291017 .4990336 .47420249 .47020469 .4567871 .4456787 .43937174 .42116294 .4129232 .4022471 .3774414 .38893128 .42138673 .37459819 .45483399 .35147096 .4777832 .31954957 .5007324 .28762818 .51220706 .2495168 .51220706 .20521546 .51220706 .14397685 .4905599 .09250895 .44726563 .050811769 .40397135 .009124756 .34700523-.01171875 .2763672-.01171875 .20572917-.01171875 .14876302 .009206136 .10546875 .05105591 .06217448 .092915859 .040527345 .14511617 .040527345 .20765686 .040527345 .25423686 .052327474 .2932434 .075927738 .3246765 .09952799 .35610963 .13313802 .37752787 .17675781 .38893128M.15917969 .5375824C.15917969 .5038808 .17008464 .47633363 .19189453 .4549408 .21370442 .43354798 .24202474 .42285157 .27685548 .42285157 .31070964 .42285157 .3384603 .43346659 .36010743 .45469667 .38175456 .47592674 .39257813 .50193789 .39257813 .5327301 .39257813 .56481429 .38142906 .5917918 .35913087 .6136627 .33683268 .6355438 .30908204 .6464844 .2758789 .6464844 .24235027 .6464844 .21451824 .63578799 .19238281 .61439517 .17024739 .5930023 .15917969 .5673981 .15917969 .5375824M.13085938 .20703125C.13085938 .18196614 .13680013 .15771485 .14868164 .13427735 .16056316 .110839847 .17822266 .092692058 .20166016 .079833988 .22509766 .066975917 .25032554 .060546876 .27734376 .060546876 .31933595 .060546876 .3540039 .07405599 .38134767 .10107422 .4086914 .12809246 .42236329 .16243489 .42236329 .20410156 .42236329 .24641927 .40828453 .28141276 .38012696 .30908204 .3519694 .3367513 .31673179 .35058595 .27441407 .35058595 .23307292 .35058595 .19881185 .33691407 .17163086 .3095703 .14444988 .28222657 .13085938 .24804688 .13085938 .20703125Z"/>
<path id="font_1_18" d="M.4975586 .54003909 .41015626 .5332031C.40234376 .5678609 .39127604 .59303286 .37695313 .6087189 .3531901 .6338959 .32389323 .6464844 .2890625 .6464844 .26106773 .6464844 .23649089 .6386922 .21533203 .6231079 .18766277 .6029765 .16585286 .57359316 .14990235 .5349579 .13395183 .4963328 .12565105 .44122315 .125 .3696289 .14615886 .40185548 .17203777 .42578126 .20263672 .44140626 .23323567 .45703126 .26529948 .46484376 .29882813 .46484376 .35742188 .46484376 .40730796 .44327799 .44848634 .40014649 .4896647 .35701499 .5102539 .30126954 .5102539 .23291016 .5102539 .18798828 .50056967 .14624024 .48120118 .107666019 .46183268 .0690918 .43522135 .03955078 .4013672 .019042969 .36751304-.0014648438 .32910157-.01171875 .2861328-.01171875 .21289063-.01171875 .15315755 .015197754 .106933597 .06903076 .060709638 .12287394 .037597658 .2116038 .037597658 .33522035 .037597658 .47347514 .06315104 .57399496 .11425781 .6367798 .15885417 .6914266 .21891277 .71875 .2944336 .71875 .3507487 .71875 .39689128 .70291647 .43286134 .6712494 .4688314 .63959249 .49039714 .5958557 .4975586 .54003909M.13867188 .23216248C.13867188 .2019399 .1451009 .17301433 .15795899 .14538574 .17081706 .117757167 .18880208 .096710208 .21191406 .08224487 .23502605 .06777954 .25927735 .060546876 .28466798 .060546876 .32177735 .060546876 .35367839 .0754954 .3803711 .105392459 .4070638 .13529969 .42041017 .17593384 .42041017 .22729492 .42041017 .27669273 .40722657 .3156128 .38085938 .34405519 .3544922 .37249757 .32128907 .38671876 .28125 .38671876 .24153646 .38671876 .20784505 .37249757 .18017578 .34405519 .15250652 .3156128 .13867188 .27831523 .13867188 .23216248Z"/>
<path id="font_1_19" d="M.3232422 0V.171875H.0126953129V.2529297L.33935548 .7158203H.4111328V.2529297H.5078125V.171875H.4111328V0H.3232422M.3232422 .2529297V.5739136L.099121097 .2529297H.3232422Z"/>
<clipPath id="clip_3">
<path d="M331 212H337.5V223H331Z"/>
</clipPath>
<path id="font_1_20" d="M.5878906 .25146485 .6826172 .22753906C.66276046 .14973958 .6270345 .090413417 .57543948 .049560548 .5238444 .008707683 .46077476-.01171875 .38623048-.01171875 .30908204-.01171875 .24633789 .0039876305 .19799805 .03540039 .1496582 .06681315 .11287435 .11230469 .087646488 .171875 .06241862 .23144531 .049804689 .29541017 .049804689 .36376954 .049804689 .4383138 .06404623 .5033366 .0925293 .5588379 .12101237 .6143392 .16153972 .65649417 .21411133 .68530276 .26668296 .7141113 .32454429 .7285156 .3876953 .7285156 .4593099 .7285156 .51953127 .71028646 .5683594 .6738281 .6171875 .6373698 .6512044 .5861003 .67041018 .52001956L.57714846 .49804688C.5605469 .5501302 .5364583 .5880534 .5048828 .6118164 .47330729 .6355794 .43359376 .64746096 .3857422 .64746096 .33072917 .64746096 .28474937 .63427737 .24780274 .60791018 .21085613 .58154299 .18489583 .5461426 .16992188 .501709 .15494792 .4572754 .14746094 .41145835 .14746094 .3642578 .14746094 .3033854 .15633138 .25024415 .17407227 .20483399 .19181316 .15942383 .21940105 .12548828 .25683595 .103027347 .29427085 .080566409 .3347982 .06933594 .37841798 .06933594 .43147788 .06933594 .47639976 .084635417 .5131836 .115234378 .54996749 .14583333 .5748698 .19124349 .5878906 .25146485Z"/>
<path id="font_1_21" d="M.06640625 .6152344V.7158203H.15429688V.6152344H.06640625M.06640625 0V.5185547H.15429688V0H.06640625Z"/>
<path id="font_1_22" d="M.06201172-.20025635 .052246095-.11816406C.07145182-.1233724 .08821615-.12597656 .10253906-.12597656 .12207031-.12597656 .13769531-.12271627 .14941406-.11619568 .16113281-.10967509 .17073567-.10054525 .17822266-.08880615 .18375652-.08000692 .19270833-.058166505 .20507813-.023284913 .20670574-.018391928 .20930989-.011220296 .21289063-.0017700195L.016113282 .5185547H.110839847L.21875 .21817017C.23274739 .18007405 .24527996 .14002483 .25634767 .09802246 .2664388 .13847859 .27848307 .17790222 .29248048 .21629334L.4033203 .5185547H.49121095L.2939453-.008728027C.27278648-.06584676 .25634767-.10517883 .2446289-.12672425 .2290039-.15577698 .21110027-.17707317 .19091797-.1906128 .17073567-.2041626 .14664714-.2109375 .118652347-.2109375 .10172526-.2109375 .082845058-.20737712 .06201172-.20025635Z"/>
<path id="font_1_23" d="M.07324219 0V.7158203H.16796875V.08496094H.5205078V0H.07324219Z"/>
<path id="font_1_24" d="M0-.0126953129 .20751953 .7285156H.27783204L.07080078-.0126953129H0Z"/>
<path id="font_1_25" d="M.041992189 .19042969 .12988281 .20214844C.13997396 .15234375 .15714519 .11645508 .18139649 .09448242 .20564778 .072509769 .2351888 .061523439 .27001954 .061523439 .3113607 .061523439 .3462728 .07582092 .37475587 .10441589 .40323893 .13301087 .41748048 .1684316 .41748048 .2106781 .41748048 .25097148 .40429688 .28420005 .3779297 .31036378 .3515625 .3365275 .31803385 .34960938 .27734376 .34960938 .2607422 .34960938 .24007161 .34635417 .21533203 .33984376L.22509766 .4169922C.23095703 .41634117 .23567708 .41601563 .23925781 .41601563 .27669273 .41601563 .31038413 .42574058 .34033204 .44519044 .37027995 .4646403 .3852539 .4946238 .3852539 .535141 .3852539 .5672353 .37434898 .5938161 .35253907 .6148834 .33072917 .63595077 .30257163 .6464844 .2680664 .6464844 .23388672 .6464844 .20540364 .6357422 .18261719 .6142578 .15983074 .59277346 .1451823 .5605469 .13867188 .5175781L.05078125 .5332031C.061523439 .5921224 .0859375 .6377767 .12402344 .670166 .16210938 .70255538 .20947266 .71875 .26611329 .71875 .30517579 .71875 .34114585 .71039327 .37402345 .6936798 .40690104 .67696639 .43204753 .6541646 .4494629 .62527468 .46687828 .59639486 .47558595 .5657247 .47558595 .53326418 .47558595 .5024312 .46728517 .47435508 .4506836 .44903565 .43408204 .4237264 .40950523 .40360514 .37695313 .38867188 .41927085 .37890626 .45214845 .35864259 .47558595 .32788087 .49902345 .29711915 .5107422 .2586263 .5107422 .21240235 .5107422 .14990235 .48795573 .09692383 .4423828 .053466798 .3968099 .010009766 .33919273-.01171875 .26953126-.01171875 .20670574-.01171875 .15454102 .007044474 .11303711 .044570924 .0715332 .082097377 .047851564 .13071697 .041992189 .19042969Z"/>
<path id="font_1_26" d="M.041503908 .18847656 .13378906 .1953125C.140625 .15055339 .15649414 .11690267 .18139649 .09436035 .20629883 .07181803 .23632813 .060546876 .27148438 .060546876 .3138021 .060546876 .34960938 .0764974 .37890626 .10839844 .40820313 .14029949 .42285157 .18261719 .42285157 .23535156 .42285157 .28548179 .4087728 .32503257 .38061524 .3540039 .35245768 .38297526 .31559245 .39746095 .27001954 .39746095 .24169922 .39746095 .21614583 .39094035 .19335938 .37789918 .17057292 .364858 .15266927 .34794108 .13964844 .32714845L.057128908 .3388672 .12646485 .70703127H.48242188V.6230469H.19677735L.15820313 .43037416C.20117188 .46051536 .24625652 .47558595 .29345704 .47558595 .35595704 .47558595 .4086914 .45391337 .45166017 .41056825 .4946289 .36723329 .5161133 .31151835 .5161133 .24342346 .5161133 .17857361 .49723307 .122528079 .45947267 .075286868 .41357423 .017283122 .35091148-.01171875 .27148438-.01171875 .2063802-.01171875 .15323894 .006556193 .11206055 .04310608 .070882167 .07965597 .04736328 .1281128 .041503908 .18847656Z"/>
<clipPath id="clip_4">
<path d="M75 12H79V204.75H75Z"/>
</clipPath>
<clipPath id="clip_5">
<path d="M61.5 61H325.5V63H61.5Z"/>
</clipPath>
<clipPath id="clip_6">
<path d="M61.5 108H325.5V109H61.5Z"/>
</clipPath>
<clipPath id="clip_7">
<path d="M61.5 154H325.5V156H61.5Z"/>
</clipPath>
<path id="font_1_27" d="M.28173829 0 .0043945314 .7158203H.106933597L.29296876 .19580078C.30794273 .15413411 .32047526 .11507162 .3305664 .07861328 .34163413 .11767578 .3544922 .15673828 .36914063 .19580078L.5625 .7158203H.6591797L.37890626 0H.28173829Z"/>
<path id="font_1_28" d="M.09326172 0V.7158203H.18798828V0H.09326172Z"/>
<path id="font_1_29" d="M.06591797 0V.5185547H.14453125V.44580079C.1608073 .4711914 .18245442 .49161784 .20947266 .5070801 .23649089 .5225423 .2672526 .53027346 .3017578 .53027346 .34016929 .53027346 .37166343 .52229818 .39624024 .50634768 .42081706 .49039714 .43815104 .46809898 .4482422 .43945313 .4892578 .5 .54264327 .53027346 .60839846 .53027346 .65983077 .53027346 .69938156 .5160319 .7270508 .48754884 .75472006 .45906578 .7685547 .4152018 .7685547 .35595704V0H.68115237V.32666017C.68115237 .3618164 .678304 .38712565 .6726074 .4025879 .6669108 .41805015 .6565755 .4305013 .64160159 .4399414 .6266276 .4493815 .6090495 .45410157 .5888672 .45410157 .5524089 .45410157 .52213546 .44197593 .49804688 .4177246 .47395835 .3934733 .46191407 .35465495 .46191407 .30126954V0H.37402345V.33691407C.37402345 .37597657 .36686198 .40527345 .35253907 .4248047 .33821617 .44433595 .31477867 .45410157 .28222657 .45410157 .25748698 .45410157 .23461914 .44759117 .21362305 .4345703 .19262696 .42154948 .17740886 .4025065 .16796875 .3774414 .15852864 .3523763 .1538086 .3162435 .1538086 .26904298V0H.06591797Z"/>
</defs>
<g>
<path d="M0 0H337.5V253.5H0Z" fill="transparent"/>
<path d="M61.5 12H325.5V204.75H61.5Z" fill="transparent"/>
<path stroke-width="1.125" stroke-linecap="round" stroke-miterlimit="1.154701" stroke-linejoin="miter" fill="none" stroke="#e0e0e0" d="M77.031 204.75V12"/>
<path stroke-width="1.125" stroke-linecap="round" stroke-miterlimit="1.154701" stroke-linejoin="miter" fill="none" stroke="#e0e0e0" d="M139.148 204.75V12"/>
<path stroke-width="1.125" stroke-linecap="round" stroke-miterlimit="1.154701" stroke-linejoin="miter" fill="none" stroke="#e0e0e0" d="M201.266 204.75V12"/>
<path stroke-width="1.125" stroke-linecap="round" stroke-miterlimit="1.154701" stroke-linejoin="miter" fill="none" stroke="#e0e0e0" d="M263.383 204.75V12"/>
<path stroke-width="1.125" stroke-linecap="round" stroke-miterlimit="1.154701" stroke-linejoin="miter" fill="none" stroke="#e0e0e0" d="M325.5 204.75V12"/>
<use data-text="S" xlink:href="#font_1_1" transform="matrix(13.5,0,0,-13.5,139.08802,239.55323)"/>
<use data-text="p" xlink:href="#font_1_2" transform="matrix(13.5,0,0,-13.5,148.09252,239.55323)"/>
<use data-text="e" xlink:href="#font_1_3" transform="matrix(13.500011,0,0,-13.5,155.60047,239.55323)"/>
<use data-text="c" xlink:href="#font_1_4" transform="matrix(13.5,0,0,-13.5,163.10852,239.55323)"/>
<use data-text="t" xlink:href="#font_1_5" transform="matrix(13.500011,0,0,-13.5,169.85852,239.55323)"/>
<use data-text="r" xlink:href="#font_1_6" transform="matrix(13.499989,0,0,-13.5,173.60926,239.55323)"/>
<use data-text="a" xlink:href="#font_1_7" transform="matrix(13.499989,0,0,-13.5,178.10475,239.55323)"/>
<use data-text="l" xlink:href="#font_1_8" transform="matrix(13.5,0,0,-13.5,185.61292,239.55323)"/>
<use data-text=" " xlink:href="#font_1_9" transform="matrix(13.500011,0,0,-13.5,188.61217,239.55323)"/>
<use data-text="e" xlink:href="#font_1_3" transform="matrix(13.5,0,0,-13.5,192.36292,239.55323)"/>
<use data-text="x" xlink:href="#font_1_10" transform="matrix(13.5,0,0,-13.5,199.86891,239.55323)"/>
<use data-text="p" xlink:href="#font_1_2" transform="matrix(13.5,0,0,-13.5,206.61891,239.55323)"/>
<use data-text="o" xlink:href="#font_1_11" transform="matrix(13.5,0,0,-13.5,214.12491,239.55323)"/>
<use data-text="n" xlink:href="#font_1_12" transform="matrix(13.5,0,0,-13.5,221.6309,239.55323)"/>
<use data-text="e" xlink:href="#font_1_3" transform="matrix(13.500023,0,0,-13.5,229.14514,239.55323)"/>
<use data-text="n" xlink:href="#font_1_12" transform="matrix(13.5,0,0,-13.5,236.6532,239.55323)"/>
<use data-text="t" xlink:href="#font_1_5" transform="matrix(13.5,0,0,-13.5,244.1592,239.55323)"/>
<use data-text="&#x2212;" xlink:href="#font_2_1" transform="matrix(13.499994,0,0,-13.5,63.70409,222.22119)"/>
<use data-text="2" xlink:href="#font_1_13" transform="matrix(13.5,0,0,-13.5,71.58788,222.22119)"/>
<use data-text="." xlink:href="#font_1_14" transform="matrix(13.5,0,0,-13.5,79.09389,222.22119)"/>
<use data-text="0" xlink:href="#font_1_15" transform="matrix(13.5,0,0,-13.5,82.846889,222.22119)"/>
<use data-text="&#x2212;" xlink:href="#font_2_1" transform="matrix(13.5,0,0,-13.5,125.81739,222.22119)"/>
<use data-text="1" xlink:href="#font_1_16" transform="matrix(13.5,0,0,-13.5,133.70139,222.22119)"/>
<use data-text="." xlink:href="#font_1_14" transform="matrix(13.5,0,0,-13.5,141.20738,222.22119)"/>
<use data-text="8" xlink:href="#font_1_17" transform="matrix(13.5,0,0,-13.5,144.96039,222.22119)"/>
<use data-text="&#x2212;" xlink:href="#font_2_1" transform="matrix(13.499989,0,0,-13.5,187.93939,222.22119)"/>
<use data-text="1" xlink:href="#font_1_16" transform="matrix(13.5,0,0,-13.5,195.82318,222.22119)"/>
<use data-text="." xlink:href="#font_1_14" transform="matrix(13.5,0,0,-13.5,203.32918,222.22119)"/>
<use data-text="6" xlink:href="#font_1_18" transform="matrix(13.5,0,0,-13.5,207.08219,222.22119)"/>
<use data-text="&#x2212;" xlink:href="#font_2_1" transform="matrix(13.5,0,0,-13.5,250.05268,222.22119)"/>
<use data-text="1" xlink:href="#font_1_16" transform="matrix(13.5,0,0,-13.5,257.93669,222.22119)"/>
<use data-text="." xlink:href="#font_1_14" transform="matrix(13.499977,0,0,-13.5,265.44889,222.22119)"/>
<use data-text="4" xlink:href="#font_1_19" transform="matrix(13.5,0,0,-13.5,269.19963,222.22119)"/>
<use data-text="&#x2212;" xlink:href="#font_2_1" transform="matrix(13.5,0,0,-13.5,312.17015,222.22119)"/>
<use data-text="1" xlink:href="#font_1_16" transform="matrix(13.5,0,0,-13.5,320.05415,222.22119)"/>
<use data-text="." xlink:href="#font_1_14" transform="matrix(13.499977,0,0,-13.5,327.56654,222.22119)"/>
<g clip-path="url(#clip_3)">
<use data-text="2" xlink:href="#font_1_13" transform="matrix(13.500023,0,0,-13.5,331.31727,222.22119)"/>
</g>
<use data-text="C" xlink:href="#font_1_20" transform="matrix(0,-13.500011,-13.499999,0,23.364256,147.76099)"/>
<use data-text="o" xlink:href="#font_1_11" transform="matrix(0,-13.499989,-13.499999,0,23.364256,138.0117)"/>
<use data-text="r" xlink:href="#font_1_6" transform="matrix(0,-13.5,-13.499999,0,23.364256,130.50366)"/>
<use data-text="t" xlink:href="#font_1_5" transform="matrix(0,-13.5,-13.499999,0,23.364256,126.00816)"/>
<use data-text="i" xlink:href="#font_1_21" transform="matrix(0,-13.5,-13.499999,0,23.364256,122.255168)"/>
<use data-text="c" xlink:href="#font_1_4" transform="matrix(0,-13.5,-13.499999,0,23.364256,119.25816)"/>
<use data-text="a" xlink:href="#font_1_7" transform="matrix(0,-13.5,-13.499999,0,23.364256,112.50816)"/>
<use data-text="l" xlink:href="#font_1_8" transform="matrix(0,-13.5,-13.499999,0,23.364256,105.00217)"/>
<use data-text="l" xlink:href="#font_1_8" transform="matrix(0,-13.5,-13.499999,0,23.364256,98.25217)"/>
<use data-text="a" xlink:href="#font_1_7" transform="matrix(0,-13.500006,-13.499999,0,23.364256,95.25074)"/>
<use data-text="y" xlink:href="#font_1_22" transform="matrix(0,-13.5,-13.499999,0,23.364256,87.742679)"/>
<use data-text="e" xlink:href="#font_1_3" transform="matrix(0,-13.5,-13.499999,0,23.364256,80.992679)"/>
<use data-text="r" xlink:href="#font_1_6" transform="matrix(0,-13.499994,-13.500007,0,23.364256,73.48462)"/>
<use data-text="L" xlink:href="#font_1_23" transform="matrix(13.499997,0,0,-13.500003,28.475104,43.05759)"/>
<use data-text="2" xlink:href="#font_1_13" transform="matrix(13.499997,0,0,-13.500003,35.981103,43.05759)"/>
<use data-text="/" xlink:href="#font_1_24" transform="matrix(13.499997,0,0,-13.500003,43.487104,43.05759)"/>
<use data-text="3" xlink:href="#font_1_25" transform="matrix(13.500006,0,0,-13.500003,47.24194,43.05759)"/>
<use data-text="L" xlink:href="#font_1_23" transform="matrix(13.500006,0,0,-13.5,39.733884,89.72265)"/>
<use data-text="4" xlink:href="#font_1_19" transform="matrix(13.500006,0,0,-13.5,47.239889,89.72265)"/>
<use data-text="L" xlink:href="#font_1_23" transform="matrix(13.500006,0,0,-13.499989,39.733884,136.3877)"/>
<use data-text="5" xlink:href="#font_1_26" transform="matrix(13.500006,0,0,-13.499989,47.239889,136.3877)"/>
<use data-text="L" xlink:href="#font_1_23" transform="matrix(13.500006,0,0,-13.500011,39.733884,183.05275)"/>
<use data-text="6" xlink:href="#font_1_18" transform="matrix(13.500006,0,0,-13.500011,47.239889,183.05275)"/>
<g clip-path="url(#clip_4)">
<path stroke-width="2.25" stroke-linecap="round" stroke-dasharray="6.75,6.75" stroke-miterlimit="1.154701" stroke-linejoin="miter" fill="none" stroke="#808080" d="M77.031 12V204.75"/>
</g>
<g clip-path="url(#clip_5)">
<path stroke-width=".75" stroke-linecap="round" stroke-miterlimit="1.154701" stroke-linejoin="miter" fill="none" stroke="#808080" d="M61.5 61.711H325.5"/>
</g>
<g clip-path="url(#clip_6)">
<path stroke-width=".75" stroke-linecap="round" stroke-miterlimit="1.154701" stroke-linejoin="miter" fill="none" stroke="#808080" d="M61.5 108.375H325.5"/>
</g>
<g clip-path="url(#clip_7)">
<path stroke-width=".75" stroke-linecap="round" stroke-miterlimit="1.154701" stroke-linejoin="miter" fill="none" stroke="#808080" d="M61.5 155.039H325.5"/>
</g>
<path d="M145.453 20.762H174.93001V24.495999H145.453Z" fill="#6495ed"/>
<path stroke-width=".75" stroke-linecap="butt" stroke-miterlimit="2" stroke-linejoin="miter" fill="none" stroke="#6495ed" d="M145.453 20.762H174.93001V24.495999H145.453Z"/>
<path stroke-width="1.5" stroke-linecap="round" stroke-miterlimit="1.154701" stroke-linejoin="miter" fill="none" stroke="#cccccc" d="M162.051 20.762V24.496"/>
<path d="M176.672 27.062H212.578V30.796H176.672Z" fill="#dc143c"/>
<path stroke-width=".75" stroke-linecap="butt" stroke-miterlimit="2" stroke-linejoin="miter" fill="none" stroke="#dc143c" d="M176.672 27.062H212.578V30.796H176.672Z"/>
<path stroke-width="1.5" stroke-linecap="round" stroke-miterlimit="1.154701" stroke-linejoin="miter" fill="none" stroke="#cccccc" d="M195.199 27.062V30.793"/>
<path d="M138.438 33.359H213.57501V37.093004H138.438Z" fill="#77ab58"/>
<path stroke-width=".75" stroke-linecap="butt" stroke-miterlimit="2" stroke-linejoin="miter" fill="none" stroke="#77ab58" d="M138.438 33.359H213.57501V37.093004H138.438Z"/>
<path stroke-width="1.5" stroke-linecap="round" stroke-miterlimit="1.154701" stroke-linejoin="miter" fill="none" stroke="#cccccc" d="M165.977 33.359V37.094"/>
<path d="M182.418 39.66H221.965V43.394H182.418Z" fill="#ef9901"/>
<path stroke-width=".75" stroke-linecap="butt" stroke-miterlimit="2" stroke-linejoin="miter" fill="none" stroke="#ef9901" d="M182.418 39.66H221.965V43.394H182.418Z"/>
<path stroke-width="1.5" stroke-linecap="round" stroke-miterlimit="1.154701" stroke-linejoin="miter" fill="none" stroke="#cccccc" d="M203.926 39.66V43.395"/>
<path d="M207.691 45.961H245.039V49.695H207.691Z" fill="#9558b2"/>
<path stroke-width=".75" stroke-linecap="butt" stroke-miterlimit="2" stroke-linejoin="miter" fill="none" stroke="#9558b2" d="M207.691 45.961H245.039V49.695H207.691Z"/>
<path stroke-width="1.5" stroke-linecap="round" stroke-miterlimit="1.154701" stroke-linejoin="miter" fill="none" stroke="#cccccc" d="M226.691 45.961V49.695"/>
<path d="M193.508 52.262H243.25V55.996004H193.508Z" fill="#808080"/>
<path stroke-width=".75" stroke-linecap="butt" stroke-miterlimit="2" stroke-linejoin="miter" fill="none" stroke="#808080" d="M193.508 52.262H243.25V55.996004H193.508Z"/>
<path stroke-width="1.5" stroke-linecap="round" stroke-miterlimit="1.154701" stroke-linejoin="miter" fill="none" stroke="#cccccc" d="M212.504 52.262V55.992"/>
<path d="M167.012 67.426H210.39899V71.16H167.012Z" fill="#6495ed"/>
<path stroke-width=".75" stroke-linecap="butt" stroke-miterlimit="2" stroke-linejoin="miter" fill="none" stroke="#6495ed" d="M167.012 67.426H210.39899V71.16H167.012Z"/>
<path stroke-width="1.5" stroke-linecap="round" stroke-miterlimit="1.154701" stroke-linejoin="miter" fill="none" stroke="#cccccc" d="M189.328 67.426V71.16"/>
<path d="M176.871 73.727H213.332V77.461H176.871Z" fill="#dc143c"/>
<path stroke-width=".75" stroke-linecap="butt" stroke-miterlimit="2" stroke-linejoin="miter" fill="none" stroke="#dc143c" d="M176.871 73.727H213.332V77.461H176.871Z"/>
<path stroke-width="1.5" stroke-linecap="round" stroke-miterlimit="1.154701" stroke-linejoin="miter" fill="none" stroke="#cccccc" d="M198.441 73.727V77.461"/>
<path d="M167.305 80.027H219.996V83.761H167.305Z" fill="#77ab58"/>
<path stroke-width=".75" stroke-linecap="butt" stroke-miterlimit="2" stroke-linejoin="miter" fill="none" stroke="#77ab58" d="M167.305 80.027H219.996V83.761H167.305Z"/>
<path stroke-width="1.5" stroke-linecap="round" stroke-miterlimit="1.154701" stroke-linejoin="miter" fill="none" stroke="#cccccc" d="M201.238 80.027V83.758"/>
<path d="M191.383 86.324H224.73099V90.058H191.383Z" fill="#ef9901"/>
<path stroke-width=".75" stroke-linecap="butt" stroke-miterlimit="2" stroke-linejoin="miter" fill="none" stroke="#ef9901" d="M191.383 86.324H224.73099V90.058H191.383Z"/>
<path stroke-width="1.5" stroke-linecap="round" stroke-miterlimit="1.154701" stroke-linejoin="miter" fill="none" stroke="#cccccc" d="M207.148 86.324V90.059"/>
<path d="M206.746 92.625H260.32V96.359H206.746Z" fill="#9558b2"/>
<path stroke-width=".75" stroke-linecap="butt" stroke-miterlimit="2" stroke-linejoin="miter" fill="none" stroke="#9558b2" d="M206.746 92.625H260.32V96.359H206.746Z"/>
<path stroke-width="1.5" stroke-linecap="round" stroke-miterlimit="1.154701" stroke-linejoin="miter" fill="none" stroke="#cccccc" d="M226.797 92.625V96.359"/>
<path d="M192.848 98.926H232.11402V102.66H192.848Z" fill="#808080"/>
<path stroke-width=".75" stroke-linecap="butt" stroke-miterlimit="2" stroke-linejoin="miter" fill="none" stroke="#808080" d="M192.848 98.926H232.11402V102.66H192.848Z"/>
<path stroke-width="1.5" stroke-linecap="round" stroke-miterlimit="1.154701" stroke-linejoin="miter" fill="none" stroke="#cccccc" d="M210.336 98.926V102.66"/>
<path d="M204.195 114.09H253.56601V117.824H204.195Z" fill="#6495ed"/>
<path stroke-width=".75" stroke-linecap="butt" stroke-miterlimit="2" stroke-linejoin="miter" fill="none" stroke="#6495ed" d="M204.195 114.09H253.56601V117.824H204.195Z"/>
<path stroke-width="1.5" stroke-linecap="round" stroke-miterlimit="1.154701" stroke-linejoin="miter" fill="none" stroke="#cccccc" d="M223.402 114.09V117.824"/>
<path d="M199.672 120.391H244.121V124.125H199.672Z" fill="#dc143c"/>
<path stroke-width=".75" stroke-linecap="butt" stroke-miterlimit="2" stroke-linejoin="miter" fill="none" stroke="#dc143c" d="M199.672 120.391H244.121V124.125H199.672Z"/>
<path stroke-width="1.5" stroke-linecap="round" stroke-miterlimit="1.154701" stroke-linejoin="miter" fill="none" stroke="#cccccc" d="M226.445 120.391V124.125"/>
<path d="M194.934 126.691H272.903V130.425H194.934Z" fill="#77ab58"/>
<path stroke-width=".75" stroke-linecap="butt" stroke-miterlimit="2" stroke-linejoin="miter" fill="none" stroke="#77ab58" d="M194.934 126.691H272.903V130.425H194.934Z"/>
<path stroke-width="1.5" stroke-linecap="round" stroke-miterlimit="1.154701" stroke-linejoin="miter" fill="none" stroke="#cccccc" d="M244.02 126.691V130.426"/>
<path d="M203.047 132.992H259.125V136.726H203.047Z" fill="#ef9901"/>
<path stroke-width=".75" stroke-linecap="butt" stroke-miterlimit="2" stroke-linejoin="miter" fill="none" stroke="#ef9901" d="M203.047 132.992H259.125V136.726H203.047Z"/>
<path stroke-width="1.5" stroke-linecap="round" stroke-miterlimit="1.154701" stroke-linejoin="miter" fill="none" stroke="#cccccc" d="M229.73 132.992V136.723"/>
<path d="M258.184 139.289H300.164V143.023H258.184Z" fill="#9558b2"/>
<path stroke-width=".75" stroke-linecap="butt" stroke-miterlimit="2" stroke-linejoin="miter" fill="none" stroke="#9558b2" d="M258.184 139.289H300.164V143.023H258.184Z"/>
<path stroke-width="1.5" stroke-linecap="round" stroke-miterlimit="1.154701" stroke-linejoin="miter" fill="none" stroke="#cccccc" d="M283.172 139.289V143.023"/>
<path d="M213.664 145.59H283.172V149.32399H213.664Z" fill="#808080"/>
<path stroke-width=".75" stroke-linecap="butt" stroke-miterlimit="2" stroke-linejoin="miter" fill="none" stroke="#808080" d="M213.664 145.59H283.172V149.32399H213.664Z"/>
<path stroke-width="1.5" stroke-linecap="round" stroke-miterlimit="1.154701" stroke-linejoin="miter" fill="none" stroke="#cccccc" d="M253.723 145.59V149.324"/>
<path d="M155.641 160.758H191.21901V164.49199H155.641Z" fill="#6495ed"/>
<path stroke-width=".75" stroke-linecap="butt" stroke-miterlimit="2" stroke-linejoin="miter" fill="none" stroke="#6495ed" d="M155.641 160.758H191.21901V164.49199H155.641Z"/>
<path stroke-width="1.5" stroke-linecap="round" stroke-miterlimit="1.154701" stroke-linejoin="miter" fill="none" stroke="#cccccc" d="M177.309 160.758V164.488"/>
<path d="M131.598 167.055H168.5V170.78899H131.598Z" fill="#dc143c"/>
<path stroke-width=".75" stroke-linecap="butt" stroke-miterlimit="2" stroke-linejoin="miter" fill="none" stroke="#dc143c" d="M131.598 167.055H168.5V170.78899H131.598Z"/>
<path stroke-width="1.5" stroke-linecap="round" stroke-miterlimit="1.154701" stroke-linejoin="miter" fill="none" stroke="#cccccc" d="M148.508 167.055V170.789"/>
<path d="M94.57 173.355H133.02701V177.08899H94.57Z" fill="#77ab58"/>
<path stroke-width=".75" stroke-linecap="butt" stroke-miterlimit="2" stroke-linejoin="miter" fill="none" stroke="#77ab58" d="M94.57 173.355H133.02701V177.08899H94.57Z"/>
<path stroke-width="1.5" stroke-linecap="round" stroke-miterlimit="1.154701" stroke-linejoin="miter" fill="none" stroke="#cccccc" d="M111.832 173.355V177.09"/>
<path d="M98.363 179.656H156.27701V183.39H98.363Z" fill="#ef9901"/>
<path stroke-width=".75" stroke-linecap="butt" stroke-miterlimit="2" stroke-linejoin="miter" fill="none" stroke="#ef9901" d="M98.363 179.656H156.27701V183.39H98.363Z"/>
<path stroke-width="1.5" stroke-linecap="round" stroke-miterlimit="1.154701" stroke-linejoin="miter" fill="none" stroke="#cccccc" d="M139.453 179.656V183.391"/>
<path d="M186.922 185.957H241.504V189.691H186.922Z" fill="#9558b2"/>
<path stroke-width=".75" stroke-linecap="butt" stroke-miterlimit="2" stroke-linejoin="miter" fill="none" stroke="#9558b2" d="M186.922 185.957H241.504V189.691H186.922Z"/>
<path stroke-width="1.5" stroke-linecap="round" stroke-miterlimit="1.154701" stroke-linejoin="miter" fill="none" stroke="#cccccc" d="M213.73 185.957V189.688"/>
<path d="M104.555 192.254H146.692V195.98799H104.555Z" fill="#808080"/>
<path stroke-width=".75" stroke-linecap="butt" stroke-miterlimit="2" stroke-linejoin="miter" fill="none" stroke="#808080" d="M104.555 192.254H146.692V195.98799H104.555Z"/>
<path stroke-width="1.5" stroke-linecap="round" stroke-miterlimit="1.154701" stroke-linejoin="miter" fill="none" stroke="#cccccc" d="M119.254 192.254V195.988"/>
<path stroke-width="1.125" stroke-linecap="round" stroke-miterlimit="1.154701" stroke-linejoin="miter" fill="none" stroke="#cccccc" d="M77.031 205.125V208.125"/>
<path stroke-width="1.125" stroke-linecap="round" stroke-miterlimit="1.154701" stroke-linejoin="miter" fill="none" stroke="#cccccc" d="M139.148 205.125V208.125"/>
<path stroke-width="1.125" stroke-linecap="round" stroke-miterlimit="1.154701" stroke-linejoin="miter" fill="none" stroke="#cccccc" d="M201.266 205.125V208.125"/>
<path stroke-width="1.125" stroke-linecap="round" stroke-miterlimit="1.154701" stroke-linejoin="miter" fill="none" stroke="#cccccc" d="M263.383 205.125V208.125"/>
<path stroke-width="1.125" stroke-linecap="round" stroke-miterlimit="1.154701" stroke-linejoin="miter" fill="none" stroke="#cccccc" d="M325.5 205.125V208.125"/>
<path stroke-width=".75" stroke-linecap="round" stroke-miterlimit="1.154701" stroke-linejoin="miter" fill="none" stroke="#cccccc" d="M108.09 205.125V207.375"/>
<path stroke-width=".75" stroke-linecap="round" stroke-miterlimit="1.154701" stroke-linejoin="miter" fill="none" stroke="#cccccc" d="M170.207 205.125V207.375"/>
<path stroke-width=".75" stroke-linecap="round" stroke-miterlimit="1.154701" stroke-linejoin="miter" fill="none" stroke="#cccccc" d="M232.324 205.125V207.375"/>
<path stroke-width=".75" stroke-linecap="round" stroke-miterlimit="1.154701" stroke-linejoin="miter" fill="none" stroke="#cccccc" d="M294.441 205.125V207.375"/>
<path stroke-width="1.125" stroke-linecap="round" stroke-miterlimit="1.154701" stroke-linejoin="miter" fill="none" stroke="#cccccc" d="M61.125 38.379H58.125"/>
<path stroke-width="1.125" stroke-linecap="round" stroke-miterlimit="1.154701" stroke-linejoin="miter" fill="none" stroke="#cccccc" d="M61.125 85.043H58.125"/>
<path stroke-width="1.125" stroke-linecap="round" stroke-miterlimit="1.154701" stroke-linejoin="miter" fill="none" stroke="#cccccc" d="M61.125 131.707H58.125"/>
<path stroke-width="1.125" stroke-linecap="round" stroke-miterlimit="1.154701" stroke-linejoin="miter" fill="none" stroke="#cccccc" d="M61.125 178.371H58.125"/>
<path stroke-width=".75" stroke-linecap="round" stroke-miterlimit="1.154701" stroke-linejoin="miter" fill="none" stroke="#cccccc" d="M61.125 15.043H58.875"/>
<path stroke-width=".75" stroke-linecap="round" stroke-miterlimit="1.154701" stroke-linejoin="miter" fill="none" stroke="#cccccc" d="M61.125 61.711H58.875"/>
<path stroke-width=".75" stroke-linecap="round" stroke-miterlimit="1.154701" stroke-linejoin="miter" fill="none" stroke="#cccccc" d="M61.125 108.375H58.875"/>
<path stroke-width=".75" stroke-linecap="round" stroke-miterlimit="1.154701" stroke-linejoin="miter" fill="none" stroke="#cccccc" d="M61.125 155.039H58.875"/>
<path stroke-width=".75" stroke-linecap="round" stroke-miterlimit="1.154701" stroke-linejoin="miter" fill="none" stroke="#cccccc" d="M61.125 201.707H58.875"/>
<path d="M66.742 17.422H81.742V32.422H66.742Z" fill="#6495ed"/>
<path stroke-width=".75" stroke-linecap="butt" stroke-miterlimit="2" stroke-linejoin="miter" fill="none" stroke="#6495ed" d="M66.742 17.422H81.742V32.422H66.742Z"/>
<path d="M66.742 17.422H81.742V32.422H66.742Z" fill="#6495ed"/>
<path stroke-width=".75" stroke-linecap="butt" stroke-miterlimit="2" stroke-linejoin="miter" fill="none" stroke="#6495ed" d="M66.742 17.422H81.742V32.422H66.742Z"/>
<path d="M66.742 17.422H81.742V32.422H66.742Z" fill="#6495ed"/>
<path stroke-width=".75" stroke-linecap="butt" stroke-miterlimit="2" stroke-linejoin="miter" fill="none" stroke="#6495ed" d="M66.742 17.422H81.742V32.422H66.742Z"/>
<path d="M66.742 17.422H81.742V32.422H66.742Z" fill="#6495ed"/>
<path stroke-width=".75" stroke-linecap="butt" stroke-miterlimit="2" stroke-linejoin="miter" fill="none" stroke="#6495ed" d="M66.742 17.422H81.742V32.422H66.742Z"/>
<path d="M66.742 34.75H81.742V49.75H66.742Z" fill="#dc143c"/>
<path stroke-width=".75" stroke-linecap="butt" stroke-miterlimit="2" stroke-linejoin="miter" fill="none" stroke="#dc143c" d="M66.742 34.75H81.742V49.75H66.742Z"/>
<path d="M66.742 34.75H81.742V49.75H66.742Z" fill="#dc143c"/>
<path stroke-width=".75" stroke-linecap="butt" stroke-miterlimit="2" stroke-linejoin="miter" fill="none" stroke="#dc143c" d="M66.742 34.75H81.742V49.75H66.742Z"/>
<path d="M66.742 34.75H81.742V49.75H66.742Z" fill="#dc143c"/>
<path stroke-width=".75" stroke-linecap="butt" stroke-miterlimit="2" stroke-linejoin="miter" fill="none" stroke="#dc143c" d="M66.742 34.75H81.742V49.75H66.742Z"/>
<path d="M66.742 34.75H81.742V49.75H66.742Z" fill="#dc143c"/>
<path stroke-width=".75" stroke-linecap="butt" stroke-miterlimit="2" stroke-linejoin="miter" fill="none" stroke="#dc143c" d="M66.742 34.75H81.742V49.75H66.742Z"/>
<path d="M66.742 52.086H81.742V67.086H66.742Z" fill="#77ab58"/>
<path stroke-width=".75" stroke-linecap="butt" stroke-miterlimit="2" stroke-linejoin="miter" fill="none" stroke="#77ab58" d="M66.742 52.086H81.742V67.086H66.742Z"/>
<path d="M66.742 52.086H81.742V67.086H66.742Z" fill="#77ab58"/>
<path stroke-width=".75" stroke-linecap="butt" stroke-miterlimit="2" stroke-linejoin="miter" fill="none" stroke="#77ab58" d="M66.742 52.086H81.742V67.086H66.742Z"/>
<path d="M66.742 52.086H81.742V67.086H66.742Z" fill="#77ab58"/>
<path stroke-width=".75" stroke-linecap="butt" stroke-miterlimit="2" stroke-linejoin="miter" fill="none" stroke="#77ab58" d="M66.742 52.086H81.742V67.086H66.742Z"/>
<path d="M66.742 52.086H81.742V67.086H66.742Z" fill="#77ab58"/>
<path stroke-width=".75" stroke-linecap="butt" stroke-miterlimit="2" stroke-linejoin="miter" fill="none" stroke="#77ab58" d="M66.742 52.086H81.742V67.086H66.742Z"/>
<path d="M66.742 69.414H81.742V84.414H66.742Z" fill="#ef9901"/>
<path stroke-width=".75" stroke-linecap="butt" stroke-miterlimit="2" stroke-linejoin="miter" fill="none" stroke="#ef9901" d="M66.742 69.414H81.742V84.414H66.742Z"/>
<path d="M66.742 69.414H81.742V84.414H66.742Z" fill="#ef9901"/>
<path stroke-width=".75" stroke-linecap="butt" stroke-miterlimit="2" stroke-linejoin="miter" fill="none" stroke="#ef9901" d="M66.742 69.414H81.742V84.414H66.742Z"/>
<path d="M66.742 69.414H81.742V84.414H66.742Z" fill="#ef9901"/>
<path stroke-width=".75" stroke-linecap="butt" stroke-miterlimit="2" stroke-linejoin="miter" fill="none" stroke="#ef9901" d="M66.742 69.414H81.742V84.414H66.742Z"/>
<path d="M66.742 69.414H81.742V84.414H66.742Z" fill="#ef9901"/>
<path stroke-width=".75" stroke-linecap="butt" stroke-miterlimit="2" stroke-linejoin="miter" fill="none" stroke="#ef9901" d="M66.742 69.414H81.742V84.414H66.742Z"/>
<path d="M66.742 86.75H81.742V101.75H66.742Z" fill="#9558b2"/>
<path stroke-width=".75" stroke-linecap="butt" stroke-miterlimit="2" stroke-linejoin="miter" fill="none" stroke="#9558b2" d="M66.742 86.75H81.742V101.75H66.742Z"/>
<path d="M66.742 86.75H81.742V101.75H66.742Z" fill="#9558b2"/>
<path stroke-width=".75" stroke-linecap="butt" stroke-miterlimit="2" stroke-linejoin="miter" fill="none" stroke="#9558b2" d="M66.742 86.75H81.742V101.75H66.742Z"/>
<path d="M66.742 86.75H81.742V101.75H66.742Z" fill="#9558b2"/>
<path stroke-width=".75" stroke-linecap="butt" stroke-miterlimit="2" stroke-linejoin="miter" fill="none" stroke="#9558b2" d="M66.742 86.75H81.742V101.75H66.742Z"/>
<path d="M66.742 86.75H81.742V101.75H66.742Z" fill="#9558b2"/>
<path stroke-width=".75" stroke-linecap="butt" stroke-miterlimit="2" stroke-linejoin="miter" fill="none" stroke="#9558b2" d="M66.742 86.75H81.742V101.75H66.742Z"/>
<path d="M66.742 104.078H81.742V119.078H66.742Z" fill="#808080"/>
<path stroke-width=".75" stroke-linecap="butt" stroke-miterlimit="2" stroke-linejoin="miter" fill="none" stroke="#808080" d="M66.742 104.078H81.742V119.078H66.742Z"/>
<path d="M66.742 104.078H81.742V119.078H66.742Z" fill="#808080"/>
<path stroke-width=".75" stroke-linecap="butt" stroke-miterlimit="2" stroke-linejoin="miter" fill="none" stroke="#808080" d="M66.742 104.078H81.742V119.078H66.742Z"/>
<path d="M66.742 104.078H81.742V119.078H66.742Z" fill="#808080"/>
<path stroke-width=".75" stroke-linecap="butt" stroke-miterlimit="2" stroke-linejoin="miter" fill="none" stroke="#808080" d="M66.742 104.078H81.742V119.078H66.742Z"/>
<path d="M66.742 104.078H81.742V119.078H66.742Z" fill="#808080"/>
<path stroke-width=".75" stroke-linecap="butt" stroke-miterlimit="2" stroke-linejoin="miter" fill="none" stroke="#808080" d="M66.742 104.078H81.742V119.078H66.742Z"/>
<use data-text="V" xlink:href="#font_1_27" transform="matrix(13.500006,0,0,-13.499997,85.4934,29.600102)"/>
<use data-text="I" xlink:href="#font_1_28" transform="matrix(13.500006,0,0,-13.499997,94.4979,29.600102)"/>
<use data-text="S" xlink:href="#font_1_1" transform="matrix(13.5,0,0,-13.499997,98.248538,29.600102)"/>
<use data-text="p" xlink:href="#font_1_2" transform="matrix(13.500011,0,0,-13.499997,107.25293,29.600102)"/>
<use data-text="V" xlink:href="#font_1_27" transform="matrix(13.500006,0,0,-13.499997,85.4934,46.932134)"/>
<use data-text="I" xlink:href="#font_1_28" transform="matrix(13.500006,0,0,-13.499997,94.4979,46.932134)"/>
<use data-text="S" xlink:href="#font_1_1" transform="matrix(13.5,0,0,-13.499997,98.248538,46.932134)"/>
<use data-text="l" xlink:href="#font_1_8" transform="matrix(13.500011,0,0,-13.499997,107.25293,46.932134)"/>
<use data-text="V" xlink:href="#font_1_27" transform="matrix(13.500006,0,0,-13.499994,85.4934,64.26417)"/>
<use data-text="I" xlink:href="#font_1_28" transform="matrix(13.500006,0,0,-13.499994,94.4979,64.26417)"/>
<use data-text="S" xlink:href="#font_1_1" transform="matrix(13.5,0,0,-13.499994,98.248538,64.26417)"/>
<use data-text="r" xlink:href="#font_1_6" transform="matrix(13.500011,0,0,-13.499994,107.25293,64.26417)"/>
<use data-text="l" xlink:href="#font_1_8" transform="matrix(13.5,0,0,-13.499994,111.748538,64.26417)"/>
<use data-text="V" xlink:href="#font_1_27" transform="matrix(13.500006,0,0,-13.500006,85.4934,81.59619)"/>
<use data-text="I" xlink:href="#font_1_28" transform="matrix(13.500006,0,0,-13.500006,94.4979,81.59619)"/>
<use data-text="S" xlink:href="#font_1_1" transform="matrix(13.5,0,0,-13.500006,98.248538,81.59619)"/>
<use data-text="a" xlink:href="#font_1_7" transform="matrix(13.500011,0,0,-13.500006,107.25293,81.59619)"/>
<use data-text="l" xlink:href="#font_1_8" transform="matrix(13.5,0,0,-13.500006,114.76099,81.59619)"/>
<use data-text="V" xlink:href="#font_1_27" transform="matrix(13.500006,0,0,-13.5,85.4934,98.92822)"/>
<use data-text="I" xlink:href="#font_1_28" transform="matrix(13.500006,0,0,-13.5,94.4979,98.92822)"/>
<use data-text="S" xlink:href="#font_1_1" transform="matrix(13.5,0,0,-13.5,98.248538,98.92822)"/>
<use data-text="p" xlink:href="#font_1_2" transform="matrix(13.500011,0,0,-13.5,107.25293,98.92822)"/>
<use data-text="m" xlink:href="#font_1_29" transform="matrix(13.5,0,0,-13.5,114.76099,98.92822)"/>
<use data-text="V" xlink:href="#font_1_27" transform="matrix(13.500006,0,0,-13.500011,85.4934,116.260257)"/>
<use data-text="I" xlink:href="#font_1_28" transform="matrix(13.500006,0,0,-13.500011,94.4979,116.260257)"/>
<use data-text="S" xlink:href="#font_1_1" transform="matrix(13.5,0,0,-13.500011,98.248538,116.260257)"/>
<use data-text="a" xlink:href="#font_1_7" transform="matrix(13.500011,0,0,-13.500011,107.25293,116.260257)"/>
<use data-text="m" xlink:href="#font_1_29" transform="matrix(13.5,0,0,-13.500011,114.76099,116.260257)"/>
<path stroke-width=".75" stroke-linecap="round" stroke-miterlimit="1.154701" stroke-linejoin="miter" fill="none" stroke="#cccccc" d="M61.125 204.75H325.875"/>
<path stroke-width=".75" stroke-linecap="round" stroke-miterlimit="1.154701" stroke-linejoin="miter" fill="none" stroke="#cccccc" d="M61.5 205.125V11.625"/>
<path stroke-width=".75" stroke-linecap="round" stroke-miterlimit="1.154701" stroke-linejoin="miter" fill="none" stroke="#cccccc" d="M61.125 12H325.875"/>
<path stroke-width=".75" stroke-linecap="round" stroke-miterlimit="1.154701" stroke-linejoin="miter" fill="none" stroke="#cccccc" d="M325.5 205.125V11.625"/>
</g>
</svg>
