<svg fill="#cccccc" xmlns="http://www.w3.org/2000/svg" xmlns:xlink="http://www.w3.org/1999/xlink" xmlns:inkscape="http://www.inkscape.org/namespaces/inkscape" version="1.1" width="450" height="450" viewBox="0 0 450 450">
<defs>
<path id="font_1_1" d="M.07421875 0V.7158203H.21484375L.5078125 .23677063V.7158203H.64208987V0H.4970703L.2084961 .46810914V0H.07421875Z"/>
<path id="font_1_2" d="M.040039064 .26660157C.040039064 .31217448 .05126953 .35628257 .07373047 .39892579 .096191409 .441569 .12801107 .4741211 .16918946 .49658204 .21036785 .51904299 .25634767 .53027346 .3071289 .53027346 .38557945 .53027346 .44986979 .50480148 .5 .45385743 .5501302 .40291343 .5751953 .33854167 .5751953 .2607422 .5751953 .18229167 .54988607 .11726888 .49926759 .06567383 .44864909 .014078776 .38492839-.01171875 .30810548-.01171875 .26057945-.01171875 .21525066-.0009765625 .17211914 .020507813 .12898763 .041992189 .096191409 .07348633 .07373047 .114990238 .05126953 .15649414 .040039064 .20703125 .040039064 .26660157M.18066406 .25927735C.18066406 .20800781 .1928711 .16874187 .21728516 .14147949 .24169922 .114217128 .2718099 .10058594 .3076172 .10058594 .34342448 .10058594 .37345378 .114217128 .39770509 .14147949 .4219564 .16874187 .43408204 .20833333 .43408204 .2602539 .43408204 .3108724 .4219564 .34981285 .39770509 .3770752 .37345378 .40433757 .34342448 .41796876 .3076172 .41796876 .2718099 .41796876 .24169922 .40433757 .21728516 .3770752 .1928711 .34981285 .18066406 .31054688 .18066406 .25927735Z"/>
<path id="font_1_3" d="M.203125 0H.06591797V.5185547H.19335938V.44482423C.21516927 .47965495 .2347819 .5026042 .25219728 .5136719 .26961265 .52473959 .28938804 .53027346 .31152345 .53027346 .34277345 .53027346 .37288413 .52164718 .40185548 .50439456L.359375 .38476563C.33626304 .3997396 .31477867 .40722657 .29492188 .40722657 .27571617 .40722657 .2594401 .40193687 .24609375 .39135743 .23274739 .38077799 .22224935 .36165367 .21459961 .33398438 .20694988 .3063151 .203125 .24837239 .203125 .16015625V0Z"/>
<path id="font_1_4" d="M.061523439 .5185547H.18798828V.4477539C.23323567 .5027669 .28710938 .53027346 .34960938 .53027346 .3828125 .53027346 .4116211 .523407 .43603517 .5096741 .46044923 .49594117 .48046876 .47517396 .49609376 .44737245 .5188802 .47517396 .54345706 .49594117 .5698242 .5096741 .5961914 .523407 .62434896 .53027346 .6542969 .53027346 .6923828 .53027346 .7246094 .5225423 .75097659 .5070801 .77734377 .49161784 .7970378 .46891276 .8100586 .43896485 .8194987 .41682945 .82421877 .38102214 .82421877 .33154298V0H.6870117V.29605104C.6870117 .34742228 .6822917 .38058473 .67285159 .39553834 .66015627 .41504923 .640625 .4248047 .6142578 .4248047 .59505209 .4248047 .57698568 .4189504 .5600586 .40724183 .54313156 .39554344 .5309245 .37839256 .5234375 .35578919 .5159505 .333196 .51220706 .29751078 .51220706 .24873352V0H.375V.28385926C.375 .33425395 .3725586 .36676536 .36767579 .38139344 .36279298 .3960317 .3552246 .40692649 .3449707 .41407777 .3347168 .42122904 .32080079 .4248047 .30322267 .4248047 .2820638 .4248047 .26302085 .41911317 .24609375 .4077301 .22916667 .3963572 .21704102 .37993876 .2097168 .35847474 .20239258 .3370107 .19873047 .30140687 .19873047 .2516632V0H.061523439V.5185547Z"/>
<path id="font_1_5" d="M.1743164 .35839845 .049804689 .38085938C.063802089 .4316508 .087890628 .46924845 .12207031 .49365235 .15625 .5180664 .20703125 .53027346 .27441407 .53027346 .33561198 .53027346 .3811849 .5230306 .4111328 .5085449 .44108073 .49405924 .4621582 .47566734 .47436524 .45336915 .48657228 .43107096 .49267579 .39013673 .49267579 .3305664L.49121095 .17041016C.49121095 .12483724 .4934082 .09122721 .49780274 .06958008 .50219729 .04793294 .5104167 .024739584 .52246096 0H.38671876C.38313804 .009114583 .3787435 .022623698 .37353517 .040527345 .3712565 .048665365 .3696289 .054036458 .36865235 .056640626 .34521485 .033854169 .32014976 .016764323 .29345704 .0053710939 .2667643-.0060221354 .23828125-.01171875 .20800781-.01171875 .15462239-.01171875 .11254883 .0027058919 .08178711 .031555177 .05102539 .06040446 .03564453 .09687296 .03564453 .1409607 .03564453 .1701355 .04264323 .19614665 .056640626 .21899414 .07063802 .2418518 .09025065 .25935874 .115478519 .2715149 .14070638 .28367106 .17708333 .2942861 .22460938 .30336 .28873698 .3153534 .33317057 .3265381 .35791017 .33691407V.35073854C.35791017 .37740074 .35139976 .39640809 .3383789 .40776063 .32535807 .41912333 .30078126 .4248047 .26464845 .4248047 .24023438 .4248047 .2211914 .41989137 .20751953 .4100647 .19384766 .4002482 .18277996 .38302613 .1743164 .35839845M.35791017 .24707031C.34033204 .24128215 .3125 .23436482 .27441407 .22631836 .23632813 .21828206 .21142578 .21040344 .19970703 .2026825 .18180339 .19013977 .17285156 .17421977 .17285156 .15492249 .17285156 .13594055 .18001302 .119532268 .19433594 .10569763 .20865886 .09187317 .22688802 .08496094 .24902344 .08496094 .27376304 .08496094 .29736329 .09300232 .31982423 .10908508 .33642579 .121302288 .34733073 .13626099 .35253907 .15396118 .35611979 .16553752 .35791017 .18756612 .35791017 .220047V.24707031Z"/>
<path id="font_1_6" d="M.071777347 0V.7158203H.20898438V0H.071777347Z"/>
<path id="font_1_7" d=""/>
<path id="font_1_8" d="M.5473633 0H.41992188V.076171878C.39876304 .04654948 .3737793 .024495444 .3449707 .010009766 .3161621-.0044759118 .28710938-.01171875 .2578125-.01171875 .19824219-.01171875 .1472168 .012288411 .10473633 .060302736 .06225586 .108317058 .041015626 .17529297 .041015626 .26123048 .041015626 .3491211 .0616862 .41593424 .103027347 .46166993 .14436849 .5074056 .19661458 .53027346 .25976563 .53027346 .31770835 .53027346 .36783854 .5061849 .41015626 .4580078V.7158203H.5473633V0M.18115235 .2702484C.18115235 .21499126 .18880208 .17501323 .20410156 .15031433 .22623699 .1145579 .25716148 .09667969 .296875 .09667969 .32845054 .09667969 .355306 .110087078 .3774414 .13690186 .3995768 .16371663 .41064454 .20377605 .41064454 .25708009 .41064454 .316569 .39990235 .35939536 .37841798 .38555909 .3569336 .4117228 .3294271 .4248047 .29589845 .4248047 .26334635 .4248047 .23608399 .4118856 .21411133 .38604737 .19213867 .36020915 .18115235 .3216095 .18115235 .2702484Z"/>
<path id="font_1_9" d="M.071777347 .5888672V.7158203H.20898438V.5888672H.071777347M.071777347 0V.5185547H.20898438V0H.071777347Z"/>
<path id="font_1_10" d="M.01171875 .5185547H.087890628V.55770877C.087890628 .60143026 .0925293 .63405868 .10180664 .6555939 .111083988 .6771291 .12817383 .69466659 .15307617 .7082062 .17797852 .7217458 .20947266 .7285156 .2475586 .7285156 .2866211 .7285156 .32486979 .72265627 .3623047 .7109375L.34375 .6152344C.3219401 .6204427 .300944 .6230469 .28076173 .6230469 .26090495 .6230469 .2466634 .61838278 .23803711 .60905459 .22941081 .5997365 .22509766 .5818329 .22509766 .5553436V.5185547H.32763673V.41015626H.22509766V0H.087890628V.41015626H.01171875V.5185547Z"/>
<path id="font_1_11" d="M.41308595 0V.07763672C.39420573 .04996745 .36938478 .028157553 .33862306 .012207031 .30786134-.0037434896 .27539063-.01171875 .24121094-.01171875 .2063802-.01171875 .1751302-.0040690104 .14746094 .011230469 .119791667 .026529948 .09977213 .048014326 .087402347 .075683597 .075032558 .10335287 .068847659 .14160156 .068847659 .19042969V.5185547H.20605469V.28082276C.20605469 .20806885 .20857747 .16349285 .21362305 .14709473 .21866863 .13069661 .22786458 .1177063 .24121094 .10812378 .25455729 .09854126 .27148438 .09375 .2919922 .09375 .3154297 .09375 .33642579 .10016378 .35498048 .11299133 .37353517 .1258189 .38623048 .14173381 .3930664 .16073609 .39990235 .17973836 .4033203 .2262624 .4033203 .30030824V.5185547H.54052737V0H.41308595Z"/>
<path id="font_1_12" d="M.0234375 .14746094 .16113281 .16894531C.16699219 .14241536 .1788737 .122273769 .19677735 .10852051 .21468099 .09476725 .2397461 .087890628 .27197267 .087890628 .30745445 .087890628 .33414714 .09439087 .35205079 .10739136 .36409507 .116495769 .3701172 .12868755 .3701172 .14396668 .3701172 .15437317 .36686198 .1629893 .36035157 .16981507 .35351563 .17631531 .33821617 .18232727 .31445313 .18785095 .20377605 .21222432 .1336263 .23449199 .104003909 .25465394 .06298828 .2826284 .04248047 .32149253 .04248047 .37124635 .04248047 .41612754 .060221357 .45385234 .095703128 .48442079 .13118489 .5149892 .18619792 .53027346 .2607422 .53027346 .33170573 .53027346 .3844401 .5187581 .4189453 .49572755 .45345054 .47269694 .47721354 .4386393 .49023438 .3935547L.36083985 .36914063C.355306 .3893229 .34480796 .40478517 .3293457 .41552735 .31388346 .42626954 .29182945 .43164063 .2631836 .43164063 .22705078 .43164063 .20117188 .42660014 .18554688 .41651917 .1751302 .40937806 .16992188 .40011598 .16992188 .3887329 .16992188 .37898765 .17447917 .37070213 .18359375 .36387635 .19596355 .35477195 .23868816 .3419291 .31176759 .3253479 .38484703 .3087667 .4358724 .28842674 .46484376 .264328 .4934896 .2398936 .5078125 .20585633 .5078125 .16221619 .5078125 .11465963 .48795573 .073781337 .4482422 .0395813 .40852867 .005381266 .34977214-.01171875 .27197267-.01171875 .20133464-.01171875 .14542644 .0025583904 .10424805 .03111267 .063069667 .059677125 .036132814 .09845988 .0234375 .14746094Z"/>
<path id="font_1_13" d="M.54345706 0H.40625V.26434327C.40625 .32027183 .4033203 .3564453 .39746095 .37286378 .39160157 .38928224 .38208009 .40204368 .36889649 .41114808 .3557129 .42025248 .33984376 .4248047 .32128907 .4248047 .29752604 .4248047 .27620445 .41829936 .25732423 .4052887 .23844402 .3922882 .22550456 .37505595 .21850586 .35359193 .21150716 .33213807 .20800781 .2924703 .20800781 .23458863V0H.07080078V.5185547H.19824219V.4423828C.24348958 .50097659 .30045573 .53027346 .36914063 .53027346 .39941407 .53027346 .42708335 .524821 .45214845 .513916 .47721354 .50301107 .49617515 .48909507 .5090332 .47216798 .5218913 .45524089 .5308431 .43603517 .5358887 .41455079 .54093429 .3930664 .54345706 .3623047 .54345706 .32226563V0Z"/>
<path id="font_1_14" d="M.2993164-.2109375H.20507813C.15527344-.13566081 .11735026-.057454427 .091308597 .02368164 .06526693 .10481771 .052246095 .18334961 .052246095 .25927735 .052246095 .3534546 .068359378 .44257609 .10058594 .52664187 .12858074 .5996399 .1640625 .66693118 .20703125 .7285156H.30078126C.2561849 .62978109 .22550456 .5457916 .20874024 .47654725 .1919759 .40730287 .18359375 .33390299 .18359375 .25634767 .18359375 .2029012 .18855794 .14815267 .19848633 .09210205 .20841472 .036061605 .2220052-.017211914 .23925781-.067718509 .25065104-.10096232 .27067057-.14870198 .2993164-.2109375Z"/>
<path id="font_2_1" d="M.46435548 .5185547H.58203127C.56347659 .48079429 .5479329 .4325358 .5354004 .3737793 .52286788 .3150228 .51660159 .27392579 .51660159 .25048829 .51660159 .22021485 .52229818 .18066406 .5336914 .13183594 .54508468 .08300781 .55940756 .0390625 .57666018 0H.46142579C.4597982 .0065104167 .4568685 .015625 .45263673 .02734375 .44580079 .046875 .4399414 .06640625 .4350586 .0859375 .39501954 .020833334 .33789063-.01171875 .26367188-.01171875 .19368489-.01171875 .1385905 .016682944 .09838867 .07348633 .058186849 .13028972 .038085939 .19661458 .038085939 .27246095 .038085939 .34407554 .05810547 .4049479 .09814453 .45507813 .1381836 .5052083 .19384766 .53027346 .26513673 .53027346 .33544923 .53027346 .3922526 .49658204 .43554688 .42919923 .44140626 .45296226 .45100913 .4827474 .46435548 .5185547M.17871094 .25756837C.17871094 .20978801 .18888347 .17102559 .20922852 .14128113 .22957357 .11154684 .25602214 .09667969 .28857423 .09667969 .31982423 .09667969 .3453776 .10984293 .36523438 .13616944 .38509117 .16249593 .39501954 .20296224 .39501954 .25756837 .39501954 .3111979 .3844401 .351827 .36328126 .37945558 .3421224 .40708415 .316569 .42089845 .2866211 .42089845 .2553711 .42089845 .22957357 .40659587 .20922852 .37799073 .18888347 .3493856 .17871094 .30924479 .17871094 .25756837Z"/>
<path id="font_1_15" d="M.041503908 .39746095V.52441409H.5419922V.39746095H.041503908M.041503908 .1796875V.30664063H.5419922V.1796875H.041503908Z"/>
<path id="font_1_16" d="M.5058594 .12792969V0H.024902344C.030110678 .048136396 .045735677 .09375 .071777347 .13684082 .09781901 .17994182 .1492513 .2371114 .22607422 .3083496 .2879232 .36591593 .32584635 .40494285 .33984376 .4254303 .35872398 .45373027 .36816407 .4817047 .36816407 .50935366 .36816407 .53993228 .35994468 .5634308 .34350587 .57984927 .32706706 .5962779 .30436198 .6044922 .27539063 .6044922 .2467448 .6044922 .22395833 .5958252 .20703125 .5784912 .19010417 .5611674 .18033855 .5323995 .17773438 .4921875L.041015626 .5059204C.049153646 .5817668 .07470703 .63619998 .11767578 .66922 .16064453 .70224 .21435547 .71875 .2788086 .71875 .34944663 .71875 .4049479 .6997223 .4453125 .66166689 .4856771 .62361147 .5058594 .5762889 .5058594 .5196991 .5058594 .4874929 .50008139 .4568329 .4885254 .42771913 .4769694 .3986155 .45865885 .36812846 .43359376 .33625794 .4169922 .31510926 .38704429 .2846934 .34375 .24501038 .30045573 .20533753 .2730306 .17899578 .2614746 .1659851 .24991863 .15297444 .24055989 .1402893 .23339844 .12792969H.5058594Z"/>
<path id="font_1_17" d="M.068359378 .13769531H.2055664V.039230348C.2055664-.0006154378 .20214844-.032048543 .1953125-.05506897 .18847656-.07809957 .17553711-.09875997 .15649414-.11705017 .13745117-.13534038 .11328125-.14970906 .083984378-.16015625L.057128908-.103515628C.08479818-.09436035 .10449219-.08176676 .11621094-.06573486 .12792969-.049713136 .13411458-.027801514 .13476563 0H.068359378V.13769531Z"/>
<path id="font_2_2" d="M.0703125-.19726563V.46128846C.0703125 .56355288 .09554037 .6336568 .1459961 .67160037 .19645183 .7095439 .25227867 .7285156 .31347657 .7285156 .37532554 .7285156 .42740885 .71131899 .46972657 .67692568 .51204428 .64253237 .5332031 .5977885 .5332031 .5426941 .5332031 .50683596 .5218099 .47529603 .49902345 .44807435 .47623698 .42085267 .44791667 .40300498 .4140625 .39453126 .46875 .38541667 .5088704 .3618978 .5344238 .3239746 .55997726 .28605143 .5727539 .24381511 .5727539 .19726563 .5727539 .13997396 .5555013 .09082031 .5209961 .049804689 .48649089 .0087890629 .43945313-.01171875 .3798828-.01171875 .3111979-.01171875 .2537435 .017415366 .20751953 .075683597V-.19726563H.0703125M.26953126 .42578126C.3111979 .42643229 .34375 .4363861 .3671875 .4556427 .390625 .4748993 .40234376 .4993744 .40234376 .529068 .40234376 .5561574 .39298503 .5781047 .37426759 .59490969 .35555015 .61171469 .3330078 .6201172 .30664063 .6201172 .28385417 .6201172 .2644043 .6131897 .24829102 .5993347 .23217774 .5854899 .22135417 .5676524 .21582031 .54582217 .21028646 .5239919 .20751953 .49206544 .20751953 .45004273V.30244447C.20751953 .25813294 .2113444 .22253418 .21899414 .1956482 .22664388 .16877239 .24202474 .14555867 .26513673 .12600708 .2882487 .10645548 .3133138 .09667969 .34033204 .09667969 .3663737 .09667969 .3881836 .10636393 .40576173 .12573242 .42333985 .1451009 .4321289 .16992188 .4321289 .20019531 .4321289 .24446614 .41886393 .2804362 .39233399 .30810548 .36580406 .33577476 .32486979 .34960938 .26953126 .34960938V.42578126Z"/>
<path id="font_1_18" d="M.3935547 0H.25634767V.51652529C.20621746 .46946717 .14713542 .43466188 .07910156 .41210938V.5371094C.11490885 .54885867 .1538086 .5711314 .19580078 .6039276 .23779297 .636734 .26660157 .6750081 .28222657 .71875H.3935547V0Z"/>
<path id="font_2_3" d="M.20947266 0 .0073242189 .5185547H.15136719L.24902344 .25280763 .27734376 .1640625 .2915039 .2086792C.2960612 .22338867 .300944 .23809815 .30615235 .25280763L.40478517 .5185547H.54589846L.3466797 0V-.19726563H.20947266V0Z"/>
<path id="font_1_19" d="M.27441407 .71875C.34375 .71875 .39794923 .6939952 .43701173 .6444855 .4835612 .585851 .50683596 .48861695 .50683596 .3527832 .50683596 .21727498 .48339845 .119878139 .43652345 .06059265 .39778648 .011734009 .34375-.0126953129 .27441407-.0126953129 .20475261-.0126953129 .14860027 .014094035 .10595703 .06767273 .063313808 .1212616 .041992189 .2167867 .041992189 .35424806 .041992189 .48910523 .06542969 .5861766 .11230469 .64546206 .15104167 .6943207 .20507813 .71875 .27441407 .71875M.27441407 .6044922C.2578125 .6044922 .2430013 .5992076 .22998047 .5886383 .21695964 .57806906 .20686849 .5591278 .19970703 .5318146 .19026692 .4963633 .18554688 .4366862 .18554688 .3527832 .18554688 .26888023 .18977864 .2112376 .19824219 .17985535 .20670574 .1484731 .21736653 .12757874 .23022461 .11717224 .24308269 .10676575 .2578125 .1015625 .27441407 .1015625 .29101563 .1015625 .3058268 .10684713 .31884767 .11741638 .3318685 .12798564 .34195964 .14692688 .3491211 .17424011 .3585612 .20936585 .36328126 .26888023 .36328126 .3527832 .36328126 .4366862 .35904948 .49432884 .35058595 .52571108 .3421224 .5570933 .33146159 .57806906 .31860353 .5886383 .30574546 .5992076 .29101563 .6044922 .27441407 .6044922Z"/>
<path id="font_1_20" d="M.033691408-.2109375C.060709638-.15293376 .0797526-.108454387 .09082031-.07749939 .10188802-.04654439 .11214193-.010864258 .12158203 .029541016 .13102214 .06995646 .13802083 .10832723 .14257813 .14465332 .14713542 .18098958 .14941406 .21822103 .14941406 .25634767 .14941406 .33390299 .14111328 .40730287 .12451172 .47654725 .107910159 .5457916 .077311199 .62978109 .032714845 .7285156H.12597656C.1751302 .65845748 .21329753 .5841624 .24047852 .5056305 .26765953 .4270986 .28125 .34742738 .28125 .26661683 .28125 .19851177 .2705078 .1255188 .24902344 .04763794 .22460938-.039693197 .18440755-.12588501 .12841797-.2109375H.033691408Z"/>
<path id="font_1_21" d="M.076660159 0V.70996096H.2211914V.12109375H.5805664V0H.076660159Z"/>
<path id="font_1_22" d="M.3720703 .16503906 .50878909 .14160156C.49121095 .09163412 .4634603 .053588869 .4255371 .02746582 .38761393 .0013427734 .34016929-.01171875 .28320313-.01171875 .19303386-.01171875 .12630208 .017740885 .08300781 .076660159 .048828126 .12386068 .03173828 .18343099 .03173828 .2553711 .03173828 .3413086 .05419922 .40861003 .099121097 .4572754 .14404297 .50594076 .20084636 .53027346 .26953126 .53027346 .3466797 .53027346 .4075521 .50480148 .45214845 .45385743 .49674479 .40291343 .5180664 .32486979 .5161133 .21972656H.17236328C.17333985 .17903646 .18440755 .14737956 .2055664 .12475586 .22672527 .102132167 .25309245 .09082031 .28466798 .09082031 .30615235 .09082031 .32421876 .09667969 .3388672 .10839844 .35351563 .12011719 .36458335 .13899739 .3720703 .16503906M.3798828 .30371095C.37890626 .34326173 .36865235 .3733317 .3491211 .3939209 .32958985 .4145101 .3058268 .4248047 .27783204 .4248047 .24788411 .4248047 .22314453 .41394554 .20361328 .39222718 .18408203 .37049867 .17447917 .34099327 .17480469 .30371095H.3798828M.20458985 .5859375 .27197267 .7324219H.42578126L.2915039 .5859375H.20458985Z"/>
<path id="font_1_23" d="M.21435547 0 .0053710939 .5185547H.14941406L.24707031 .25390626 .27539063 .16552735C.2828776 .18798828 .28759767 .20279949 .28955079 .20996094 .29410807 .22460938 .29899089 .23925781 .30419923 .25390626L.40283204 .5185547H.5439453L.33789063 0H.21435547Z"/>
<path id="font_1_24" d="M.0068359377 .5185547H.15283203L.27685548 .15003968 .39794923 .5185547H.54003909L.3569336 .019363404 .32421876-.07128906C.31217448-.1015625 .30069987-.12467448 .28979493-.140625 .27888999-.15657552 .26635743-.16951497 .25219728-.17944336 .23803711-.18937175 .22062175-.19710286 .19995117-.20263672 .1792806-.20817058 .15592449-.2109375 .12988281-.2109375 .103515628-.2109375 .07763672-.20817058 .052246095-.20263672L.040039064-.095214847C.061523439-.09944662 .08089193-.1015625 .09814453-.1015625 .13004558-.1015625 .15364583-.09220377 .16894531-.07348633 .1842448-.05476888 .19596355-.030924479 .20410156-.001953125L.0068359377 .5185547Z"/>
<path id="font_1_25" d="M.05908203-.033203126 .21582031-.052734376C.21842449-.071136478 .22444661-.08378601 .23388672-.09068298 .24690755-.10054016 .26741538-.10546875 .29541017-.10546875 .33121745-.10546875 .3580729-.10005697 .37597657-.0892334 .38802085-.08202108 .3971354-.070383708 .4033203-.05432129 .4075521-.04284668 .40966798-.021703085 .40966798 .009109497V.08534241C.36865235 .02844747 .31689454 0 .25439454 0 .18473308 0 .1295573 .029459635 .08886719 .088378909 .056966146 .13492839 .041015626 .1928711 .041015626 .26220704 .041015626 .3491211 .06193034 .41552735 .103759769 .46142579 .14558919 .5073242 .19759114 .53027346 .25976563 .53027346 .32389323 .53027346 .37679038 .50198367 .41845704 .44540406V.5185547H.546875V.05291748C.546875-.008321126 .5418294-.054087324 .5317383-.0843811 .52164718-.11467489 .507487-.13845317 .4892578-.15571594 .47102867-.17298889 .44669596-.18650818 .41625978-.1962738 .38582359-.2060496 .34733073-.2109375 .30078126-.2109375 .21289063-.2109375 .15055339-.195755 .11376953-.16539002 .07698568-.1350352 .05859375-.09655253 .05859375-.049942018 .05859375-.045344037 .05875651-.039764406 .05908203-.033203126M.18164063 .27001954C.18164063 .21516927 .19230144 .17500814 .21362305 .14953614 .23494466 .124064128 .26123048 .111328128 .29248048 .111328128 .32600913 .111328128 .35432945 .12438965 .3774414 .1505127 .40055339 .17663574 .41210938 .21533203 .41210938 .26660157 .41210938 .32014976 .40104167 .35990397 .37890626 .38586427 .35677085 .41182456 .32877604 .4248047 .29492188 .4248047 .26204429 .4248047 .23494466 .4120687 .21362305 .38659669 .19230144 .36112467 .18164063 .32226563 .18164063 .27001954Z"/>
<path id="font_1_26" d="M.2084961 .7158203V.4522705C.25276695 .50427249 .30566407 .53027346 .3671875 .53027346 .39876304 .53027346 .4272461 .52441409 .45263673 .5126953 .47802735 .50097659 .4971517 .4860026 .51000979 .46777345 .52286788 .44954429 .5316569 .42936198 .53637698 .40722657 .541097 .38509117 .54345706 .3507487 .54345706 .30419923V0H.40625V.27360536C.40625 .32790629 .40364585 .36237083 .3984375 .3769989 .39322917 .39163719 .3840332 .40326438 .3708496 .4118805 .35766603 .4204966 .34114585 .4248047 .32128907 .4248047 .2985026 .4248047 .27815757 .4192759 .2602539 .40821839 .24235027 .39716087 .22924805 .38049827 .22094727 .3582306 .21264649 .33596293 .2084961 .30303956 .2084961 .25946046V0H.07128906V.7158203H.2084961Z"/>
<path id="font_1_27" d="M.3095703 .5185547V.4091797H.21582031V.200531C.21582031 .15827434 .2167155 .13365174 .21850586 .12666321 .22029622 .11968485 .22436524 .11391703 .23071289 .10935974 .23706055 .10481262 .24479167 .10253906 .25390626 .10253906 .26660157 .10253906 .2849935 .106933597 .30908204 .115722659L.32080079 .008880615C.28889976-.004852295 .25276695-.01171875 .21240235-.01171875 .18766277-.01171875 .16536458-.0075683596 .14550781 .0007324219 .12565105 .009033203 .111083988 .01977539 .10180664 .032958986 .0925293 .046142579 .08610026 .063964847 .08251953 .08642578 .079589847 .102376308 .078125 .13460286 .078125 .18310547V.4091797H.015136719V.5185547H.078125V.6220703L.21582031 .703125V.5185547H.3095703Z"/>
<path id="font_1_28" d="M.067871097 .5185547H.19580078V.4423828C.21240235 .46842448 .23486328 .48958335 .2631836 .5058594 .2915039 .52213546 .32291667 .53027346 .35742188 .53027346 .41764323 .53027346 .46875 .50667318 .5107422 .45947267 .5527344 .41227214 .57373049 .34651695 .57373049 .26220704 .57373049 .17561849 .5525716 .108317058 .5102539 .060302736 .4679362 .012288411 .41666667-.01171875 .3564453-.01171875 .32779948-.01171875 .3018392-.0060221354 .27856446 .0053710939 .2552897 .016764323 .23079427 .036295576 .20507813 .063964847V-.19726563H.067871097V.5185547M.20361328 .2682953C.20361328 .2101186 .21516927 .1671346 .23828125 .13934326 .26139323 .11155192 .28955079 .09765625 .3227539 .09765625 .35465495 .09765625 .3811849 .1104126 .40234376 .1359253 .4235026 .16143799 .43408204 .20328777 .43408204 .2614746 .43408204 .31575523 .4231771 .35605876 .4013672 .38238526 .37955729 .40871177 .35253907 .421875 .3203125 .421875 .28678385 .421875 .2589518 .4089559 .2368164 .38311769 .21468099 .35727946 .20361328 .31900535 .20361328 .2682953Z"/>
<path id="font_1_29" d="M.3720703 .16503906 .50878909 .14160156C.49121095 .09163412 .4634603 .053588869 .4255371 .02746582 .38761393 .0013427734 .34016929-.01171875 .28320313-.01171875 .19303386-.01171875 .12630208 .017740885 .08300781 .076660159 .048828126 .12386068 .03173828 .18343099 .03173828 .2553711 .03173828 .3413086 .05419922 .40861003 .099121097 .4572754 .14404297 .50594076 .20084636 .53027346 .26953126 .53027346 .3466797 .53027346 .4075521 .50480148 .45214845 .45385743 .49674479 .40291343 .5180664 .32486979 .5161133 .21972656H.17236328C.17333985 .17903646 .18440755 .14737956 .2055664 .12475586 .22672527 .102132167 .25309245 .09082031 .28466798 .09082031 .30615235 .09082031 .32421876 .09667969 .3388672 .10839844 .35351563 .12011719 .36458335 .13899739 .3720703 .16503906M.3798828 .30371095C.37890626 .34326173 .36865235 .3733317 .3491211 .3939209 .32958985 .4145101 .3058268 .4248047 .27783204 .4248047 .24788411 .4248047 .22314453 .41394554 .20361328 .39222718 .18408203 .37049867 .17447917 .34099327 .17480469 .30371095H.3798828Z"/>
<path id="font_1_30" d="M.071777347 0V.13769531H.20898438V0H.071777347Z"/>
<path id="font_1_31" d="M.5073242 .5390625 .37451173 .52441409C.3712565 .5517578 .36279298 .5719401 .3491211 .58496096 .33544923 .59798178 .31770835 .6044922 .29589845 .6044922 .2669271 .6044922 .24243164 .5914256 .22241211 .56529238 .20239258 .5391591 .18977864 .48484294 .18457031 .40234376 .21875 .44270835 .26123048 .46289063 .31201173 .46289063 .36930339 .46289063 .41837565 .44114686 .45922853 .3976593 .50008139 .35417176 .5205078 .29802958 .5205078 .22923279 .5205078 .1562144 .49902345 .0976359 .4560547 .053497316 .41308595 .0093688969 .35791017-.0126953129 .29052735-.0126953129 .21826172-.0126953129 .15885417 .015396118 .11230469 .07157898 .06575521 .12777202 .04248047 .21987915 .04248047 .3479004 .04248047 .47916667 .06673177 .5737915 .115234378 .6317749 .16373699 .6897583 .22672527 .71875 .30419923 .71875 .3585612 .71875 .40356446 .7034047 .43920899 .67271426 .47485353 .6420339 .4975586 .59748336 .5073242 .5390625M.19628906 .23991394C.19628906 .19573467 .20654297 .16163127 .22705078 .13760376 .2475586 .113576259 .2709961 .1015625 .29736329 .1015625 .3227539 .1015625 .34391276 .11139933 .36083985 .131073 .37776695 .15074666 .38623048 .18299358 .38623048 .22781372 .38623048 .27393595 .37711589 .3077189 .35888673 .3291626 .34065757 .3506063 .3178711 .36132813 .29052735 .36132813 .26416017 .36132813 .24186199 .35108949 .22363281 .33061219 .20540364 .3101349 .19628906 .27990214 .19628906 .23991394Z"/>
<path id="font_1_32" d="M.2290039 .103515628V.2890625H.041503908V.41796876H.2290039V.6035156H.3540039V.41796876H.5419922V.2890625H.3540039V.103515628H.2290039Z"/>
<path id="font_1_33" d="M.056152345 .19140625V.32910157H.3256836V.19140625H.056152345Z"/>
<path id="font_1_34" d="M.06591797 0V.7158203H.203125V.4580078C.2454427 .5061849 .2955729 .53027346 .35351563 .53027346 .41666667 .53027346 .46891276 .5074056 .5102539 .46166993 .55159506 .41593424 .5722656 .3502604 .5722656 .26464845 .5722656 .17610677 .5511882 .107910159 .5090332 .060058595 .46687828 .012207031 .4156901-.01171875 .35546876-.01171875 .32584635-.01171875 .29663087-.004313151 .26782228 .010498047 .23901367 .025309245 .2141927 .04720052 .19335938 .076171878V0H.06591797M.20214844 .2702484C.20214844 .21661885 .21061199 .17696636 .22753906 .1512909 .2513021 .11488342 .2828776 .09667969 .32226563 .09667969 .35253907 .09667969 .37833659 .10959879 .3996582 .13543701 .42097984 .16127523 .43164063 .20198567 .43164063 .25756837 .43164063 .31673179 .42089845 .35939536 .39941407 .38555909 .3779297 .4117228 .3504232 .4248047 .31689454 .4248047 .28401695 .4248047 .2566732 .41204325 .23486328 .3865204 .21305339 .3610077 .20214844 .32225038 .20214844 .2702484Z"/>
<path id="font_1_35" d="M.044433595 .18408203 .18115235 .19824219C.1850586 .1673177 .19661458 .14282227 .21582031 .12475586 .23502605 .10668945 .25716148 .09765625 .28222657 .09765625 .3108724 .09765625 .3351237 .109313968 .35498048 .1326294 .37483726 .15594483 .38476563 .19108074 .38476563 .23803711 .38476563 .2820638 .3749186 .31508384 .3552246 .33709718 .3355306 .3591105 .30989585 .3701172 .2783203 .3701172 .2389323 .3701172 .20361328 .35253907 .17236328 .3173828L.061035158 .33364869 .13134766 .70703127H.49414063V.578125H.23535156L.21386719 .45661927C.24446614 .4718679 .27571617 .4794922 .3076172 .4794922 .3684896 .4794922 .42008464 .457311 .46240235 .4129486 .50472006 .3685964 .5258789 .31103007 .5258789 .24024964 .5258789 .1812083 .50878909 .12852986 .47460938 .082214359 .4280599 .018941245 .363444-.0126953129 .28076173-.0126953129 .21468099-.0126953129 .1608073 .005086263 .119140628 .040649415 .07747396 .07622274 .052571615 .12403361 .044433595 .18408203Z"/>
<path id="font_1_36" d="M.5239258 .36523438 .38867188 .3408203C.3841146 .36767579 .3737793 .38789878 .35766603 .40148927 .34155274 .41507975 .32063804 .421875 .29492188 .421875 .2607422 .421875 .23347982 .41011048 .21313477 .38658143 .19278972 .36305238 .18261719 .32370506 .18261719 .26853944 .18261719 .2071991 .19295247 .16386922 .21362305 .1385498 .23429363 .11324056 .26204429 .10058594 .296875 .10058594 .32291667 .10058594 .34423829 .10799154 .36083985 .122802738 .3774414 .13761394 .38916017 .16308594 .3959961 .19921875L.5307617 .17578125C.51676437 .11393229 .48990885 .067220058 .4501953 .03564453 .41048179 .0040690104 .35725913-.01171875 .29052735-.01171875 .21468099-.01171875 .1542155 .012207031 .10913086 .060058595 .06404623 .107910159 .041503908 .17415364 .041503908 .25878907 .041503908 .34440104 .0641276 .41105143 .109375 .45874024 .15462239 .506429 .21582031 .53027346 .29296876 .53027346 .35611979 .53027346 .4063314 .5166829 .44360353 .48950196 .48087565 .46232096 .5076497 .42089845 .5239258 .36523438Z"/>
<path id="font_1_37" d="M.037597658 .1899414 .17041016 .20605469C.17464192 .17220052 .18603516 .14632161 .20458985 .12841797 .22314453 .11051432 .24560547 .1015625 .27197267 .1015625 .30029298 .1015625 .32413737 .11230469 .34350587 .13378906 .36287437 .15527344 .3725586 .1842448 .3725586 .22070313 .3725586 .25520835 .36328126 .2825521 .34472657 .30273438 .32617188 .32291667 .3035482 .3330078 .27685548 .3330078 .25927735 .3330078 .23828125 .32958985 .21386719 .3227539L.2290039 .43359376C.26611329 .4326172 .2944336 .4406484 .31396485 .45768739 .3334961 .47473655 .34326173 .49738059 .34326173 .5256195 .34326173 .54963687 .33610026 .5687866 .32177735 .58306887 .30745445 .5973511 .28841148 .6044922 .26464845 .6044922 .24121094 .6044922 .2211914 .5963542 .20458985 .5800781 .18798828 .56380209 .17789714 .54003909 .1743164 .50878909L.047851564 .53027346C.056640626 .5739034 .0699056 .6087596 .087646488 .6348419 .10538737 .66092428 .13012696 .681427 .16186524 .6963501 .19360352 .7112834 .22916667 .71875 .2685547 .71875 .3359375 .71875 .38997398 .6972351 .43066407 .6542053 .46419273 .61898806 .48095704 .57921347 .48095704 .5348816 .48095704 .4719645 .4466146 .42175804 .3779297 .38426209 .4189453 .37547303 .45174156 .35577903 .47631837 .32518006 .5008952 .2945811 .5131836 .2576345 .5131836 .21434021 .5131836 .15152486 .49023438 .09798177 .44433595 .053710939 .3984375 .0094401049 .3413086-.0126953129 .27294923-.0126953129 .20817058-.0126953129 .15445964 .0059865319 .111816409 .04335022 .06917318 .080713909 .044433595 .12957764 .037597658 .1899414Z"/>
</defs>
<g>
<path d="M0 0H450V450H0Z" fill="transparent"/>
<path d="M29.25 34.5H438V108H29.25Z" fill="transparent"/>
<path d="M29.25 144H438V218.25H29.25Z" fill="transparent"/>
<path d="M29.25 254.25H438V328.5H29.25Z" fill="transparent"/>
<path d="M29.25 363.75H438V438H29.25Z" fill="transparent"/>
<use data-text="N" xlink:href="#font_1_1" transform="matrix(9.9,0,0,-9.9,36.724264,20.63473)"/>
<use data-text="o" xlink:href="#font_1_2" transform="matrix(9.9,0,0,-9.9,43.872064,20.63473)"/>
<use data-text="r" xlink:href="#font_1_3" transform="matrix(9.9,0,0,-9.9,49.920965,20.63473)"/>
<use data-text="m" xlink:href="#font_1_4" transform="matrix(9.9,0,0,-9.9,53.772066,20.63473)"/>
<use data-text="a" xlink:href="#font_1_5" transform="matrix(9.9,0,0,-9.9,62.573167,20.63473)"/>
<use data-text="l" xlink:href="#font_1_6" transform="matrix(9.9,0,0,-9.9,68.07757,20.63473)"/>
<use data-text=" " xlink:href="#font_1_7" transform="matrix(9.9,0,0,-9.9,70.829769,20.63473)"/>
<use data-text="d" xlink:href="#font_1_8" transform="matrix(9.9,0,0,-9.9,73.58196,20.63473)"/>
<use data-text="i" xlink:href="#font_1_9" transform="matrix(9.9,0,0,-9.9,79.63086,20.63473)"/>
<use data-text="f" xlink:href="#font_1_10" transform="matrix(9.9,0,0,-9.9,82.38306,20.63473)"/>
<use data-text="f" xlink:href="#font_1_10" transform="matrix(9.9,0,0,-9.9,85.679759,20.63473)"/>
<use data-text="u" xlink:href="#font_1_11" transform="matrix(9.9,0,0,-9.9,88.976459,20.63473)"/>
<use data-text="s" xlink:href="#font_1_12" transform="matrix(9.9,0,0,-9.9,95.02535,20.63473)"/>
<use data-text="i" xlink:href="#font_1_9" transform="matrix(9.9,0,0,-9.9,100.529758,20.63473)"/>
<use data-text="o" xlink:href="#font_1_2" transform="matrix(9.9,0,0,-9.9,103.28195,20.63473)"/>
<use data-text="n" xlink:href="#font_1_13" transform="matrix(9.9,0,0,-9.9,109.33085,20.63473)"/>
<use data-text="(" xlink:href="#font_1_14" transform="matrix(9.9,0,0,-9.9,36.724264,32.01876)"/>
<use data-text="&#x03b1;" xlink:href="#font_2_1" transform="matrix(9.9,0,0,-9.9,40.02096,32.01876)"/>
<use data-text="=" xlink:href="#font_1_15" transform="matrix(9.9,0,0,-9.9,46.109464,32.01876)"/>
<use data-text="2" xlink:href="#font_1_16" transform="matrix(9.9,0,0,-9.9,51.891065,32.01876)"/>
<use data-text="," xlink:href="#font_1_17" transform="matrix(9.9,0,0,-9.9,57.395463,32.01876)"/>
<use data-text=" " xlink:href="#font_1_7" transform="matrix(9.9,0,0,-9.9,60.147665,32.01876)"/>
<use data-text="&#x03b2;" xlink:href="#font_2_2" transform="matrix(9.9,0,0,-9.9,62.899866,32.01876)"/>
<use data-text="=" xlink:href="#font_1_15" transform="matrix(9.9,0,0,-9.9,68.938869,32.01876)"/>
<use data-text="1" xlink:href="#font_1_18" transform="matrix(9.9,0,0,-9.9,74.72047,32.01876)"/>
<use data-text="," xlink:href="#font_1_17" transform="matrix(9.9,0,0,-9.9,80.22487,32.01876)"/>
<use data-text=" " xlink:href="#font_1_7" transform="matrix(9.9,0,0,-9.9,82.977069,32.01876)"/>
<use data-text="&#x03b3;" xlink:href="#font_2_3" transform="matrix(9.9,0,0,-9.9,85.72926,32.01876)"/>
<use data-text="=" xlink:href="#font_1_15" transform="matrix(9.9,0,0,-9.9,91.233669,32.01876)"/>
<use data-text="0" xlink:href="#font_1_19" transform="matrix(9.9,0,0,-9.9,97.01527,32.01876)"/>
<use data-text=")" xlink:href="#font_1_20" transform="matrix(9.9,0,0,-9.9,102.51967,32.01876)"/>
<path stroke-width="1.5" stroke-linecap="round" stroke-linejoin="round" fill="none" stroke="#cccccc" d="M47.828 90.906 48.574 91.895 49.316 92.98 50.059 91.414 50.801 87.574 51.547 86.613 52.289 89.125 53.031 86.172 53.773 86.719 54.52 80.477 55.262 81.391 56.004 81.926 56.746 77.402 57.492 76.48 58.234 76.543 58.977 75.324 59.719 77.809 60.465 80.563 61.207 78.621 61.949 79.469 62.691 80.582 63.438 81.191 64.18 82.09 64.922 80.715 65.664 78.398 66.41 75.758 67.152 72.547 67.895 71.34 68.637 69.82 69.383 71.879 70.125 71.922 70.867 69.063 71.613 73.957 72.355 73.641 73.098 71.676 73.84 72.641 74.586 72.16 75.328 69.914 76.07 71.008 76.813 72.965 77.559 68.895 78.301 67.996 79.043 68.051 79.785 68.91 80.531 68.746 81.273 69.008 82.016 70.621 82.758 71.328 83.504 70.703 84.246 70.523 84.988 71.832 85.73 70.289 86.477 71.188 87.219 69.746 87.961 71.199 88.703 70.563 89.449 68.156 90.191 68.137 90.934 67.887 91.676 65.531 92.422 65.461 93.164 65.219 93.906 63.613 94.648 62.297 95.395 61.793 96.137 61.84 96.879 61.066 97.621 57.684 98.367 61.535 99.109 59.477 99.852 58.453 100.594 58.254 101.34 57.813 102.082 56.789 102.824 57.883 103.566 51.258 104.313 47.598 105.055 47.707 105.797 46.43 106.539 45.934 107.285 47.262 108.027 46.527 108.77 45.609 109.512 44.727 110.258 45.176 111 44.441 111.742 41.398 112.488 45.445 113.23 45.418 113.973 46.074 114.715 44.922 115.461 46.684 116.203 52.371 116.945 53.59 117.688 54.688 118.434 54.652 119.176 54.523 119.918 58.809 120.66 61.613 121.406 59.551 122.148 60.465 122.891 58.555 123.633 57.996 124.379 59.645 125.121 56.285 125.863 55.465 126.605 54.184 127.352 50.367 128.094 51.227 128.836 49.621 129.578 50.727 130.324 48.75 131.066 46.223 131.809 45.969 132.551 40.828 133.297 39.316 134.039 37.84 134.781 40.074 135.523 43.141 136.27 46.723 137.012 46.918 137.754 47.898 138.496 51.18 139.242 50.426 139.984 52.441 140.727 53.004 141.469 56.887 142.215 56.84 142.957 59.77 143.699 62.008 144.441 63.379 145.188 63.199 145.93 67.32 146.672 67.871 147.414 68.223 148.16 68.418 148.902 67.438 149.645 69.836 150.387 71.75 151.133 69.371 151.875 67.809 152.617 67.254 153.363 67.117 154.105 68.215 154.848 68.598 155.59 69.617 156.336 69.824 157.078 71.637 157.82 70.621 158.563 72.496 159.309 68.215 160.051 69.258 160.793 68.449 161.535 67.297 162.281 68.527 163.023 71.664 163.766 68.641 164.508 67.934 165.254 68.008 165.996 65.355 166.738 67.152 167.48 67.289 168.227 65.152 168.969 58.316 169.711 57.953 170.453 58.648 171.199 56.898 171.941 57.863 172.684 59.883 173.426 59.379 174.172 57.301 174.914 59.195 175.656 59.898 176.398 57.523 177.145 55.355 177.887 56.313 178.629 55.469 179.371 54.066 180.117 53.629 180.859 53.664 181.602 54.488 182.344 54.73 183.09 54.535 183.832 55.578 184.574 53.293 185.316 54.418 186.063 57.145 186.805 55.469 187.547 54.453 188.289 56.277 189.035 56.082 189.777 54.84 190.52 55.621 191.262 56.84 192.008 56.262 192.75 51.031 193.492 53.422 194.238 52.363 194.98 51.707 195.723 53.691 196.465 52.355 197.211 53.836 197.953 54.453 198.695 55.582 199.438 57.891 200.184 59.613 200.926 58.809 201.668 58.344 202.41 58.109 203.156 58.887 203.898 58.52 204.641 63.109 205.383 59.695 206.129 61.816 206.871 61.523 207.613 61.816 208.355 64.43 209.102 67.129 209.844 66.391 210.586 63.02 211.328 58.465 212.074 59.902 212.816 63.344 213.559 62.18 214.301 61.066 215.047 56.547 215.789 59.773 216.531 57.699 217.273 57.988 218.02 54.762 218.762 54.434 219.504 52.152 220.246 51.691 220.992 53.109 221.734 52.531 222.477 52.219 223.219 53.512 223.965 54.625 224.707 55.039 225.449 57.457 226.191 55.836 226.938 56.602 227.68 54.164 228.422 50.082 229.164 51.094 229.91 49.949 230.652 50.664 231.395 51.828 232.137 54.598 232.883 53.988 233.625 56.563 234.367 55.039 235.113 52.16 235.855 52.559 236.598 55.051 237.34 52.977 238.086 53.414 238.828 53.859 239.57 57.813 240.313 63.457 241.059 65.27 241.801 65.125 242.543 68.391 243.285 62.93 244.031 63.176 244.773 61.57 245.516 59.328 246.258 58.441 247.004 59.988 247.746 57.746 248.488 57.332 249.23 62.316 249.977 65.297 250.719 65.152 251.461 63.285 252.203 59.336 252.949 58.391 253.691 61.992 254.434 66.277 255.176 65.93 255.922 62.285 256.664 64.598 257.406 64.934 258.148 60.902 258.895 61.984 259.637 61.27 260.379 59.578 261.121 59.848 261.867 65.793 262.609 66.012 263.352 64.691 264.094 65.684 264.84 63.113 265.582 63.477 266.324 62.32 267.066 61.512 267.813 61.102 268.555 63.238 269.297 60.594 270.039 61.742 270.785 61.992 271.527 63.383 272.27 63.355 273.012 61.578 273.758 63.238 274.5 64.676 275.242 65.715 275.988 65.527 276.73 70.012 277.473 74.43 278.215 77.855 278.961 77.797 279.703 77.082 280.445 77.324 281.188 75.137 281.934 74.047 282.676 71.09 283.418 70.48 284.16 70.547 284.906 69.871 285.648 71.582 286.391 73.844 287.133 75.207 287.879 74.41 288.621 74.336 289.363 72.051 290.105 75.473 290.852 74.656 291.594 75.926 292.336 73.34 293.078 76.922 293.824 74.168 294.566 73.988 295.309 73.402 296.051 75.301 296.797 77.098 297.539 71.082 298.281 71.777 299.023 70.801 299.77 71.984 300.512 72.555 301.254 73.766 301.996 71.656 302.742 71.152 303.484 73.109 304.227 75.816 304.969 77.254 305.715 79.707 306.457 79.379 307.199 79.719 307.941 79.551 308.688 81.051 309.43 81.457 310.172 80.629 310.914 82.457 311.66 79.855 312.402 75.719 313.145 70.895 313.887 69.426 314.633 68.18 315.375 65.613 316.117 62.59 316.863 62.895 317.605 63.273 318.348 66.996 319.09 63.301 319.836 59.352 320.578 62.516 321.32 63.449 322.063 59.988 322.809 61.309 323.551 58.102 324.293 58.016 325.035 61.32 325.781 66.43 326.523 65.246 327.266 65.344 328.008 62.246 328.754 58.281 329.496 61.074 330.238 60.145 330.98 61.906 331.727 60.898 332.469 61.273 333.211 62.246 333.953 63.629 334.699 63.512 335.441 62.578 336.184 65.574 336.926 66.754 337.672 67.051 338.414 67.906 339.156 68.301 339.898 66.891 340.645 67.074 341.387 65.109 342.129 67.41 342.871 71.008 343.617 68.684 344.359 68.258 345.102 71.816 345.844 73.289 346.59 76.613 347.332 76.234 348.074 79.039 348.816 83.414 349.563 85.371 350.305 82.25 351.047 84.492 351.789 78.582 352.535 78.938 353.277 79.172 354.02 80.738 354.762 79.234 355.508 75.449 356.25 76.688 356.992 79.266 357.738 77.289 358.48 80.762 359.223 79.984 359.965 78.488 360.711 78.469 361.453 80.746 362.195 79.57 362.938 83.164 363.684 84.758 364.426 81.59 365.168 79.961 365.91 80.578 366.656 76.383 367.398 78.961 368.141 81.277 368.883 83.09 369.629 82.539 370.371 84.102 371.113 82.191 371.855 84.207 372.602 86.059 373.344 85.688 374.086 89.125 374.828 89.258 375.574 88.641 376.316 91.363 377.059 90.797 377.801 86.711 378.547 80.688 379.289 79.242 380.031 79.41 380.773 79.031 381.52 77.078 382.262 77.723 383.004 79.672 383.746 81.777 384.492 79.438 385.234 83.898 385.977 83.363 386.719 83.48 387.465 82.309 388.207 82.723 388.949 81.211 389.691 82.582 390.438 83.957 391.18 84.371 391.922 85.883 392.664 89.055 393.41 92.422 394.152 90.633 394.895 90.84 395.637 93.172 396.383 95.035 397.125 92.266 397.867 92.918 398.613 89.41 399.355 90.176 400.098 90.914 400.84 89.641 401.586 90.426 402.328 89.031 403.07 89.969 403.813 92.051 404.559 91.918 405.301 93 406.043 96.395 406.785 95.344 407.531 96.227 408.273 97.223 409.016 98.18 409.758 100.719 410.504 101.906 411.246 101.629 411.988 100.566 412.73 100.793 413.477 99.383 414.219 99.086 414.961 98.973 415.703 102.789 416.449 102.008 417.191 101.809 417.934 101.07 418.676 100.91 419.422 104.66"/>
<use data-text="L" xlink:href="#font_1_21" transform="matrix(9.9,0,0,-9.9,36.56474,130.13472)"/>
<use data-text="&#x00e9;" xlink:href="#font_1_22" transform="matrix(9.9,0,0,-9.9,42.61364,130.13472)"/>
<use data-text="v" xlink:href="#font_1_23" transform="matrix(9.9,0,0,-9.9,48.118043,130.13472)"/>
<use data-text="y" xlink:href="#font_1_24" transform="matrix(9.9,0,0,-9.9,53.622446,130.13472)"/>
<use data-text=" " xlink:href="#font_1_7" transform="matrix(9.9,0,0,-9.9,59.126848,130.13472)"/>
<use data-text="f" xlink:href="#font_1_10" transform="matrix(9.9,0,0,-9.9,61.879049,130.13472)"/>
<use data-text="l" xlink:href="#font_1_6" transform="matrix(9.9,0,0,-9.9,65.17575,130.13472)"/>
<use data-text="i" xlink:href="#font_1_9" transform="matrix(9.9,0,0,-9.9,67.92795,130.13472)"/>
<use data-text="g" xlink:href="#font_1_25" transform="matrix(9.9,0,0,-9.9,70.680149,130.13472)"/>
<use data-text="h" xlink:href="#font_1_26" transform="matrix(9.9,0,0,-9.9,76.72904,130.13472)"/>
<use data-text="t" xlink:href="#font_1_27" transform="matrix(9.9,0,0,-9.9,82.77794,130.13472)"/>
<use data-text=" " xlink:href="#font_1_7" transform="matrix(9.9,0,0,-9.9,86.07464,130.13472)"/>
<use data-text="s" xlink:href="#font_1_12" transform="matrix(9.9,0,0,-9.9,88.826839,130.13472)"/>
<use data-text="u" xlink:href="#font_1_11" transform="matrix(9.9,0,0,-9.9,94.33124,130.13472)"/>
<use data-text="p" xlink:href="#font_1_28" transform="matrix(9.9,0,0,-9.9,100.380138,130.13472)"/>
<use data-text="e" xlink:href="#font_1_29" transform="matrix(9.9,0,0,-9.9,106.42903,130.13472)"/>
<use data-text="r" xlink:href="#font_1_3" transform="matrix(9.9,0,0,-9.9,111.93343,130.13472)"/>
<use data-text="d" xlink:href="#font_1_8" transform="matrix(9.9,0,0,-9.9,115.78453,130.13472)"/>
<use data-text="i" xlink:href="#font_1_9" transform="matrix(9.9,0,0,-9.9,121.83343,130.13472)"/>
<use data-text="f" xlink:href="#font_1_10" transform="matrix(9.9,0,0,-9.9,124.585628,130.13472)"/>
<use data-text="f" xlink:href="#font_1_10" transform="matrix(9.9,0,0,-9.9,127.882328,130.13472)"/>
<use data-text="u" xlink:href="#font_1_11" transform="matrix(9.9,0,0,-9.9,131.17903,130.13472)"/>
<use data-text="s" xlink:href="#font_1_12" transform="matrix(9.9,0,0,-9.9,137.22794,130.13472)"/>
<use data-text="i" xlink:href="#font_1_9" transform="matrix(9.9,0,0,-9.9,142.73233,130.13472)"/>
<use data-text="o" xlink:href="#font_1_2" transform="matrix(9.9,0,0,-9.9,145.48453,130.13472)"/>
<use data-text="n" xlink:href="#font_1_13" transform="matrix(9.9,0,0,-9.9,151.53343,130.13472)"/>
<use data-text=" " xlink:href="#font_1_7" transform="matrix(9.9,0,0,-9.9,157.58234,130.13472)"/>
<use data-text=" " xlink:href="#font_1_7" transform="matrix(9.9,0,0,-9.9,160.33454,130.13472)"/>
<use data-text=" " xlink:href="#font_1_7" transform="matrix(9.9,0,0,-9.9,163.08673,130.13472)"/>
<use data-text=" " xlink:href="#font_1_7" transform="matrix(9.9,0,0,-9.9,165.83893,130.13472)"/>
<use data-text=" " xlink:href="#font_1_7" transform="matrix(9.9,0,0,-9.9,168.59113,130.13472)"/>
<use data-text="(" xlink:href="#font_1_14" transform="matrix(9.9,0,0,-9.9,36.56474,141.51876)"/>
<use data-text="&#x03b1;" xlink:href="#font_2_1" transform="matrix(9.9,0,0,-9.9,39.86152,141.51877)" fill="#6495ed"/>
<use data-text="=" xlink:href="#font_1_15" transform="matrix(9.9,0,0,-9.9,45.95002,141.51877)" fill="#6495ed"/>
<use data-text="1" xlink:href="#font_1_18" transform="matrix(9.9,0,0,-9.9,51.73162,141.51877)" fill="#6495ed"/>
<use data-text="." xlink:href="#font_1_30" transform="matrix(9.9,0,0,-9.9,57.236024,141.51877)" fill="#6495ed"/>
<use data-text="6" xlink:href="#font_1_31" transform="matrix(9.9,0,0,-9.9,59.988225,141.51877)" fill="#6495ed"/>
<use data-text="," xlink:href="#font_1_17" transform="matrix(9.9,0,0,-9.9,65.4913,141.51877)"/>
<use data-text=" " xlink:href="#font_1_7" transform="matrix(9.9,0,0,-9.9,68.2435,141.51877)"/>
<use data-text="&#x03b2;" xlink:href="#font_2_2" transform="matrix(9.9,0,0,-9.9,70.9957,141.51877)"/>
<use data-text="=" xlink:href="#font_1_15" transform="matrix(9.9,0,0,-9.9,77.0347,141.51877)"/>
<use data-text="1" xlink:href="#font_1_18" transform="matrix(9.9,0,0,-9.9,82.8163,141.51877)"/>
<use data-text="," xlink:href="#font_1_17" transform="matrix(9.9,0,0,-9.9,88.3207,141.51877)"/>
<use data-text=" " xlink:href="#font_1_7" transform="matrix(9.9,0,0,-9.9,91.0729,141.51877)"/>
<use data-text="&#x03b3;" xlink:href="#font_2_3" transform="matrix(9.9,0,0,-9.9,93.825099,141.51877)"/>
<use data-text="=" xlink:href="#font_1_15" transform="matrix(9.9,0,0,-9.9,99.3295,141.51877)"/>
<use data-text="0" xlink:href="#font_1_19" transform="matrix(9.9,0,0,-9.9,105.1111,141.51877)"/>
<use data-text=")" xlink:href="#font_1_20" transform="matrix(9.9,0,0,-9.9,110.6155,141.51877)"/>
<path stroke-width="1.5" stroke-linecap="round" stroke-linejoin="round" fill="none" stroke="#6495ed" d="M47.828 190.277 48.574 188.773 49.316 189.539 50.059 189.152 50.801 188.316 51.547 188.16 52.289 188.887 53.031 188.215 53.773 188.281 54.52 188.715 55.262 188.059 56.004 188.762 56.746 190.418 57.492 189.453 58.234 188.195 58.977 190.172 59.719 191.043 60.465 186.375 61.207 187.406 61.949 188.035 62.691 186.938 63.438 190.055 64.18 197.262 64.922 201.598 65.664 202.938 66.41 203.383 67.152 204.102 67.895 202.176 68.637 201.359 69.383 200.527 70.125 198.082 70.867 196.375 71.613 198.609 72.355 200.023 73.098 199.668 73.84 200.957 74.586 200.27 75.328 200.32 76.07 200.43 76.813 200.078 77.559 200.582 78.301 201.051 79.043 203.914 79.785 203.523 80.531 201.051 81.273 203.645 82.016 204.699 82.758 207.641 83.504 206.23 84.246 205.156 84.988 205.598 85.73 204.324 86.477 205.84 87.219 198.313 87.961 198.004 88.703 199.207 89.449 198.25 90.191 197.543 90.934 198.176 91.676 197.094 92.422 197.277 93.164 199.773 93.906 197.215 94.648 195.879 95.395 195.023 96.137 193.281 96.879 191.918 97.621 192.75 98.367 191.793 99.109 190.504 99.852 190.141 100.594 190.438 101.34 186.965 102.082 187.074 102.824 187.016 103.566 192.164 104.313 192.652 105.055 191.785 105.797 190.004 106.539 190.219 107.285 190.855 108.027 187.367 108.77 187.109 109.512 187.438 110.258 190.109 111 189.629 111.742 189.609 112.488 189.066 113.23 187.832 113.973 188.141 114.715 186.98 115.461 186.188 116.203 187.234 116.945 185.598 117.688 188.57 118.434 191.273H119.176L119.918 200.832 120.66 201.559 121.406 202.059 122.148 203.906 122.891 201.246 123.633 201.949 124.379 202.66 125.121 203.031 125.863 204.398 126.605 202.852 127.352 197.809 128.094 196.277 128.836 192.086 129.578 191.805 130.324 190.141 131.066 186.727 131.809 190.43 132.551 190.379 133.297 187.914 134.039 187.57 134.781 186.422 135.523 182.156 136.27 183.387 137.012 178.605 137.754 179.719 138.496 181.656 139.242 183.195 139.984 186.84 140.727 184.586 141.469 185.504 142.215 186.41 142.957 185.844 143.699 185.672 144.441 196.199 145.188 196.551 145.93 194.121 146.672 194.871 147.414 192.77 148.16 190.629 148.902 193.914 149.645 191.48 150.387 190.824 151.133 188.527 151.875 189.516 152.617 188.699 153.363 180.527 154.105 182.383 154.848 172.164 155.59 171.102 156.336 173.133 157.078 174.66 157.82 175.746 158.563 175.832 159.309 175.195 160.051 174.164 160.793 175.664 161.535 178.859 162.281 180.684 163.023 176.477 163.766 175.883 164.508 173.297 165.254 172.32 165.996 171.793 166.738 172.324 167.48 172.613 168.227 175.461 168.969 182.781 169.711 184.98 170.453 182.93 171.199 186.695 171.941 185.199 172.684 183.996 173.426 182.148 174.172 181.176 174.914 180.52 175.656 180.465 176.398 177.824 177.145 176.23 177.887 174.637 178.629 173.852 179.371 174.277 180.117 175.422 180.859 175.953 181.602 175.504 182.344 176.398 183.09 178.551 183.832 181.145 184.574 177.656 185.316 176.367 186.063 173.133 186.805 175.645 187.547 174.879 188.289 173.859 189.035 173.59 189.777 181.5 190.52 180.699 191.262 175.926 192.008 180.672 192.75 180.488 193.492 180.234 194.238 181.207 194.98 181.152 195.723 180.957 196.465 182.332 197.211 181.527 197.953 185.414 198.695 187.277 199.438 188.801 200.184 193.344 200.926 193.883 201.668 194.293 202.41 192.391 203.156 192.355 203.898 192.727 204.641 194.473 205.383 194.168 206.129 193.98 206.871 194.699 207.613 194.512 208.355 185.742 209.102 186.051 209.844 184.266 210.586 182.758 211.328 182.887 212.074 183.266 212.816 183.402 213.559 183.879 214.301 185.395 215.047 184.086 215.789 185.191 216.531 182.504 217.273 181.879 218.02 181.477 218.762 183.684 219.504 183.324 220.246 182.379 220.992 181.602 221.734 183.746 222.477 183.328 223.219 183.828 223.965 182.648 224.707 184 225.449 184.316 226.191 182.789 226.938 183.164 227.68 183.238 228.422 182.113 229.164 184.031 229.91 185.008 230.652 191.633 231.395 191.996 232.137 171.52 232.883 172.688 233.625 172.484 234.367 172.348 235.113 174.063 235.855 176.313 236.598 176.043 237.34 176.129 238.086 175.445 238.828 174.695 239.57 175.34 240.313 175.879 241.059 176.492 241.801 179.535 242.543 176.301 243.285 175.504 244.031 177.551 244.773 183.844 245.516 184.082 246.258 181.727 247.004 183.02 247.746 178.418 248.488 177.566 249.23 176.367 249.977 176.199 250.719 176.422 251.461 181.176 252.203 179.816 252.949 178.16 253.691 176.496 254.434 175.758 255.176 178.043 255.922 177.035 256.664 173.316 257.406 173.586 258.148 169.063 258.895 169.52 259.637 171.645 260.379 173.484 261.121 171.391 261.867 170.355 262.609 168.77 263.352 169.809 264.094 168.184 264.84 168.398 265.582 166.523 266.324 164.496 267.066 167.531 267.813 172.371 268.555 171.598 269.297 173.273 270.039 159.402 270.785 160.055 271.527 161.188 272.27 161.973 273.012 162.27 273.758 162.781 274.5 163.168 275.242 164.609 275.988 163.566 276.73 163.922 277.473 164.359 278.215 166.379 278.961 166.109 279.703 164.109 280.445 162.742 281.188 161.031 281.934 160.191 282.676 159.363 283.418 161.824 284.16 162.137 284.906 164.547 285.648 163.59 286.391 163.105 287.133 164.348 287.879 168.609 288.621 169.328 289.363 168.398 290.105 167.094 290.852 169.336 291.594 211.313 292.336 214.426 293.078 212.922 293.824 211.953 294.566 213.191 295.309 213.07 296.051 213.305 296.797 214.352 297.539 213.168 298.281 214.875 299.023 213.789 299.77 212.094 300.512 211.188 301.254 211.758 301.996 212.805 302.742 211.355 303.484 211.789 304.227 199.859 304.969 201.828 305.715 202.832 306.457 203.254 307.199 208.152 307.941 209.379 308.688 177.051 309.43 175.328 310.172 178.883 310.914 178.125 311.66 177.785 312.402 178.195 313.145 177.688 313.887 174.832 314.633 176.238 315.375 176.145 316.117 176.426 316.863 175.664 317.605 180.063 318.348 178.59 319.09 162.504 319.836 162.598 320.578 162.684 321.32 163.953 322.063 160.762 322.809 163.746 323.551 165.563 324.293 166.207 325.035 165.297 325.781 166.957 326.523 168.793 327.266 171.57 328.008 171.215 328.754 171.898 329.496 171.551 330.238 170.367 330.98 169.52 331.727 172.152 332.469 172.77 333.211 172.801 333.953 170.156 334.699 169.094 335.441 169 336.184 174.293 336.926 176.164 337.672 175.074 338.414 175.945 339.156 176.086 339.898 175.734 340.645 177.367 341.387 174.984 342.129 171.609 342.871 173.508 343.617 175.914 344.359 174.219 345.102 171.035 345.844 171.266 346.59 171.43 347.332 173.027 348.074 173.914 348.816 162.73 349.563 157.465 350.305 158.23 351.047 161.922 351.789 163.219 352.535 166.789 353.277 167.953 354.02 167.777 354.762 171.602 355.508 172.125 356.25 172.578 356.992 172.043 357.738 172.059 358.48 172.176 359.223 171.676 359.965 173.176 360.711 174.383 361.453 172.926 362.195 171.992 362.938 171.488 363.684 172.484 364.426 173.516 365.168 174.461 365.91 176.234 366.656 176.066 367.398 177.746 368.141 176.633 368.883 176.309 369.629 179.527 370.371 173.469 371.113 174.152 371.855 174.441 372.602 174.398 373.344 173.75 374.086 168.906 374.828 170.836 375.574 171.891 376.316 174.031 377.059 175.691 377.801 174.773 378.547 175.832 379.289 176.672 380.031 173.645 380.773 168.77 381.52 169.836 382.262 169.703 383.004 167.156 383.746 163.156 384.492 167.07 385.234 165.371 385.977 164.16 386.719 165.504 387.465 160.988 388.207 160.434 388.949 161.711 389.691 161.316 390.438 160.473 391.18 159.414 391.922 160.379 392.664 160.898 393.41 159.508 394.152 161.617 394.895 161.813 395.637 163.922 396.383 164.047 397.125 163.207 397.867 159.813 398.613 158.898 399.355 156.422 400.098 153.242 400.84 156.422 401.586 155.734 402.328 155.711 403.07 156.152 403.813 158.684 404.559 156.844 405.301 153.762 406.043 154.391H406.785L407.531 155.555 408.273 155.902 409.016 155.895 409.758 152.891 410.504 156.215 411.246 154.578 411.988 153.164 412.73 150.352 413.477 151.359 414.219 148.953 414.961 147.789 415.703 147.375 416.449 148.016 417.191 149.281 417.934 147.773 418.676 150.211 419.422 149.754"/>
<use data-text="L" xlink:href="#font_1_21" transform="matrix(9.9,0,0,-9.9,36.56474,240.38475)"/>
<use data-text="&#x00e9;" xlink:href="#font_1_22" transform="matrix(9.9,0,0,-9.9,42.61364,240.38475)"/>
<use data-text="v" xlink:href="#font_1_23" transform="matrix(9.9,0,0,-9.9,48.118043,240.38475)"/>
<use data-text="y" xlink:href="#font_1_24" transform="matrix(9.9,0,0,-9.9,53.622446,240.38475)"/>
<use data-text=" " xlink:href="#font_1_7" transform="matrix(9.9,0,0,-9.9,59.126848,240.38475)"/>
<use data-text="f" xlink:href="#font_1_10" transform="matrix(9.9,0,0,-9.9,61.879049,240.38475)"/>
<use data-text="l" xlink:href="#font_1_6" transform="matrix(9.9,0,0,-9.9,65.17575,240.38475)"/>
<use data-text="i" xlink:href="#font_1_9" transform="matrix(9.9,0,0,-9.9,67.92795,240.38475)"/>
<use data-text="g" xlink:href="#font_1_25" transform="matrix(9.9,0,0,-9.9,70.680149,240.38475)"/>
<use data-text="h" xlink:href="#font_1_26" transform="matrix(9.9,0,0,-9.9,76.72904,240.38475)"/>
<use data-text="t" xlink:href="#font_1_27" transform="matrix(9.9,0,0,-9.9,82.77794,240.38475)"/>
<use data-text="s" xlink:href="#font_1_12" transform="matrix(9.9,0,0,-9.9,86.07464,240.38475)"/>
<use data-text=" " xlink:href="#font_1_7" transform="matrix(9.9,0,0,-9.9,91.57904,240.38475)"/>
<use data-text="+" xlink:href="#font_1_32" transform="matrix(9.9,0,0,-9.9,94.33124,240.38475)"/>
<use data-text=" " xlink:href="#font_1_7" transform="matrix(9.9,0,0,-9.9,100.11284,240.38475)"/>
<use data-text="l" xlink:href="#font_1_6" transform="matrix(9.9,0,0,-9.9,102.865039,240.38475)"/>
<use data-text="o" xlink:href="#font_1_2" transform="matrix(9.9,0,0,-9.9,105.61723,240.38475)"/>
<use data-text="n" xlink:href="#font_1_13" transform="matrix(9.9,0,0,-9.9,111.66613,240.38475)"/>
<use data-text="g" xlink:href="#font_1_25" transform="matrix(9.9,0,0,-9.9,117.71503,240.38475)"/>
<use data-text="-" xlink:href="#font_1_33" transform="matrix(9.9,0,0,-9.9,123.76392,240.38475)"/>
<use data-text="r" xlink:href="#font_1_3" transform="matrix(9.9,0,0,-9.9,127.06062,240.38475)"/>
<use data-text="a" xlink:href="#font_1_5" transform="matrix(9.9,0,0,-9.9,130.91173,240.38475)"/>
<use data-text="n" xlink:href="#font_1_13" transform="matrix(9.9,0,0,-9.9,136.41613,240.38475)"/>
<use data-text="g" xlink:href="#font_1_25" transform="matrix(9.9,0,0,-9.9,142.46503,240.38475)"/>
<use data-text="e" xlink:href="#font_1_29" transform="matrix(9.9,0,0,-9.9,148.51393,240.38475)"/>
<use data-text=" " xlink:href="#font_1_7" transform="matrix(9.9,0,0,-9.9,154.01833,240.38475)"/>
<use data-text="m" xlink:href="#font_1_4" transform="matrix(9.9,0,0,-9.9,156.77053,240.38475)"/>
<use data-text="e" xlink:href="#font_1_29" transform="matrix(9.9,0,0,-9.9,165.57163,240.38475)"/>
<use data-text="m" xlink:href="#font_1_4" transform="matrix(9.9,0,0,-9.9,171.07602,240.38475)"/>
<use data-text="o" xlink:href="#font_1_2" transform="matrix(9.9,0,0,-9.9,179.87712,240.38475)"/>
<use data-text="r" xlink:href="#font_1_3" transform="matrix(9.9,0,0,-9.9,185.92603,240.38475)"/>
<use data-text="y" xlink:href="#font_1_24" transform="matrix(9.9,0,0,-9.9,189.77713,240.38475)"/>
<use data-text=" " xlink:href="#font_1_7" transform="matrix(9.9,0,0,-9.9,195.28153,240.38475)"/>
<use data-text="s" xlink:href="#font_1_12" transform="matrix(9.9,0,0,-9.9,198.03372,240.38475)"/>
<use data-text="u" xlink:href="#font_1_11" transform="matrix(9.9,0,0,-9.9,203.53812,240.38475)"/>
<use data-text="b" xlink:href="#font_1_34" transform="matrix(9.9,0,0,-9.9,209.58702,240.38475)"/>
<use data-text="d" xlink:href="#font_1_8" transform="matrix(9.9,0,0,-9.9,215.63593,240.38475)"/>
<use data-text="i" xlink:href="#font_1_9" transform="matrix(9.9,0,0,-9.9,221.68483,240.38475)"/>
<use data-text="f" xlink:href="#font_1_10" transform="matrix(9.9,0,0,-9.9,224.43703,240.38475)"/>
<use data-text="f" xlink:href="#font_1_10" transform="matrix(9.9,0,0,-9.9,227.73374,240.38475)"/>
<use data-text="u" xlink:href="#font_1_11" transform="matrix(9.9,0,0,-9.9,231.03044,240.38475)"/>
<use data-text="s" xlink:href="#font_1_12" transform="matrix(9.9,0,0,-9.9,237.07935,240.38475)"/>
<use data-text="i" xlink:href="#font_1_9" transform="matrix(9.9,0,0,-9.9,242.58374,240.38475)"/>
<use data-text="o" xlink:href="#font_1_2" transform="matrix(9.9,0,0,-9.9,245.33594,240.38475)"/>
<use data-text="n" xlink:href="#font_1_13" transform="matrix(9.9,0,0,-9.9,251.38484,240.38475)"/>
<use data-text="(" xlink:href="#font_1_14" transform="matrix(9.9,0,0,-9.9,36.56474,251.76876)"/>
<use data-text="&#x03b1;" xlink:href="#font_2_1" transform="matrix(9.9,0,0,-9.9,39.86144,251.76876)"/>
<use data-text="=" xlink:href="#font_1_15" transform="matrix(9.9,0,0,-9.9,45.94994,251.76876)"/>
<use data-text="1" xlink:href="#font_1_18" transform="matrix(9.9,0,0,-9.9,51.73154,251.76876)"/>
<use data-text="." xlink:href="#font_1_30" transform="matrix(9.9,0,0,-9.9,57.23594,251.76876)"/>
<use data-text="6" xlink:href="#font_1_31" transform="matrix(9.9,0,0,-9.9,59.98814,251.76876)"/>
<use data-text="," xlink:href="#font_1_17" transform="matrix(9.9,0,0,-9.9,65.49254,251.76876)"/>
<use data-text=" " xlink:href="#font_1_7" transform="matrix(9.9,0,0,-9.9,68.244739,251.76876)"/>
<use data-text="&#x03b2;" xlink:href="#font_2_2" transform="matrix(9.9,0,0,-9.9,70.99238,251.76877)" fill="#dc143c"/>
<use data-text="=" xlink:href="#font_1_15" transform="matrix(9.9,0,0,-9.9,77.03138,251.76877)" fill="#dc143c"/>
<use data-text="0" xlink:href="#font_1_19" transform="matrix(9.9,0,0,-9.9,82.81298,251.76877)" fill="#dc143c"/>
<use data-text="." xlink:href="#font_1_30" transform="matrix(9.9,0,0,-9.9,88.31738,251.76877)" fill="#dc143c"/>
<use data-text="5" xlink:href="#font_1_35" transform="matrix(9.9,0,0,-9.9,91.06958,251.76877)" fill="#dc143c"/>
<use data-text="," xlink:href="#font_1_17" transform="matrix(9.9,0,0,-9.9,96.57866,251.76877)"/>
<use data-text=" " xlink:href="#font_1_7" transform="matrix(9.9,0,0,-9.9,99.33086,251.76877)"/>
<use data-text="&#x03b3;" xlink:href="#font_2_3" transform="matrix(9.9,0,0,-9.9,102.08305,251.76877)"/>
<use data-text="=" xlink:href="#font_1_15" transform="matrix(9.9,0,0,-9.9,107.587459,251.76877)"/>
<use data-text="0" xlink:href="#font_1_19" transform="matrix(9.9,0,0,-9.9,113.36906,251.76877)"/>
<use data-text=")" xlink:href="#font_1_20" transform="matrix(9.9,0,0,-9.9,118.87346,251.76877)"/>
<path stroke-width="1.5" stroke-linecap="round" stroke-linejoin="round" fill="none" stroke="#dc143c" d="M47.828 277.758H48.574L49.316 278.637 50.059 278.754 50.801 278.207H51.547L52.289 278.832 53.031 278.723 53.773 278.477 54.52 279.277 55.262 278.543 56.004 279.191 56.746 280.426 57.492 279.82 58.234 278.063 58.977 280.344 59.719 281.375 60.465 276.273 61.207 277.766 61.949 278.719 62.691 278.082 63.438 280.625 64.18 288.684 64.922 290.719 65.664 291.602 66.41 291.109 67.152 290.66 67.895 288.086 68.637 286.516 69.383 286.113 70.125 283.426 70.867 281.938 71.613 284.629 72.355 285.828 73.098 285.27 73.84 286.246 74.586 285.52 75.328 285.215 76.07 285.098 76.813 284.645 77.559 284.965 78.301 286.09 79.043 287.77 79.785 287.91 80.531 284.531 81.273 286.742 82.016 288.32 82.758 290.918 83.504 288.582 84.246 287.395 84.988 288.168 85.73 286.223 86.477 287.926 87.219 279.238 87.961 279.891 88.703 282.867 89.449 281.766 90.191 281.023 90.934 282.258 91.676 281.059 92.422 281.262 93.164 284.301 93.906 281.906 94.648 280.094 95.395 279.949 96.137 279.215 96.879 277.613 97.621 278.691 98.367 278.672 99.109 277.063 99.852 277.176 100.594 277.754 101.34 274.805 102.082 275.016 102.824 275.145 103.566 281.008 104.313 281.711 105.055 280.438 105.797 278.426 106.539 278.613 107.285 279.367 108.027 276.746 108.77 276.5 109.512 276.934 110.258 279.805 111 279.086 111.742 278.758 112.488 278.898 113.23 277.363 113.973 278.055 114.715 276.699 115.461 276.418 116.203 277.578 116.945 276.016 117.688 279.473 118.434 281.832 119.176 281.242 119.918 290.523 120.66 290.473 121.406 289.934 122.148 291.199 122.891 287.922 123.633 287.234 124.379 287.906 125.121 288.137 125.863 288.773 126.605 287.277 127.352 284.211 128.094 280.281 128.836 277.902 129.578 276.836 130.324 276.434 131.066 274.371 131.809 278.148 132.551 278.816 133.297 275.992 134.039 276.586 134.781 274.953 135.523 271.602 136.27 273.887 137.012 269.422 137.754 271.488 138.496 273.93 139.242 275.801 139.984 278.484 140.727 277.063 141.469 278.172 142.215 278.457 142.957 278.133 143.699 277.629 144.441 289.555 145.188 287.844 145.93 284.039 146.672 284.398 147.414 282.461 148.16 279.863 148.902 280.918 149.645 281.453 150.387 280.348 151.133 278.234 151.875 279.719 152.617 279.082 153.363 270.816 154.105 273.516 154.848 262.836 155.59 264.539 156.336 268.25 157.078 270.434 157.82 272.137 158.563 271.957 159.309 271.586 160.051 270.691 160.793 272.66 161.535 276.43 162.281 277.555 163.023 273.551 163.766 272.5 164.508 270.578 165.254 269.77 165.996 270.172 166.738 271.273 167.48 271.492 168.227 274.957 168.969 280.84 169.711 283.414 170.453 280.883 171.199 283.555 171.941 281.969 172.684 279.371 173.426 277.277 174.172 277.164 174.914 276.48 175.656 277.203 176.398 273.902 177.145 272.723 177.887 271.727 178.629 271.68 179.371 272.332 180.117 273.949 180.859 274.547 181.602 274 182.344 275.047 183.09 277.867 183.832 279.68 184.574 276.137 185.316 275.809 186.063 271.703 186.805 274.289 187.547 273.91 188.289 273.031 189.035 273.402 189.777 281.766 190.52 280.012 191.262 275.57 192.008 279.039 192.75 279.293 193.492 278.383 194.238 278.699 194.98 279.215 195.723 278.703 196.465 280.145 197.211 278.746 197.953 283.668 198.695 283.852 199.438 284.875 200.184 285.598 200.926 289.219 201.668 288.621 202.41 285.895 203.156 285.488 203.898 285.52 204.641 286.465 205.383 286.867 206.129 285.742 206.871 285.512 207.613 286.039 208.355 277.344 209.102 277.855 209.844 276.273 210.586 275.773 211.328 276.488 212.074 277.586 212.816 277.781 213.559 278.309 214.301 279.637 215.047 278.953 215.789 279.508 216.531 277.453 217.273 277.074 218.02 276.426 218.762 279.102 219.504 279.047 220.246 277.711 220.992 276.84 221.734 278.797 222.477 279.391 223.219 279.215 223.965 278.75 224.707 279.309 225.449 279.672 226.191 278.133 226.938 278.23 227.68 279.32 228.422 278.383 229.164 279.258 229.91 280.563 230.652 282.461 231.395 287.395 232.137 263.426 232.883 268.41 233.625 269.867 234.367 270.695 235.113 273.254 235.855 275.656 236.598 275.121 237.34 275.531 238.086 274.762 238.828 274.426 239.57 274.914 240.313 276.082 241.059 276.492 241.801 279.031 242.543 275.648 243.285 274.523 244.031 276.902 244.773 282.262 245.516 283.066 246.258 280.207 247.004 280.984 247.746 277.348 248.488 275.574 249.23 274.355 249.977 274.984 250.719 275.906 251.461 280.242 252.203 279.176 252.949 277.027 253.691 275.668 254.434 275.258 255.176 276.863 255.922 275.934 256.664 273.48 257.406 273.535 258.148 271.289 258.895 270.016 259.637 273.227 260.379 275.234 261.121 273.668 261.867 272.73 262.609 270.957 263.352 273.012 264.094 271.02 264.84 271.762 265.582 270.465 266.324 268.555 267.066 271.895 267.813 277.813 268.555 275.813 269.297 277.172 270.039 261.492 270.785 264.969 271.527 267.266 272.27 268.367 273.012 269.488 273.758 269.934 274.5 270.141 275.242 272.223 275.988 270.82 276.73 271.438 277.473 271.992 278.215 274.078 278.961 273.82 279.703 271.379 280.445 270.07 281.188 269.23 281.934 268.586 282.676 268.34 283.418 269.824 284.16 271.434 284.906 273.621 285.648 272.25 286.391 271.875 287.133 274.004 287.879 277.055 288.621 277.41 289.363 276.336 290.105 274.555 290.852 276.77 291.594 325.125 292.336 317.789 293.078 311.266 293.824 306.246 294.566 306.203 295.309 305.063 296.051 303.277 296.797 303.145 297.539 301.008 298.281 302.016 299.023 300.086 299.77 297.645 300.512 296.633 301.254 296.723 301.996 297.469 302.742 295.594 303.484 295.828 304.227 281.402 304.969 285.98 305.715 288.578 306.457 288.91 307.199 293.246 307.941 295.113 308.688 257.836 309.43 263.059 310.172 267.539 310.914 271.086 311.66 271.957 312.402 272.871 313.145 273.27 313.887 271.004 314.633 273.27 315.375 273.371 316.117 274.352 316.863 273.512 317.605 277.824 318.348 276.664 319.09 257.625 319.836 262.172 320.578 264.309 321.32 266.77 322.063 264.086 322.809 268.16 323.551 270.34 324.293 270.957 325.035 270.316 325.781 271.922 326.523 274.324 327.266 276.32 328.008 275.824 328.754 276.246 329.496 275.941 330.238 274.145 330.98 273.543 331.727 276.684 332.469 277.039 333.211 276.832 333.953 274.438 334.699 273.508 335.441 273.684 336.184 279.137 336.926 280 337.672 278.805 338.414 279.41 339.156 278.891 339.898 278.777 340.645 279.672 341.387 277.75 342.129 274.133 342.871 276.438 343.617 279.156 344.359 277.242 345.102 273.82 345.844 274.508 346.59 274.652 347.332 276.461 348.074 277.68 348.816 265.297 349.563 262.672 350.305 264.777 351.047 270.109 351.789 270.809 352.535 274.875 353.277 275.441 354.02 275.406 354.762 277.902 355.508 279.48 356.25 279.289 356.992 278.41 357.738 277.34 358.48 277.844 359.223 277.227 359.965 278.609 360.711 279.609 361.453 277.703 362.195 276.512 362.938 276.66 363.684 277.707 364.426 278.254 365.168 279.523 365.91 280.863 366.656 280.066 367.398 281.871 368.141 280.203 368.883 280.086 369.629 283.164 370.371 276.707 371.113 277.348 371.855 278.184 372.602 278.02 373.344 277.477 374.086 271.891 374.828 275.094 375.574 276.793 376.316 278.602 377.059 280.184 377.801 279.059 378.547 280.16 379.289 280.73 380.031 277.336 380.773 271.941 381.52 273.793 382.262 274.609 383.004 272.586 383.746 268.602 384.492 274.379 385.234 272.152 385.977 271.043 386.719 272.938 387.465 268.027 388.207 268.91 388.949 270.277 389.691 270.313 390.438 270.418 391.18 269.258 391.922 270.52 392.664 271.316 393.41 270.035 394.152 272.828 394.895 272.258 395.637 274.98 396.383 275.191 397.125 273.762 397.867 271.371 398.613 270.129 399.355 268.258 400.098 265.012 400.84 269.184 401.586 268.934 402.328 269.074 403.07 268.957 403.813 272.113 404.559 270.148 405.301 267.285 406.043 268.645 406.785 268.828 407.531 269.867 408.273 270.449 409.016 270.961 409.758 268.02 410.504 271.285 411.246 270.367 411.988 268.254 412.73 266.277 413.477 267.523 414.219 265.305 414.961 264.816 415.703 265.211 416.449 266.184 417.191 267.559 417.934 265.953 418.676 268.535 419.422 269.055"/>
<use data-text="L" xlink:href="#font_1_21" transform="matrix(9.9,0,0,-9.9,36.56474,349.88475)"/>
<use data-text="&#x00e9;" xlink:href="#font_1_22" transform="matrix(9.9,0,0,-9.9,42.61364,349.88475)"/>
<use data-text="v" xlink:href="#font_1_23" transform="matrix(9.9,0,0,-9.9,48.118043,349.88475)"/>
<use data-text="y" xlink:href="#font_1_24" transform="matrix(9.9,0,0,-9.9,53.622446,349.88475)"/>
<use data-text=" " xlink:href="#font_1_7" transform="matrix(9.9,0,0,-9.9,59.126848,349.88475)"/>
<use data-text="f" xlink:href="#font_1_10" transform="matrix(9.9,0,0,-9.9,61.879049,349.88475)"/>
<use data-text="l" xlink:href="#font_1_6" transform="matrix(9.9,0,0,-9.9,65.17575,349.88475)"/>
<use data-text="i" xlink:href="#font_1_9" transform="matrix(9.9,0,0,-9.9,67.92795,349.88475)"/>
<use data-text="g" xlink:href="#font_1_25" transform="matrix(9.9,0,0,-9.9,70.680149,349.88475)"/>
<use data-text="h" xlink:href="#font_1_26" transform="matrix(9.9,0,0,-9.9,76.72904,349.88475)"/>
<use data-text="t" xlink:href="#font_1_27" transform="matrix(9.9,0,0,-9.9,82.77794,349.88475)"/>
<use data-text="s" xlink:href="#font_1_12" transform="matrix(9.9,0,0,-9.9,86.07464,349.88475)"/>
<use data-text=" " xlink:href="#font_1_7" transform="matrix(9.9,0,0,-9.9,91.57904,349.88475)"/>
<use data-text="+" xlink:href="#font_1_32" transform="matrix(9.9,0,0,-9.9,94.33124,349.88475)"/>
<use data-text=" " xlink:href="#font_1_7" transform="matrix(9.9,0,0,-9.9,100.11284,349.88475)"/>
<use data-text="l" xlink:href="#font_1_6" transform="matrix(9.9,0,0,-9.9,102.865039,349.88475)"/>
<use data-text="o" xlink:href="#font_1_2" transform="matrix(9.9,0,0,-9.9,105.61723,349.88475)"/>
<use data-text="n" xlink:href="#font_1_13" transform="matrix(9.9,0,0,-9.9,111.66613,349.88475)"/>
<use data-text="g" xlink:href="#font_1_25" transform="matrix(9.9,0,0,-9.9,117.71503,349.88475)"/>
<use data-text="-" xlink:href="#font_1_33" transform="matrix(9.9,0,0,-9.9,123.76392,349.88475)"/>
<use data-text="r" xlink:href="#font_1_3" transform="matrix(9.9,0,0,-9.9,127.06062,349.88475)"/>
<use data-text="a" xlink:href="#font_1_5" transform="matrix(9.9,0,0,-9.9,130.91173,349.88475)"/>
<use data-text="n" xlink:href="#font_1_13" transform="matrix(9.9,0,0,-9.9,136.41613,349.88475)"/>
<use data-text="g" xlink:href="#font_1_25" transform="matrix(9.9,0,0,-9.9,142.46503,349.88475)"/>
<use data-text="e" xlink:href="#font_1_29" transform="matrix(9.9,0,0,-9.9,148.51393,349.88475)"/>
<use data-text=" " xlink:href="#font_1_7" transform="matrix(9.9,0,0,-9.9,154.01833,349.88475)"/>
<use data-text="m" xlink:href="#font_1_4" transform="matrix(9.9,0,0,-9.9,156.77053,349.88475)"/>
<use data-text="e" xlink:href="#font_1_29" transform="matrix(9.9,0,0,-9.9,165.57163,349.88475)"/>
<use data-text="m" xlink:href="#font_1_4" transform="matrix(9.9,0,0,-9.9,171.07602,349.88475)"/>
<use data-text="o" xlink:href="#font_1_2" transform="matrix(9.9,0,0,-9.9,179.87712,349.88475)"/>
<use data-text="r" xlink:href="#font_1_3" transform="matrix(9.9,0,0,-9.9,185.92603,349.88475)"/>
<use data-text="y" xlink:href="#font_1_24" transform="matrix(9.9,0,0,-9.9,189.77713,349.88475)"/>
<use data-text=" " xlink:href="#font_1_7" transform="matrix(9.9,0,0,-9.9,195.28153,349.88475)"/>
<use data-text="+" xlink:href="#font_1_32" transform="matrix(9.9,0,0,-9.9,198.03372,349.88475)"/>
<use data-text=" " xlink:href="#font_1_7" transform="matrix(9.9,0,0,-9.9,203.81533,349.88475)"/>
<use data-text="o" xlink:href="#font_1_2" transform="matrix(9.9,0,0,-9.9,206.56752,349.88475)"/>
<use data-text="s" xlink:href="#font_1_12" transform="matrix(9.9,0,0,-9.9,212.61643,349.88475)"/>
<use data-text="c" xlink:href="#font_1_36" transform="matrix(9.9,0,0,-9.9,218.12082,349.88475)"/>
<use data-text="i" xlink:href="#font_1_9" transform="matrix(9.9,0,0,-9.9,223.62522,349.88475)"/>
<use data-text="l" xlink:href="#font_1_6" transform="matrix(9.9,0,0,-9.9,226.37741,349.88475)"/>
<use data-text="l" xlink:href="#font_1_6" transform="matrix(9.9,0,0,-9.9,229.12961,349.88475)"/>
<use data-text="a" xlink:href="#font_1_5" transform="matrix(9.9,0,0,-9.9,231.8818,349.88475)"/>
<use data-text="t" xlink:href="#font_1_27" transform="matrix(9.9,0,0,-9.9,237.3862,349.88475)"/>
<use data-text="i" xlink:href="#font_1_9" transform="matrix(9.9,0,0,-9.9,240.6829,349.88475)"/>
<use data-text="o" xlink:href="#font_1_2" transform="matrix(9.9,0,0,-9.9,243.4351,349.88475)"/>
<use data-text="n" xlink:href="#font_1_13" transform="matrix(9.9,0,0,-9.9,249.48401,349.88475)"/>
<use data-text="s" xlink:href="#font_1_12" transform="matrix(9.9,0,0,-9.9,255.53292,349.88475)"/>
<use data-text="(" xlink:href="#font_1_14" transform="matrix(9.9,0,0,-9.9,36.56474,361.26878)"/>
<use data-text="&#x03b1;" xlink:href="#font_2_1" transform="matrix(9.9,0,0,-9.9,39.86144,361.26878)"/>
<use data-text="=" xlink:href="#font_1_15" transform="matrix(9.9,0,0,-9.9,45.94994,361.26878)"/>
<use data-text="1" xlink:href="#font_1_18" transform="matrix(9.9,0,0,-9.9,51.73154,361.26878)"/>
<use data-text="." xlink:href="#font_1_30" transform="matrix(9.9,0,0,-9.9,57.23594,361.26878)"/>
<use data-text="6" xlink:href="#font_1_31" transform="matrix(9.9,0,0,-9.9,59.98814,361.26878)"/>
<use data-text="," xlink:href="#font_1_17" transform="matrix(9.9,0,0,-9.9,65.49254,361.26878)"/>
<use data-text="&#x03b2;" xlink:href="#font_2_2" transform="matrix(9.9,0,0,-9.9,70.99693,361.26878)"/>
<use data-text="=" xlink:href="#font_1_15" transform="matrix(9.9,0,0,-9.9,77.035938,361.26878)"/>
<use data-text="0" xlink:href="#font_1_19" transform="matrix(9.9,0,0,-9.9,82.817539,361.26878)"/>
<use data-text="." xlink:href="#font_1_30" transform="matrix(9.9,0,0,-9.9,88.32194,361.26878)"/>
<use data-text="5" xlink:href="#font_1_35" transform="matrix(9.9,0,0,-9.9,91.074138,361.26878)"/>
<use data-text="," xlink:href="#font_1_17" transform="matrix(9.9,0,0,-9.9,96.57854,361.26878)"/>
<use data-text="&#x03b3;" xlink:href="#font_2_3" transform="matrix(9.9,0,0,-9.9,102.08305,361.2688)" fill="#ef9901"/>
<use data-text="=" xlink:href="#font_1_15" transform="matrix(9.9,0,0,-9.9,107.587459,361.2688)" fill="#ef9901"/>
<use data-text="3" xlink:href="#font_1_37" transform="matrix(9.9,0,0,-9.9,113.36906,361.2688)" fill="#ef9901"/>
<use data-text=")" xlink:href="#font_1_20" transform="matrix(9.9,0,0,-9.9,118.87632,361.2688)"/>
<path stroke-width="1.5" stroke-linecap="round" stroke-linejoin="round" fill="none" stroke="#ef9901" d="M47.828 394.203H48.574L49.316 394.902 50.059 394.996 50.801 394.516 51.547 394.438 52.289 394.867 53.031 394.715 53.773 394.426 54.52 394.965 55.262 394.289 56.004 394.684 56.746 395.574 57.492 394.98 58.234 393.398 58.977 395.039 59.719 395.773 60.465 391.563 61.207 392.535 61.949 393.305 62.691 392.863 63.438 394.961 64.18 401.5 64.922 403.133 65.664 403.371 66.41 402.129 67.152 400.637 67.895 397.305 68.637 394.723 69.383 393.211 70.125 390.086 70.867 388.121 71.613 389.824 72.355 390.668 73.098 390.23 73.84 391.09 74.586 390.699 75.328 390.68 76.07 390.883 76.813 390.891 77.559 391.563 78.301 392.93 79.043 394.742 79.785 395.266 80.531 392.832 81.273 394.754 82.016 396.25 82.758 398.473 83.504 396.613 84.246 395.438 84.988 395.789 85.73 394.004 86.477 395.098 87.219 387.992 87.961 388.309 88.703 390.922 89.449 390.516 90.191 390.398 90.934 391.934 91.676 391.602 92.422 392.348 93.164 395.387 93.906 394.063 94.648 393.012 95.395 393.266 96.137 393.09 96.879 392.227 97.621 393.508 98.367 393.98 99.109 393.145 99.852 393.633 100.594 394.52 101.34 392.574 102.082 393.082 102.824 393.609 103.566 398.719 104.313 399.695 105.055 398.754 105.797 396.961 106.539 396.805 107.285 397.102 108.027 394.688 108.77 394.113 109.512 394.188 110.258 396.293 111 395.574 111.742 395.063 112.488 394.906 113.23 393.441 113.973 393.758 114.715 392.543 115.461 392.219 116.203 393.152 116.945 392.004 117.688 394.859 118.434 396.938 119.176 396.543 119.918 403.824 120.66 403.582 121.406 402.406 122.148 402.355 122.891 398.516 123.633 396.582 124.379 395.84 125.121 394.883 125.863 394.352 126.605 392.242 127.352 388.98 128.094 385.238 128.836 383.074 129.578 382.422 130.324 382.754 131.066 382.137 131.809 386.461 132.551 388.582 133.297 387.883 134.039 389.828 134.781 390.035 135.523 388.797 136.27 392.023 137.012 389.945 137.754 392.922 138.496 396.262 139.242 398.992 139.984 402.074 140.727 401.531 141.469 402.566 142.215 402.688 142.957 402.035 143.699 401.004 144.441 409.727 145.188 407.492 145.93 402.898 146.672 401.344 147.414 397.996 148.16 394.164 148.902 393.43 149.645 392.609 150.387 390.703 151.133 388.199 151.875 388.824 152.617 388.102 153.363 381.496 154.105 383.852 154.848 376.141 155.59 378.551 156.336 383.313 157.078 387.199 157.82 390.699 158.563 392.547 159.309 393.996 160.051 394.793 160.793 397.652 161.535 401.766 162.281 403.449 163.023 400.574 163.766 399.629 164.508 397.863 165.254 396.902 165.996 396.914 166.738 397.508 167.48 397.387 168.227 399.789 168.969 404.066 169.711 405.512 170.453 402.469 171.199 403.207 171.941 400.477 172.684 396.781 173.426 393.523 174.172 392.055 174.914 390.43 175.656 390.199 176.398 387.035 177.145 385.773 177.887 385.02 178.629 385.363 179.371 386.563 180.117 388.754 180.859 390.246 181.602 390.809 182.344 392.59 183.09 395.75 183.832 397.992 184.574 395.707 185.316 395.691 186.063 392.621 186.805 394.832 187.547 394.82 188.289 394.332 189.035 394.805 189.777 401.648 190.52 400.391 191.262 396.516 192.008 398.754 192.75 398.516 193.492 397.215 194.238 396.801 194.98 396.563 195.723 395.508 196.465 396.012 197.211 394.309 197.953 397.641 198.695 397.297 199.438 397.461 200.184 397.32 200.926 399.426 201.668 398.133 202.41 394.961 203.156 393.605 203.898 392.762 204.641 392.809 205.383 392.57 206.129 391.211 206.871 390.66 207.613 390.871 208.355 383.875 209.102 384.316 209.844 383.633 210.586 384.121 211.328 385.875 212.074 388.137 212.816 389.762 213.559 391.602 214.301 394.008 215.047 394.672 215.789 396.109 216.531 395.297 217.273 395.617 218.02 395.641 218.762 398.223 219.504 398.547 220.246 397.621 220.992 396.883 221.734 398.328 222.477 398.656 223.219 398.23 223.965 397.453 224.707 397.418 225.449 397.203 226.191 395.438 226.938 394.949 227.68 395.332 228.422 394.164 229.164 394.449 229.91 395.156 230.652 396.363 231.395 399.969 232.137 380.441 232.883 383.715 233.625 385.273 234.367 386.715 235.113 389.75 235.855 392.758 236.598 393.359 237.34 394.527 238.086 394.637 238.828 394.945 239.57 395.824 240.313 397.16 241.059 397.77 241.801 399.91 242.543 397.172 243.285 395.984 244.031 397.586 244.773 401.605 245.516 401.887 246.258 398.906 247.004 398.594 247.746 394.777 248.488 392.422 249.23 390.719 249.977 390.734 250.719 391.242 251.461 394.641 252.203 393.828 252.949 392.02 253.691 390.848 254.434 390.551 255.176 392.016 255.922 391.582 256.664 389.93 257.406 390.332 258.148 389.055 258.895 388.629 259.637 391.938 260.379 394.426 261.121 393.961 261.867 393.809 262.609 392.922 263.352 395.047 264.094 393.98 264.84 394.961 265.582 394.316 266.324 393.105 267.066 396.074 267.813 401.16 268.555 399.77 269.297 400.641 270.039 387.754 270.785 389.941 271.527 391.863 272.27 393.039 273.012 394.258 273.758 394.918 274.5 395.313 275.242 397.129 275.988 396.098 276.73 396.512 277.473 396.84 278.215 398.32 278.961 397.859 279.703 395.496 280.445 393.965 281.188 392.887 281.934 392.09 282.676 391.742 283.418 392.91 284.16 394.293 284.906 396.145 285.648 395.094 286.391 394.695 287.133 396.277 287.879 398.602 288.621 398.672 289.363 397.391 290.105 395.398 290.852 396.57 291.594 434.625 292.336 428.211 293.078 419.621 293.824 411.148 294.566 406.41 295.309 401.008 296.051 395.363 296.797 391.453 297.539 386.504 298.281 384.637 299.023 381.113 299.77 377.766 300.512 376.219 301.254 376.266 301.996 377.473 302.742 377.094 303.484 378.742 304.227 369.066 304.969 374.77 305.715 379.805 306.457 383.258 307.199 389.844 307.941 394.313 308.688 367.125 309.43 373.34 310.172 380.512 310.914 387.352 311.66 391.945 312.402 396.18 313.145 399.531 313.887 400.23 314.633 403.996 315.375 405.613 316.117 407.371 316.863 407.164 317.605 410.559 318.348 409.203 319.09 393.031 319.836 395.328 320.578 396.453 321.32 398.016 322.063 395.5 322.809 398.297 323.551 399.695 324.293 399.715 325.035 398.563 325.781 399.09 326.523 400.227 327.266 400.965 328.008 399.57 328.754 398.762 329.496 397.34 330.238 394.734 330.98 393.148 331.727 394.73 332.469 394.301 333.211 393.445 333.953 390.91 334.699 389.645 335.441 389.488 336.184 393.785 336.926 394.59 337.672 393.617 338.414 393.988 339.156 393.48 339.898 393.285 340.645 393.922 341.387 392.348 342.129 389.402 342.871 391.277 343.617 393.738 344.359 392.539 345.102 390.031 345.844 390.836 346.59 391.395 347.332 393.348 348.074 394.852 348.816 385.418 349.563 383.633 350.305 386.156 351.047 391.672 351.789 393.617 352.535 398.031 353.277 399.453 354.02 400 354.762 402.242 355.508 403.492 356.25 402.984 356.992 401.602 357.738 399.844 358.48 399.238 359.223 397.73 359.965 397.805 360.711 397.625 361.453 395.133 362.195 393.211 362.938 392.5 363.684 392.699 364.426 392.672 365.168 393.313 365.91 394.094 366.656 393.199 367.398 394.363 368.141 392.816 368.883 392.473 369.629 394.77 370.371 389.547 371.113 389.887 371.855 390.684 372.602 390.836 373.344 390.75 374.086 386.699 374.828 389.727 375.574 391.879 376.316 394.125 377.059 396.102 377.801 395.754 378.547 396.969 379.289 397.648 380.031 395.008 380.773 390.617 381.52 392.059 382.262 392.965 383.004 391.664 383.746 388.801 384.492 393.816 385.234 392.703 385.977 392.309 386.719 394.32 387.465 390.938 388.207 392.066 388.949 393.75 389.691 394.387 390.438 394.992 391.18 394.516 391.922 395.875 392.664 396.844 393.41 396.039 394.152 398.344 394.895 397.93 395.637 399.945 396.383 399.852 397.125 398.234 397.867 395.699 398.613 394.063 399.355 392.043 400.098 389.074 400.84 392.23 401.586 392.18 402.328 392.441 403.07 392.543 403.813 395.281 404.559 393.965 405.301 391.781 406.043 392.98 406.785 393.379 407.531 394.465 408.273 395.176 409.016 395.762 409.758 393.516 410.504 396.133 411.246 395.496 411.988 393.777 412.73 392.133 413.477 393.137 414.219 391.523 414.961 391.305 415.703 391.922 416.449 393.094 417.191 394.621 417.934 393.734 418.676 396.082 419.422 396.789"/>
<use data-text="(" xlink:href="#font_1_14" transform="matrix(16.5,0,0,-16.5,9.152344,26.937)"/>
<use data-text="a" xlink:href="#font_1_5" transform="matrix(16.5,0,0,-16.5,14.646844,26.937)"/>
<use data-text=")" xlink:href="#font_1_20" transform="matrix(16.5,0,0,-16.5,23.820845,26.937)"/>
<use data-text="(" xlink:href="#font_1_14" transform="matrix(16.5,0,0,-16.5,8.25,136.812)"/>
<use data-text="b" xlink:href="#font_1_34" transform="matrix(16.5,0,0,-16.5,13.7445,136.812)"/>
<use data-text=")" xlink:href="#font_1_20" transform="matrix(16.5,0,0,-16.5,23.826,136.812)"/>
<use data-text="(" xlink:href="#font_1_14" transform="matrix(16.5,0,0,-16.5,9.152344,246.687)"/>
<use data-text="c" xlink:href="#font_1_36" transform="matrix(16.5,0,0,-16.5,14.646844,246.687)"/>
<use data-text=")" xlink:href="#font_1_20" transform="matrix(16.5,0,0,-16.5,23.820845,246.687)"/>
<use data-text="(" xlink:href="#font_1_14" transform="matrix(16.5,0,0,-16.5,8.25,356.562)"/>
<use data-text="d" xlink:href="#font_1_8" transform="matrix(16.5,0,0,-16.5,13.7445,356.562)"/>
<use data-text=")" xlink:href="#font_1_20" transform="matrix(16.5,0,0,-16.5,23.826,356.562)"/>
</g>
</svg>
